SplineFontDB: 3.0
FontName: HiVe-MathSym
FullName: HiVe Math Symbols
FamilyName: HiVe
Weight: Regular
Copyright: Copyright (URW)++,Copyright 1999 by (URW)++ Design & Development
Version: 1.0
ItalicAngle: 0
UnderlinePosition: -100
UnderlineWidth: 50
Ascent: 800
Descent: 200
LayerCount: 2
Layer: 0 0 "Back"  1
Layer: 1 0 "Fore"  0
NeedsXUIDChange: 1
UniqueID: 4024606
FSType: 0
OS2Version: 0
OS2_WeightWidthSlopeOnly: 0
OS2_UseTypoMetrics: 0
CreationTime: 1180051505
ModificationTime: 1422854326
OS2TypoAscent: 0
OS2TypoAOffset: 1
OS2TypoDescent: 0
OS2TypoDOffset: 1
OS2TypoLinegap: 0
OS2WinAscent: 0
OS2WinAOffset: 1
OS2WinDescent: 0
OS2WinDOffset: 1
HheadAscent: 0
HheadAOffset: 1
HheadDescent: 0
HheadDOffset: 1
OS2Vendor: 'PfEd'
Lookup: 4 0 1 "'liga' Standard Ligatures lookup 0"  {"'liga' Standard Ligatures lookup 0 subtable"  } ['liga' ('DFLT' <'dflt' > ) ]
Lookup: 4 0 1 "'liga' Standard Ligatures in Latin lookup 1"  {"'liga' Standard Ligatures in Latin lookup 1 subtable"  } ['liga' ('latn' <'dflt' > ) ]
Lookup: 4 0 0 "'frac' Diagonal Fractions lookup 2"  {"'frac' Diagonal Fractions lookup 2 subtable"  } ['frac' ('DFLT' <'dflt' > ) ]
DEI: 91125
Encoding: UnicodeBmp
UnicodeInterp: none
NameList: Adobe Glyph List
DisplaySize: -48
AntiAlias: 1
FitToEm: 1
WinInfo: 12272 16 13
BeginPrivate: 7
BlueValues 23 [-20 0 450 470 662 682]
BlueScale 8 0.039625
StdHW 4 [30]
StdVW 4 [85]
StemSnapH 200 [30 38 43 53 60 73] 
systemdict /internaldict known
{1183615869 systemdict /internaldict get exec
/StemSnapLength 2 copy known { get 6 lt } { pop pop true } ifelse }
{ true } ifelse { pop [30 38] } if
StemSnapV 204 [78 85 91 103 109 115] 
systemdict /internaldict known
{1183615869 systemdict /internaldict get exec
/StemSnapLength 2 copy known { get 6 lt } { pop pop true } ifelse }
{ true } ifelse { pop [85 103] } if
ForceBold 5 false
EndPrivate
BeginChars: 65536 963

StartChar: Adieresis
Encoding: 196 196 0
Width: 1478
Flags: HW
HStem: 0 39<422 449 936 982> 442 84<604 1079> 1339 41G<1133 1174> 1505 203<981 1042 1389 1450>
LayerCount: 2
Fore
SplineSet
1458 39 m 1
 1446 0 l 1
 924 0 l 1
 936 39 l 1
 1045 41 1086 58 1100 109 c 0
 1108 138 1110 191 1104 246 c 2
 1079 442 l 1
 543 442 l 1
 375 203 l 2
 357 176 342 148 334 123 c 0
 318 66 351 39 449 39 c 1
 436 0 l 1
 31 0 l 1
 43 39 l 1
 141 43 176 76 399 375 c 1
 1133 1380 l 1
 1174 1380 l 1
 1327 217 l 1
 1354 65 1368 45 1458 39 c 1
604 526 m 1
 1077 526 l 1
 1012 1090 l 1
 604 526 l 1
1042 1708 m 0
 1099 1708 1132 1661 1116 1606 c 0
 1098 1551 1038 1505 981 1505 c 0
 926 1505 895 1551 913 1608 c 0
 929 1661 991 1708 1042 1708 c 0
1450 1708 m 0
 1507 1708 1540 1661 1524 1606 c 0
 1506 1551 1446 1505 1389 1505 c 0
 1334 1505 1303 1551 1321 1608 c 0
 1337 1661 1399 1708 1450 1708 c 0
EndSplineSet
Ligature2: "'liga' Standard Ligatures in Latin lookup 1 subtable" A uni0308
EndChar

StartChar: Aacute
Encoding: 193 193 1
Width: 1478
Flags: HW
HStem: 0 39<422 449 936 982> 442 84<604 1079> 1339 41G<1133 1174>
LayerCount: 2
Fore
SplineSet
1458 39 m 1
 1446 0 l 1
 924 0 l 1
 936 39 l 1
 1045 41 1086 58 1100 109 c 0
 1108 138 1110 191 1104 246 c 2
 1079 442 l 1
 543 442 l 1
 375 203 l 2
 357 176 342 148 334 123 c 0
 318 66 351 39 449 39 c 1
 436 0 l 1
 31 0 l 1
 43 39 l 1
 141 43 176 76 399 375 c 1
 1133 1380 l 1
 1174 1380 l 1
 1327 217 l 1
 1354 65 1368 45 1458 39 c 1
604 526 m 1
 1077 526 l 1
 1012 1090 l 1
 604 526 l 1
1112 1473 m 1
 1030 1473 l 1
 1423 1776 l 2
 1472 1813 1493 1823 1524 1823 c 0
 1569 1823 1587 1798 1575 1757 c 0
 1565 1724 1538 1698 1487 1671 c 2
 1112 1473 l 1
EndSplineSet
Ligature2: "'liga' Standard Ligatures in Latin lookup 1 subtable" A acutecomb
EndChar

StartChar: Agrave
Encoding: 192 192 2
Width: 1478
Flags: HW
HStem: 0 39<422 449 936 982> 442 84<604 1079> 1339 41G<1133 1174>
LayerCount: 2
Fore
SplineSet
1458 39 m 1
 1446 0 l 1
 924 0 l 1
 936 39 l 1
 1045 41 1086 58 1100 109 c 0
 1108 138 1110 191 1104 246 c 2
 1079 442 l 1
 543 442 l 1
 375 203 l 2
 357 176 342 148 334 123 c 0
 318 66 351 39 449 39 c 1
 436 0 l 1
 31 0 l 1
 43 39 l 1
 141 43 176 76 399 375 c 1
 1133 1380 l 1
 1174 1380 l 1
 1327 217 l 1
 1354 65 1368 45 1458 39 c 1
604 526 m 1
 1077 526 l 1
 1012 1090 l 1
 604 526 l 1
1346 1473 m 1
 1264 1473 l 1
 1008 1671 l 2
 979 1696 967 1726 977 1759 c 0
 987 1798 1022 1823 1065 1823 c 0
 1096 1823 1112 1813 1137 1776 c 2
 1346 1473 l 1
EndSplineSet
Ligature2: "'liga' Standard Ligatures in Latin lookup 1 subtable" A gravecomb
EndChar

StartChar: Acircumflex
Encoding: 194 194 3
Width: 1478
Flags: HW
HStem: 0 39<422 449 936 982> 442 84<604 1079> 1339 41G<1133 1174>
LayerCount: 2
Fore
SplineSet
1458 39 m 1
 1446 0 l 1
 924 0 l 1
 936 39 l 1
 1045 41 1086 58 1100 109 c 0
 1108 138 1110 191 1104 246 c 2
 1079 442 l 1
 543 442 l 1
 375 203 l 2
 357 176 342 148 334 123 c 0
 318 66 351 39 449 39 c 1
 436 0 l 1
 31 0 l 1
 43 39 l 1
 141 43 176 76 399 375 c 1
 1133 1380 l 1
 1174 1380 l 1
 1327 217 l 1
 1354 65 1368 45 1458 39 c 1
604 526 m 1
 1077 526 l 1
 1012 1090 l 1
 604 526 l 1
1499 1473 m 1
 1430 1473 l 1
 1243 1683 l 1
 932 1473 l 1
 862 1473 l 1
 1221 1815 l 1
 1348 1815 l 1
 1499 1473 l 1
EndSplineSet
Ligature2: "'liga' Standard Ligatures in Latin lookup 1 subtable" A uni0302
EndChar

StartChar: Abreve
Encoding: 258 258 4
Width: 1478
Flags: HW
HStem: 0 41<43 128 346 436 936 1064 1380 1446> 442 84<442 915> 1339 41<711 752 752 752> 1473 123<689 801>
LayerCount: 2
Fore
SplineSet
1458 39 m 1
 1446 0 l 1
 924 0 l 1
 936 39 l 1
 1045 41 1086 58 1100 109 c 0
 1108 138 1110 191 1104 246 c 2
 1079 442 l 1
 543 442 l 1
 375 203 l 2
 357 176 342 148 334 123 c 0
 318 66 351 39 449 39 c 1
 436 0 l 1
 31 0 l 1
 43 39 l 1
 141 43 176 76 399 375 c 1
 1133 1380 l 1
 1174 1380 l 1
 1327 217 l 1
 1354 65 1368 45 1458 39 c 1
604 526 m 1
 1077 526 l 1
 1012 1090 l 1
 604 526 l 1
1518 1794 m 1x10
 1577 1794 l 1
 1485 1577 1360 1473 1188 1473 c 0
 1092 1473 1022 1511 991 1583 c 0
 971 1640 970 1690 1001 1794 c 1
 1061 1794 l 1
 1047 1657 1098 1595 1229 1595 c 0
 1348 1595 1414 1638 1518 1794 c 1x10
EndSplineSet
Ligature2: "'liga' Standard Ligatures in Latin lookup 1 subtable" A uni0306
EndChar

StartChar: Atilde
Encoding: 195 195 5
Width: 1478
Flags: HW
HStem: 0 39<422 449 936 982> 442 84<604 1079> 1339 41G<1133 1174> 1524 115<1327 1411> 1618 113<1061 1137>
LayerCount: 2
Fore
SplineSet
1458 39 m 1xe0
 1446 0 l 1
 924 0 l 1
 936 39 l 1
 1045 41 1086 58 1100 109 c 0
 1108 138 1110 191 1104 246 c 2
 1079 442 l 1
 543 442 l 1
 375 203 l 2
 357 176 342 148 334 123 c 0
 318 66 351 39 449 39 c 1
 436 0 l 1
 31 0 l 1
 43 39 l 1
 141 43 176 76 399 375 c 1
 1133 1380 l 1
 1174 1380 l 1
 1327 217 l 1
 1354 65 1368 45 1458 39 c 1xe0
604 526 m 1
 1077 526 l 1
 1012 1090 l 1
 604 526 l 1
1550 1741 m 1
 1610 1741 l 1
 1520 1585 1440 1524 1327 1524 c 0xf0
 1276 1524 1250 1532 1178 1573 c 2
 1137 1595 l 2
 1110 1609 1086 1618 1061 1618 c 0xe8
 1014 1618 969 1587 926 1524 c 1
 866 1524 l 1xf0
 938 1657 1035 1731 1137 1731 c 0xe8
 1182 1731 1231 1719 1270 1694 c 2
 1311 1669 l 2
 1344 1651 1380 1638 1411 1638 c 0xf0
 1458 1638 1491 1663 1550 1741 c 1
EndSplineSet
Ligature2: "'liga' Standard Ligatures in Latin lookup 1 subtable" A tildecomb
EndChar

StartChar: Aring
Encoding: 197 197 6
Width: 1478
Flags: HW
HStem: 0 39<422 449 936 982> 442 84<604 1079> 1339 41G<1133 1174> 1466 70<1163 1190> 1804 70<1268 1292>
LayerCount: 2
Fore
SplineSet
1458 39 m 1
 1446 0 l 1
 924 0 l 1
 936 39 l 1
 1045 41 1086 58 1100 109 c 0
 1108 138 1110 191 1104 246 c 2
 1079 442 l 1
 543 442 l 1
 375 203 l 2
 357 176 342 148 334 123 c 0
 318 66 351 39 449 39 c 1
 436 0 l 1
 31 0 l 1
 43 39 l 1
 141 43 176 76 399 375 c 1
 1133 1380 l 1
 1174 1380 l 1
 1327 217 l 1
 1354 65 1368 45 1458 39 c 1
604 526 m 1
 1077 526 l 1
 1012 1090 l 1
 604 526 l 1
1292 1874 m 0
 1405 1874 1469 1782 1434 1669 c 0
 1399 1556 1280 1466 1167 1466 c 0
 1052 1466 991 1556 1026 1671 c 0
 1061 1782 1181 1874 1292 1874 c 0
1272 1804 m 0
 1198 1804 1119 1745 1096 1671 c 0
 1073 1597 1114 1536 1186 1536 c 0
 1262 1536 1341 1595 1364 1669 c 0
 1387 1743 1344 1804 1272 1804 c 0
EndSplineSet
Ligature2: "'liga' Standard Ligatures in Latin lookup 1 subtable" A uni030A
EndChar

StartChar: Aogonek
Encoding: 260 260 7
Width: 1478
Flags: HMW
HStem: -338 115<1401 1422> 442 84<442 915> 1339 41<711 752 752 752>
VStem: 1231 115<-165 -148>
LayerCount: 2
Fore
SplineSet
1458 39 m 1
 1446 0 l 1
 1397 -10 1319 -90 1303 -141 c 0
 1289 -188 1311 -223 1356 -223 c 0
 1399 -223 1444 -203 1524 -150 c 1
 1554 -182 l 1
 1445 -291 1362 -338 1278 -338 c 0
 1194 -338 1149 -270 1176 -182 c 0
 1196 -114 1241 -66 1341 0 c 1
 924 0 l 1
 936 39 l 1
 1045 41 1086 58 1100 109 c 0
 1108 138 1110 191 1104 246 c 2
 1079 442 l 1
 543 442 l 1
 375 203 l 2
 357 176 342 148 334 123 c 0
 318 66 351 39 449 39 c 1
 436 0 l 1
 31 0 l 1
 43 39 l 1
 141 43 176 76 399 375 c 1
 1133 1380 l 1
 1174 1380 l 1
 1327 217 l 1
 1354 65 1368 45 1458 39 c 1
604 526 m 1
 1077 526 l 1
 1012 1090 l 1
 604 526 l 1
EndSplineSet
Ligature2: "'liga' Standard Ligatures in Latin lookup 1 subtable" A uni0328
EndChar

StartChar: Ccedilla
Encoding: 199 199 8
Width: 1366
Flags: HW
HStem: -440 72<459 526> -205 78<551 662> -29 90<729 821> 922 395<1503 1552> 1303 82<1137 1206>
LayerCount: 2
Fore
SplineSet
680 -27 m 1xe8
 606 -133 l 1
 629 -129 642 -127 662 -127 c 0
 773 -127 822 -180 795 -268 c 0
 762 -374 643 -440 485 -440 c 0
 419 -440 375 -433 324 -408 c 1
 373 -344 l 1
 424 -362 455 -369 498 -369 c 0
 568 -369 621 -334 637 -279 c 0
 653 -226 629 -205 551 -205 c 0
 528 -205 510 -207 492 -213 c 1
 481 -203 l 1
 612 -20 l 1
 284 29 147 295 260 666 c 0
 330 891 465 1081 647 1208 c 0
 809 1321 999 1384 1167 1384 c 0xe8
 1263 1384 1360 1368 1450 1335 c 0
 1479 1323 1508 1317 1526 1317 c 0xf0
 1567 1317 1605 1341 1632 1384 c 1
 1675 1384 l 1xe8
 1552 922 l 1
 1505 922 l 1xf0
 1505 1055 1493 1112 1448 1178 c 0
 1391 1260 1297 1303 1180 1303 c 0
 883 1303 621 1063 506 692 c 0
 436 465 444 280 526 180 c 0
 589 102 692 61 821 61 c 0
 991 61 1144 123 1341 268 c 1
 1368 231 l 1
 1194 65 960 -29 729 -29 c 0
 713 -29 698 -29 680 -27 c 1xe8
EndSplineSet
Ligature2: "'liga' Standard Ligatures in Latin lookup 1 subtable" C uni0327
EndChar

StartChar: Cacute
Encoding: 262 262 9
Width: 1366
Flags: HMW
HStem: -29 90<738 853> 1303 82<659 792>
VStem: 57 238<579 778>
LayerCount: 2
Fore
SplineSet
1552 922 m 1
 1505 922 l 1
 1505 1055 1493 1112 1448 1178 c 0
 1391 1260 1297 1303 1180 1303 c 0
 883 1303 621 1063 506 692 c 0
 436 465 444 280 526 180 c 0
 589 102 692 61 821 61 c 0
 991 61 1144 123 1341 268 c 1
 1368 231 l 1
 1192 65 960 -29 729 -29 c 0
 526 -29 361 49 279 182 c 0
 211 299 203 476 260 666 c 0
 330 891 465 1081 647 1208 c 0
 809 1321 999 1384 1167 1384 c 0
 1263 1384 1360 1368 1450 1335 c 0
 1479 1323 1508 1317 1526 1317 c 0
 1567 1317 1605 1341 1632 1384 c 1
 1675 1384 l 1
 1552 922 l 1
1188 1473 m 1
 1106 1473 l 1
 1499 1776 l 2
 1548 1813 1568 1823 1599 1823 c 0
 1644 1823 1663 1798 1651 1757 c 0
 1641 1724 1614 1698 1563 1671 c 2
 1188 1473 l 1
EndSplineSet
Ligature2: "'liga' Standard Ligatures in Latin lookup 1 subtable" C acutecomb
EndChar

StartChar: Ccaron
Encoding: 268 268 10
Width: 1366
Flags: HW
HStem: -29 90<729 821> 922 395<1503 1552> 1303 82<1130 1206>
LayerCount: 2
Fore
SplineSet
1552 922 m 1xc0
 1505 922 l 1xc0
 1505 1055 1493 1112 1448 1178 c 0
 1391 1260 1297 1303 1180 1303 c 0
 883 1303 621 1063 506 692 c 0
 436 465 444 280 526 180 c 0
 589 102 692 61 821 61 c 0
 991 61 1144 123 1341 268 c 1
 1368 231 l 1
 1192 65 960 -29 729 -29 c 0
 526 -29 361 49 279 182 c 0
 211 299 203 476 260 666 c 0
 330 891 465 1081 647 1208 c 0
 809 1321 999 1384 1167 1384 c 0xa0
 1263 1384 1360 1368 1450 1335 c 0
 1479 1323 1508 1317 1526 1317 c 0xc0
 1567 1317 1605 1341 1632 1384 c 1
 1675 1384 l 1xa0
 1552 922 l 1xc0
1618 1815 m 1
 1257 1473 l 1
 1130 1473 l 1
 981 1815 l 1
 1051 1815 l 1
 1233 1604 l 1
 1548 1815 l 1
 1618 1815 l 1
EndSplineSet
Ligature2: "'liga' Standard Ligatures in Latin lookup 1 subtable" C uni030C
EndChar

StartChar: Dcaron
Encoding: 270 270 11
Width: 1478
Flags: HW
HStem: 0 76<522 625> 1280 76<446 985>
LayerCount: 2
Fore
SplineSet
281 223 m 2
 559 1133 l 2
 606 1285 592 1303 436 1317 c 1
 446 1356 l 1
 999 1356 l 2
 1280 1356 1481 1282 1577 1141 c 0
 1655 1028 1669 868 1612 684 c 0
 1551 485 1419 303 1249 182 c 0
 1087 67 852 0 614 0 c 2
 33 0 l 1
 45 39 l 1
 203 49 236 76 281 223 c 2
788 1200 m 2
 471 160 l 2
 451 94 469 76 551 76 c 0
 729 76 856 101 979 160 c 0
 1174 256 1310 428 1384 670 c 0
 1452 891 1421 1067 1296 1178 c 0
 1218 1248 1096 1280 920 1280 c 0
 836 1280 808 1263 788 1200 c 2
1614 1815 m 1
 1253 1473 l 1
 1126 1473 l 1
 977 1815 l 1
 1047 1815 l 1
 1229 1604 l 1
 1544 1815 l 1
 1614 1815 l 1
EndSplineSet
Ligature2: "'liga' Standard Ligatures in Latin lookup 1 subtable" D uni030C
EndChar

StartChar: Edieresis
Encoding: 203 203 12
Width: 1251
Flags: HW
HStem: 0 76<580 1130> 670 84<643 977> 907 41G<1243 1290> 1063 293<438 1444> 1278 78<438 1227> 1505 203<881 942 1288 1350>
LayerCount: 2
Fore
SplineSet
1329 346 m 1xec
 1130 0 l 1
 25 0 l 1
 37 39 l 1
 189 49 227 80 270 223 c 2
 549 1133 l 2
 592 1276 575 1305 428 1317 c 1
 438 1356 l 1xf4
 1526 1356 l 1xec
 1444 1063 l 1
 1393 1063 l 1xf4
 1413 1247 1378 1278 1147 1278 c 2
 870 1278 l 2
 815 1278 798 1265 780 1208 c 2
 643 754 l 1
 958 754 l 2
 1054 754 1116 770 1153 805 c 0
 1184 834 1202 864 1243 948 c 1
 1290 948 l 1
 1145 473 l 1
 1098 473 l 1
 1123 643 1100 670 932 670 c 2
 616 670 l 1
 461 164 l 2
 451 129 449 106 457 100 c 1
 467 86 549 76 649 76 c 2
 705 76 l 2
 998 76 1102 125 1272 346 c 1
 1329 346 l 1xec
942 1708 m 0
 999 1708 1032 1661 1016 1606 c 0
 998 1551 938 1505 881 1505 c 0
 826 1505 795 1551 813 1608 c 0
 829 1661 891 1708 942 1708 c 0
1350 1708 m 0
 1407 1708 1439 1661 1423 1606 c 0
 1405 1551 1345 1505 1288 1505 c 0
 1233 1505 1203 1551 1221 1608 c 0
 1237 1661 1299 1708 1350 1708 c 0
EndSplineSet
Ligature2: "'liga' Standard Ligatures in Latin lookup 1 subtable" E uni0308
EndChar

StartChar: Eacute
Encoding: 201 201 13
Width: 1251
Flags: HW
HStem: 0 76<580 1130> 670 84<643 977> 907 41G<1243 1290> 1063 293<438 1444> 1278 78<438 1206>
LayerCount: 2
Fore
SplineSet
1329 346 m 1xe8
 1130 0 l 1
 25 0 l 1
 37 39 l 1
 189 49 227 80 270 223 c 2
 549 1133 l 2
 592 1276 575 1305 428 1317 c 1
 438 1356 l 1xf0
 1526 1356 l 1xe8
 1444 1063 l 1
 1393 1063 l 1xf0
 1413 1247 1378 1278 1147 1278 c 2
 870 1278 l 2
 815 1278 798 1265 780 1208 c 2
 643 754 l 1
 958 754 l 2
 1054 754 1116 770 1153 805 c 0
 1184 834 1202 864 1243 948 c 1
 1290 948 l 1
 1145 473 l 1
 1098 473 l 1
 1123 643 1100 670 932 670 c 2
 616 670 l 1
 461 164 l 2
 451 129 449 106 457 100 c 1
 467 86 549 76 649 76 c 2
 705 76 l 2
 998 76 1102 125 1272 346 c 1
 1329 346 l 1xe8
1010 1473 m 1
 928 1473 l 1
 1321 1776 l 2
 1370 1813 1390 1823 1421 1823 c 0
 1466 1823 1485 1798 1473 1757 c 0
 1463 1724 1435 1698 1384 1671 c 2
 1010 1473 l 1
EndSplineSet
Ligature2: "'liga' Standard Ligatures in Latin lookup 1 subtable" E acutecomb
EndChar

StartChar: Egrave
Encoding: 200 200 14
Width: 1251
Flags: HW
HStem: 0 76<580 1130> 670 84<643 977> 907 41G<1243 1290> 1063 293<438 1444> 1278 78<438 1231>
LayerCount: 2
Fore
SplineSet
1329 346 m 1xe8
 1130 0 l 1
 25 0 l 1
 37 39 l 1
 189 49 227 80 270 223 c 2
 549 1133 l 2
 592 1276 575 1305 428 1317 c 1
 438 1356 l 1xf0
 1526 1356 l 1xe8
 1444 1063 l 1
 1393 1063 l 1xf0
 1413 1247 1378 1278 1147 1278 c 2
 870 1278 l 2
 815 1278 798 1265 780 1208 c 2
 643 754 l 1
 958 754 l 2
 1054 754 1116 770 1153 805 c 0
 1184 834 1202 864 1243 948 c 1
 1290 948 l 1
 1145 473 l 1
 1098 473 l 1
 1123 643 1100 670 932 670 c 2
 616 670 l 1
 461 164 l 2
 451 129 449 106 457 100 c 1
 467 86 549 76 649 76 c 2
 705 76 l 2
 998 76 1102 125 1272 346 c 1
 1329 346 l 1xe8
1231 1473 m 1
 1149 1473 l 1
 893 1671 l 2
 864 1696 852 1726 862 1759 c 0
 872 1798 907 1823 950 1823 c 0
 981 1823 997 1813 1022 1776 c 2
 1231 1473 l 1
EndSplineSet
Ligature2: "'liga' Standard Ligatures in Latin lookup 1 subtable" E gravecomb
EndChar

StartChar: Ecircumflex
Encoding: 202 202 15
Width: 1251
Flags: HW
HStem: 0 76<580 1130> 670 84<643 977> 907 41G<1243 1290> 1063 293<438 1444> 1278 78<438 1206>
LayerCount: 2
Fore
SplineSet
1329 346 m 1xe8
 1130 0 l 1
 25 0 l 1
 37 39 l 1
 189 49 227 80 270 223 c 2
 549 1133 l 2
 592 1276 575 1305 428 1317 c 1
 438 1356 l 1xf0
 1526 1356 l 1xe8
 1444 1063 l 1
 1393 1063 l 1xf0
 1413 1247 1378 1278 1147 1278 c 2
 870 1278 l 2
 815 1278 798 1265 780 1208 c 2
 643 754 l 1
 958 754 l 2
 1054 754 1116 770 1153 805 c 0
 1184 834 1202 864 1243 948 c 1
 1290 948 l 1
 1145 473 l 1
 1098 473 l 1
 1123 643 1100 670 932 670 c 2
 616 670 l 1
 461 164 l 2
 451 129 449 106 457 100 c 1
 467 86 549 76 649 76 c 2
 705 76 l 2
 998 76 1102 125 1272 346 c 1
 1329 346 l 1xe8
1397 1473 m 1
 1327 1473 l 1
 1141 1683 l 1
 829 1473 l 1
 760 1473 l 1
 1118 1815 l 1
 1245 1815 l 1
 1397 1473 l 1
EndSplineSet
Ligature2: "'liga' Standard Ligatures in Latin lookup 1 subtable" E uni0302
EndChar

StartChar: Ecaron
Encoding: 282 282 16
Width: 1251
Flags: HW
HStem: 0 39<25 25> 0 76<627 682 682 828> 670 84<412 727> 1278 78<452 479 479 756> 1317 39<25 25>
VStem: 203 209<223 670 754 1133 1133 1204>
LayerCount: 2
Fore
SplineSet
1329 346 m 1x74
 1130 0 l 1
 25 0 l 1x44
 37 39 l 1
 189 49 227 80 270 223 c 2
 549 1133 l 2
 592 1276 575 1305 428 1317 c 1x8c
 438 1356 l 1
 1526 1356 l 1
 1444 1063 l 1
 1393 1063 l 1
 1413 1247 1378 1278 1147 1278 c 2
 870 1278 l 2
 815 1278 798 1265 780 1208 c 2
 643 754 l 1
 958 754 l 2
 1054 754 1116 770 1153 805 c 0
 1184 834 1202 864 1243 948 c 1
 1290 948 l 1
 1145 473 l 1
 1098 473 l 1
 1123 643 1100 670 932 670 c 2
 616 670 l 1
 461 164 l 2
 451 129 449 106 457 100 c 1
 467 86 549 76 649 76 c 2
 705 76 l 2
 998 76 1102 125 1272 346 c 1
 1329 346 l 1x74
1499 1815 m 1
 1139 1473 l 1
 1012 1473 l 1
 862 1815 l 1
 932 1815 l 1
 1114 1604 l 1
 1430 1815 l 1
 1499 1815 l 1
EndSplineSet
Ligature2: "'liga' Standard Ligatures in Latin lookup 1 subtable" E uni030C
EndChar

StartChar: Edotaccent
Encoding: 278 278 17
Width: 1251
Flags: HW
HStem: 0 39<25 25> 0 76<627 682 682 828> 670 84<412 727> 1278 78<452 479 479 756> 1317 39<25 25>
VStem: 203 209<223 670 754 1133 1133 1204>
LayerCount: 2
Fore
SplineSet
1329 346 m 1x74
 1130 0 l 1
 25 0 l 1x44
 37 39 l 1
 189 49 227 80 270 223 c 2
 549 1133 l 2
 592 1276 575 1305 428 1317 c 1x8c
 438 1356 l 1
 1526 1356 l 1
 1444 1063 l 1
 1393 1063 l 1
 1413 1247 1378 1278 1147 1278 c 2
 870 1278 l 2
 815 1278 798 1265 780 1208 c 2
 643 754 l 1
 958 754 l 2
 1054 754 1116 770 1153 805 c 0
 1184 834 1202 864 1243 948 c 1
 1290 948 l 1
 1145 473 l 1
 1098 473 l 1
 1123 643 1100 670 932 670 c 2
 616 670 l 1
 461 164 l 2
 451 129 449 106 457 100 c 1
 467 86 549 76 649 76 c 2
 705 76 l 2
 998 76 1102 125 1272 346 c 1
 1329 346 l 1x74
1147 1708 m 0
 1204 1708 1237 1661 1221 1606 c 0
 1203 1551 1142 1505 1085 1505 c 0
 1030 1505 1000 1551 1018 1608 c 0
 1034 1661 1096 1708 1147 1708 c 0
EndSplineSet
Ligature2: "'liga' Standard Ligatures in Latin lookup 1 subtable" E uni0307
EndChar

StartChar: Eogonek
Encoding: 280 280 18
Width: 1251
Flags: HW
HStem: -338 115<1042 1064> 0 76<627 682 682 828> 670 84<412 727> 1278 78<452 479 479 756> 1317 39<25 25>
VStem: 203 209<223 670 754 1133 1133 1204> 872 115<-165 -148>
LayerCount: 2
Fore
SplineSet
1130 0 m 1x76
 1118 0 l 2
 1057 0 964 -75 944 -141 c 0
 930 -188 952 -223 997 -223 c 0
 1040 -223 1085 -203 1165 -150 c 1
 1196 -182 l 1
 1087 -291 1004 -338 920 -338 c 0
 836 -338 790 -270 817 -182 c 0
 837 -114 885 -63 983 0 c 1
 25 0 l 1
 37 39 l 1
 189 49 227 78 270 223 c 2
 549 1133 l 2
 592 1276 575 1305 428 1317 c 1xce
 438 1356 l 1
 1526 1356 l 1
 1444 1063 l 1
 1393 1063 l 1
 1413 1247 1378 1278 1147 1278 c 2
 870 1278 l 2
 815 1278 798 1265 780 1208 c 2
 643 754 l 1
 958 754 l 2
 1054 754 1116 770 1153 805 c 0
 1184 834 1202 864 1243 948 c 1
 1290 948 l 1
 1145 473 l 1
 1098 473 l 1
 1123 643 1100 670 932 670 c 2
 616 670 l 1
 461 164 l 2
 451 129 449 106 457 100 c 1
 467 86 549 76 649 76 c 2
 705 76 l 2
 998 76 1102 125 1272 346 c 1
 1329 346 l 1
 1130 0 l 1x76
EndSplineSet
Ligature2: "'liga' Standard Ligatures in Latin lookup 1 subtable" E uni0328
EndChar

StartChar: Gbreve
Encoding: 286 286 19
Width: 1478
Flags: HW
HStem: -29 82<786 854> 952 365<1532 1581> 1303 82<1153 1245> 1473 123<1188 1229>
LayerCount: 2
Fore
SplineSet
1673 725 m 1xb0
 1663 688 l 1
 1540 678 1507 651 1470 530 c 2
 1343 115 l 1
 1239 43 962 -29 786 -29 c 0
 561 -29 387 49 293 190 c 0
 215 311 207 465 268 666 c 0
 397 1084 782 1384 1192 1384 c 0xb0
 1284 1384 1372 1368 1456 1337 c 0
 1489 1323 1520 1317 1540 1317 c 0xd0
 1583 1317 1628 1345 1653 1384 c 1
 1698 1384 l 1xb0
 1581 952 l 1
 1534 952 l 1xd0
 1522 1077 1505 1133 1462 1190 c 0
 1405 1264 1315 1303 1200 1303 c 0
 1061 1303 918 1247 797 1147 c 0
 676 1047 561 861 504 668 c 0
 387 287 520 53 854 53 c 0
 1001 53 1143 108 1163 174 c 2
 1266 506 l 2
 1293 594 1295 641 1268 659 c 0
 1250 675 1227 682 1141 688 c 1
 1151 725 l 1
 1673 725 l 1xb0
1518 1794 m 1
 1577 1794 l 1
 1485 1577 1360 1473 1188 1473 c 0
 1092 1473 1022 1511 991 1583 c 0
 971 1640 970 1690 1001 1794 c 1
 1061 1794 l 1
 1047 1657 1098 1595 1229 1595 c 0
 1348 1595 1414 1638 1518 1794 c 1
EndSplineSet
Ligature2: "'liga' Standard Ligatures in Latin lookup 1 subtable" G uni0306
EndChar

StartChar: Idieresis
Encoding: 207 207 20
Width: 681
Flags: HW
HStem: 0 43G<37 645> 1315 41G<451 1059> 1505 203<596 657 1004 1065>
LayerCount: 2
Fore
SplineSet
303 223 m 2
 582 1133 l 2
 629 1285 610 1307 440 1317 c 1
 451 1356 l 1
 1059 1356 l 1
 1049 1317 l 1
 873 1309 836 1283 791 1133 c 2
 512 223 l 2
 467 73 491 45 657 39 c 1
 645 0 l 1
 37 0 l 1
 49 39 l 1
 223 45 256 69 303 223 c 2
657 1708 m 0
 714 1708 747 1661 731 1606 c 0
 713 1551 653 1505 596 1505 c 0
 541 1505 510 1551 528 1608 c 0
 544 1661 606 1708 657 1708 c 0
1065 1708 m 0
 1122 1708 1155 1661 1139 1606 c 0
 1121 1551 1061 1505 1004 1505 c 0
 949 1505 918 1551 936 1608 c 0
 952 1661 1014 1708 1065 1708 c 0
EndSplineSet
Ligature2: "'liga' Standard Ligatures in Latin lookup 1 subtable" I uni0308
EndChar

StartChar: Iacute
Encoding: 205 205 21
Width: 681
Flags: HW
HStem: 0 43G<37 645> 1315 41G<451 1059>
LayerCount: 2
Fore
SplineSet
303 223 m 2
 582 1133 l 2
 629 1285 610 1307 440 1317 c 1
 451 1356 l 1
 1059 1356 l 1
 1049 1317 l 1
 873 1309 836 1283 791 1133 c 2
 512 223 l 2
 467 73 491 45 657 39 c 1
 645 0 l 1
 37 0 l 1
 49 39 l 1
 223 45 256 69 303 223 c 2
723 1473 m 1
 641 1473 l 1
 1034 1776 l 2
 1083 1813 1104 1823 1135 1823 c 0
 1180 1823 1198 1798 1186 1757 c 0
 1176 1724 1149 1698 1098 1671 c 2
 723 1473 l 1
EndSplineSet
Ligature2: "'liga' Standard Ligatures in Latin lookup 1 subtable" I acutecomb
EndChar

StartChar: Igrave
Encoding: 204 204 22
Width: 681
Flags: HW
HStem: 0 43G<37 645> 1315 41G<451 1059>
LayerCount: 2
Fore
SplineSet
303 223 m 2
 582 1133 l 2
 629 1285 610 1307 440 1317 c 1
 451 1356 l 1
 1059 1356 l 1
 1049 1317 l 1
 873 1309 836 1283 791 1133 c 2
 512 223 l 2
 467 73 491 45 657 39 c 1
 645 0 l 1
 37 0 l 1
 49 39 l 1
 223 45 256 69 303 223 c 2
946 1473 m 1
 864 1473 l 1
 608 1671 l 2
 579 1696 568 1726 578 1759 c 0
 588 1798 623 1823 666 1823 c 0
 697 1823 712 1813 737 1776 c 2
 946 1473 l 1
EndSplineSet
Ligature2: "'liga' Standard Ligatures in Latin lookup 1 subtable" I gravecomb
EndChar

StartChar: Icircumflex
Encoding: 206 206 23
Width: 681
Flags: HW
HStem: 0 43G<37 645> 1315 41G<451 1059>
LayerCount: 2
Fore
SplineSet
303 223 m 2
 582 1133 l 2
 629 1285 610 1307 440 1317 c 1
 451 1356 l 1
 1059 1356 l 1
 1049 1317 l 1
 873 1309 836 1283 791 1133 c 2
 512 223 l 2
 467 73 491 45 657 39 c 1
 645 0 l 1
 37 0 l 1
 49 39 l 1
 223 45 256 69 303 223 c 2
1110 1473 m 1
 1040 1473 l 1
 854 1683 l 1
 543 1473 l 1
 473 1473 l 1
 831 1815 l 1
 958 1815 l 1
 1110 1473 l 1
EndSplineSet
Ligature2: "'liga' Standard Ligatures in Latin lookup 1 subtable" I uni0302
EndChar

StartChar: Idotaccent
Encoding: 304 304 24
Width: 681
Flags: HW
HStem: 0 43G<37 645> 1315 41G<451 1059> 1505 203<801 862>
LayerCount: 2
Fore
SplineSet
303 223 m 2
 582 1133 l 2
 629 1285 610 1307 440 1317 c 1
 451 1356 l 1
 1059 1356 l 1
 1049 1317 l 1
 873 1309 836 1283 791 1133 c 2
 512 223 l 2
 467 73 491 45 657 39 c 1
 645 0 l 1
 37 0 l 1
 49 39 l 1
 223 45 256 69 303 223 c 2
862 1708 m 0
 919 1708 952 1661 936 1606 c 0
 918 1551 858 1505 801 1505 c 0
 746 1505 715 1551 733 1608 c 0
 749 1661 811 1708 862 1708 c 0
EndSplineSet
Ligature2: "'liga' Standard Ligatures in Latin lookup 1 subtable" I uni0307
EndChar

StartChar: Lacute
Encoding: 313 313 25
Width: 1251
Flags: HW
HStem: 0 80<545 1126> 1315 41G<438 1016>
LayerCount: 2
Fore
SplineSet
1282 356 m 1
 1333 356 l 1
 1126 0 l 1
 25 0 l 1
 37 39 l 1
 189 49 227 80 270 223 c 2
 549 1133 l 2
 592 1276 575 1305 428 1317 c 1
 438 1356 l 1
 1016 1356 l 1
 1006 1317 l 1
 840 1307 803 1278 758 1133 c 2
 461 164 l 2
 441 92 462 80 612 80 c 2
 750 80 l 2
 920 80 1043 117 1139 197 c 0
 1182 232 1225 278 1282 356 c 1
1008 1473 m 1
 926 1473 l 1
 1319 1776 l 2
 1368 1813 1388 1823 1419 1823 c 0
 1464 1823 1482 1798 1470 1757 c 0
 1460 1724 1433 1698 1382 1671 c 2
 1008 1473 l 1
EndSplineSet
Ligature2: "'liga' Standard Ligatures in Latin lookup 1 subtable" L acutecomb
EndChar

StartChar: Lcaron
Encoding: 317 317 26
Width: 1251
Flags: HW
HStem: 0 80<545 1126> 1171 213<1300 1315>
LayerCount: 2
Fore
SplineSet
1282 356 m 1
 1333 356 l 1
 1126 0 l 1
 25 0 l 1
 37 39 l 1
 189 49 227 80 270 223 c 2
 549 1133 l 2
 592 1276 575 1305 428 1317 c 1
 438 1356 l 1
 1016 1356 l 1
 1006 1317 l 1
 840 1307 803 1278 758 1133 c 2
 461 164 l 2
 441 92 462 80 612 80 c 2
 750 80 l 2
 920 80 1043 117 1139 197 c 0
 1182 232 1225 278 1282 356 c 1
1096 887 m 1
 1090 926 l 1
 1225 1002 1305 1075 1325 1143 c 0
 1329 1159 1321 1171 1305 1171 c 0
 1303 1171 1302 1171 1286 1167 c 0
 1274 1165 1259 1163 1247 1163 c 0
 1173 1163 1137 1202 1157 1268 c 0
 1180 1338 1243 1384 1315 1384 c 0
 1407 1384 1454 1304 1421 1202 c 0
 1384 1079 1254 955 1096 887 c 1
EndSplineSet
Ligature2: "'liga' Standard Ligatures in Latin lookup 1 subtable" L uni030C
EndChar

StartChar: Nacute
Encoding: 323 323 27
Width: 1478
Flags: HW
HStem: -23 43G<1212 1247> 1317 39<438 471>
LayerCount: 2
Fore
SplineSet
1247 -23 m 1
 1212 -23 l 1
 651 1104 l 1
 406 301 l 2
 343 94 362 47 518 39 c 1
 506 0 l 1
 25 0 l 1
 37 39 l 1
 211 51 249 90 315 301 c 2
 592 1204 l 1
 539 1300 516 1317 428 1317 c 1
 438 1356 l 1
 788 1356 l 1
 1274 365 l 1
 1485 1055 l 2
 1524 1182 1528 1255 1497 1284 c 0
 1470 1302 1446 1311 1370 1317 c 1
 1380 1356 l 1
 1862 1356 l 1
 1851 1317 l 1
 1769 1309 1739 1300 1704 1280 c 0
 1657 1253 1614 1178 1575 1055 c 2
 1247 -23 l 1
1122 1473 m 1
 1040 1473 l 1
 1434 1776 l 2
 1483 1813 1503 1823 1534 1823 c 0
 1579 1823 1597 1798 1585 1757 c 0
 1575 1724 1548 1698 1497 1671 c 2
 1122 1473 l 1
EndSplineSet
Ligature2: "'liga' Standard Ligatures in Latin lookup 1 subtable" N acutecomb
EndChar

StartChar: Ncaron
Encoding: 327 327 28
Width: 1478
Flags: HW
HStem: -23 43G<1212 1247> 1317 39<438 471>
LayerCount: 2
Fore
SplineSet
1247 -23 m 1
 1212 -23 l 1
 651 1104 l 1
 406 301 l 2
 343 94 362 47 518 39 c 1
 506 0 l 1
 25 0 l 1
 37 39 l 1
 211 51 249 90 315 301 c 2
 592 1204 l 1
 539 1300 516 1317 428 1317 c 1
 438 1356 l 1
 788 1356 l 1
 1274 365 l 1
 1485 1055 l 2
 1524 1182 1528 1255 1497 1284 c 0
 1470 1302 1446 1311 1370 1317 c 1
 1380 1356 l 1
 1862 1356 l 1
 1851 1317 l 1
 1769 1309 1739 1300 1704 1280 c 0
 1657 1253 1614 1178 1575 1055 c 2
 1247 -23 l 1
1614 1815 m 1
 1253 1473 l 1
 1126 1473 l 1
 977 1815 l 1
 1047 1815 l 1
 1229 1604 l 1
 1544 1815 l 1
 1614 1815 l 1
EndSplineSet
Ligature2: "'liga' Standard Ligatures in Latin lookup 1 subtable" N uni030C
EndChar

StartChar: Ntilde
Encoding: 209 209 29
Width: 1478
Flags: HW
HStem: -23 43G<1212 1247> 1317 39<438 471> 1524 115<1327 1411> 1618 113<1061 1137>
LayerCount: 2
Fore
SplineSet
1247 -23 m 1xc0
 1212 -23 l 1
 651 1104 l 1
 406 301 l 2
 343 94 362 47 518 39 c 1
 506 0 l 1
 25 0 l 1
 37 39 l 1
 211 51 249 90 315 301 c 2
 592 1204 l 1
 539 1300 516 1317 428 1317 c 1
 438 1356 l 1
 788 1356 l 1
 1274 365 l 1
 1485 1055 l 2
 1524 1182 1528 1255 1497 1284 c 0
 1470 1302 1446 1311 1370 1317 c 1
 1380 1356 l 1
 1862 1356 l 1
 1851 1317 l 1
 1769 1309 1739 1300 1704 1280 c 0
 1657 1253 1614 1178 1575 1055 c 2
 1247 -23 l 1xc0
1550 1741 m 1
 1610 1741 l 1
 1520 1585 1440 1524 1327 1524 c 0xe0
 1276 1524 1250 1532 1178 1573 c 2
 1137 1595 l 2
 1110 1609 1086 1618 1061 1618 c 0xd0
 1014 1618 969 1587 926 1524 c 1
 866 1524 l 1xe0
 938 1657 1035 1731 1137 1731 c 0xd0
 1182 1731 1231 1719 1270 1694 c 2
 1311 1669 l 2
 1344 1651 1380 1638 1411 1638 c 0xe0
 1458 1638 1491 1663 1550 1741 c 1
EndSplineSet
Ligature2: "'liga' Standard Ligatures in Latin lookup 1 subtable" N tildecomb
EndChar

StartChar: Odieresis
Encoding: 214 214 30
Width: 1478
Flags: HW
HStem: -29 74<715 764> 1311 74<1120 1167> 1505 203<995 1057 1403 1464>
LayerCount: 2
Fore
SplineSet
1163 1384 m 0
 1360 1384 1509 1310 1595 1169 c 0
 1669 1046 1675 873 1614 670 c 0
 1489 258 1122 -29 719 -29 c 0
 539 -29 381 51 301 180 c 0
 227 299 217 485 276 678 c 0
 403 1090 772 1384 1163 1384 c 0
1141 1311 m 0
 1028 1311 913 1266 807 1178 c 0
 690 1082 573 883 510 674 c 0
 440 447 444 239 522 145 c 0
 573 82 656 45 750 45 c 0
 859 45 961 82 1055 154 c 0
 1116 201 1167 252 1200 303 c 0
 1274 409 1343 551 1380 672 c 0
 1456 916 1450 1108 1370 1208 c 0
 1317 1274 1235 1311 1141 1311 c 0
1057 1708 m 0
 1114 1708 1146 1661 1130 1606 c 0
 1112 1551 1052 1505 995 1505 c 0
 940 1505 910 1551 928 1608 c 0
 944 1661 1006 1708 1057 1708 c 0
1464 1708 m 0
 1521 1708 1554 1661 1538 1606 c 0
 1520 1551 1460 1505 1403 1505 c 0
 1348 1505 1317 1551 1335 1608 c 0
 1351 1661 1413 1708 1464 1708 c 0
EndSplineSet
Ligature2: "'liga' Standard Ligatures in Latin lookup 1 subtable" O uni0308
EndChar

StartChar: Oacute
Encoding: 211 211 31
Width: 1478
Flags: HW
HStem: -29 74<715 764> 1311 74<1118 1167>
LayerCount: 2
Fore
SplineSet
1163 1384 m 0
 1360 1384 1509 1310 1595 1169 c 0
 1669 1046 1675 873 1614 670 c 0
 1489 258 1122 -29 719 -29 c 0
 539 -29 381 51 301 180 c 0
 227 299 217 485 276 678 c 0
 403 1090 772 1384 1163 1384 c 0
1141 1311 m 0
 1028 1311 913 1266 807 1178 c 0
 690 1082 573 883 510 674 c 0
 440 447 444 239 522 145 c 0
 573 82 656 45 750 45 c 0
 859 45 961 82 1055 154 c 0
 1116 201 1167 252 1200 303 c 0
 1274 409 1343 551 1380 672 c 0
 1456 916 1450 1108 1370 1208 c 0
 1317 1274 1235 1311 1141 1311 c 0
1122 1473 m 1
 1040 1473 l 1
 1434 1776 l 2
 1483 1813 1503 1823 1534 1823 c 0
 1579 1823 1597 1798 1585 1757 c 0
 1575 1724 1548 1698 1497 1671 c 2
 1122 1473 l 1
EndSplineSet
Ligature2: "'liga' Standard Ligatures in Latin lookup 1 subtable" O acutecomb
EndChar

StartChar: Ograve
Encoding: 210 210 32
Width: 1478
Flags: HW
HStem: -29 74<715 764> 1311 74<1120 1167>
LayerCount: 2
Fore
SplineSet
1163 1384 m 0
 1360 1384 1509 1310 1595 1169 c 0
 1669 1046 1675 873 1614 670 c 0
 1489 258 1122 -29 719 -29 c 0
 539 -29 381 51 301 180 c 0
 227 299 217 485 276 678 c 0
 403 1090 772 1384 1163 1384 c 0
1141 1311 m 0
 1028 1311 913 1266 807 1178 c 0
 690 1082 573 883 510 674 c 0
 440 447 444 239 522 145 c 0
 573 82 656 45 750 45 c 0
 859 45 961 82 1055 154 c 0
 1116 201 1167 252 1200 303 c 0
 1274 409 1343 551 1380 672 c 0
 1456 916 1450 1108 1370 1208 c 0
 1317 1274 1235 1311 1141 1311 c 0
1346 1473 m 1
 1264 1473 l 1
 1008 1671 l 2
 979 1696 967 1726 977 1759 c 0
 987 1798 1022 1823 1065 1823 c 0
 1096 1823 1112 1813 1137 1776 c 2
 1346 1473 l 1
EndSplineSet
Ligature2: "'liga' Standard Ligatures in Latin lookup 1 subtable" O gravecomb
EndChar

StartChar: Ocircumflex
Encoding: 212 212 33
Width: 1478
Flags: HW
HStem: -29 74<715 764> 1311 74<1120 1167>
LayerCount: 2
Fore
SplineSet
1163 1384 m 0
 1360 1384 1509 1310 1595 1169 c 0
 1669 1046 1675 873 1614 670 c 0
 1489 258 1122 -29 719 -29 c 0
 539 -29 381 51 301 180 c 0
 227 299 217 485 276 678 c 0
 403 1090 772 1384 1163 1384 c 0
1141 1311 m 0
 1028 1311 913 1266 807 1178 c 0
 690 1082 573 883 510 674 c 0
 440 447 444 239 522 145 c 0
 573 82 656 45 750 45 c 0
 859 45 961 82 1055 154 c 0
 1116 201 1167 252 1200 303 c 0
 1274 409 1343 551 1380 672 c 0
 1456 916 1450 1108 1370 1208 c 0
 1317 1274 1235 1311 1141 1311 c 0
1509 1473 m 1
 1440 1473 l 1
 1253 1683 l 1
 942 1473 l 1
 872 1473 l 1
 1231 1815 l 1
 1358 1815 l 1
 1509 1473 l 1
EndSplineSet
Ligature2: "'liga' Standard Ligatures in Latin lookup 1 subtable" O uni0302
EndChar

StartChar: Otilde
Encoding: 213 213 34
Width: 1478
Flags: HW
HStem: -29 74<715 764> 1311 74<1120 1178> 1524 115<1327 1411> 1618 113<1061 1137>
LayerCount: 2
Fore
SplineSet
1163 1384 m 0xc0
 1360 1384 1509 1310 1595 1169 c 0
 1669 1046 1675 873 1614 670 c 0
 1489 258 1122 -29 719 -29 c 0
 539 -29 381 51 301 180 c 0
 227 299 217 485 276 678 c 0
 403 1090 772 1384 1163 1384 c 0xc0
1141 1311 m 0
 1028 1311 913 1266 807 1178 c 0
 690 1082 573 883 510 674 c 0
 440 447 444 239 522 145 c 0
 573 82 656 45 750 45 c 0
 859 45 961 82 1055 154 c 0
 1116 201 1167 252 1200 303 c 0
 1274 409 1343 551 1380 672 c 0
 1456 916 1450 1108 1370 1208 c 0
 1317 1274 1235 1311 1141 1311 c 0
1550 1741 m 1
 1610 1741 l 1
 1520 1585 1440 1524 1327 1524 c 0xe0
 1276 1524 1250 1532 1178 1573 c 2
 1137 1595 l 2
 1110 1609 1086 1618 1061 1618 c 0xd0
 1014 1618 969 1587 926 1524 c 1
 866 1524 l 1xe0
 938 1657 1035 1731 1137 1731 c 0xd0
 1182 1731 1231 1719 1270 1694 c 2
 1311 1669 l 2
 1344 1651 1380 1638 1411 1638 c 0xe0
 1458 1638 1491 1663 1550 1741 c 1
EndSplineSet
Ligature2: "'liga' Standard Ligatures in Latin lookup 1 subtable" O tildecomb
EndChar

StartChar: Ohungarumlaut
Encoding: 336 336 35
Width: 1478
Flags: HW
HStem: -29 74<715 764> 1311 74<1120 1167>
LayerCount: 2
Fore
SplineSet
1163 1384 m 0
 1360 1384 1509 1310 1595 1169 c 0
 1669 1046 1675 873 1614 670 c 0
 1489 258 1122 -29 719 -29 c 0
 539 -29 381 51 301 180 c 0
 227 299 217 485 276 678 c 0
 403 1090 772 1384 1163 1384 c 0
1141 1311 m 0
 1028 1311 913 1266 807 1178 c 0
 690 1082 573 883 510 674 c 0
 440 447 444 239 522 145 c 0
 573 82 656 45 750 45 c 0
 859 45 961 82 1055 154 c 0
 1116 201 1167 252 1200 303 c 0
 1274 409 1343 551 1380 672 c 0
 1456 916 1450 1108 1370 1208 c 0
 1317 1274 1235 1311 1141 1311 c 0
1327 1473 m 1
 1245 1473 l 1
 1638 1776 l 2
 1687 1813 1708 1823 1739 1823 c 0
 1784 1823 1802 1798 1790 1757 c 0
 1780 1724 1753 1698 1702 1671 c 2
 1327 1473 l 1
1008 1473 m 1
 926 1473 l 1
 1319 1776 l 2
 1368 1813 1388 1823 1419 1823 c 0
 1464 1823 1482 1798 1470 1757 c 0
 1460 1724 1433 1698 1382 1671 c 2
 1008 1473 l 1
EndSplineSet
Ligature2: "'liga' Standard Ligatures in Latin lookup 1 subtable" O uni030B
EndChar

StartChar: Racute
Encoding: 340 340 36
Width: 1366
Flags: HW
HStem: 0 43G<35 602 1020 1350> 1280 76<449 954>
LayerCount: 2
Fore
SplineSet
1362 39 m 1
 1350 0 l 1
 1020 0 l 1
 725 631 l 1
 610 627 l 1
 485 223 l 2
 440 76 458 49 614 39 c 1
 602 0 l 1
 35 0 l 1
 47 39 l 1
 205 51 232 76 285 246 c 2
 555 1133 l 2
 600 1278 585 1301 438 1317 c 1
 449 1356 l 1
 1014 1356 l 2
 1207 1356 1360 1303 1413 1219 c 0
 1448 1160 1452 1083 1425 995 c 0
 1394 899 1329 813 1247 760 c 0
 1163 705 1095 680 950 653 c 1
 1212 135 l 1
 1251 65 1286 45 1362 39 c 1
786 1206 m 2
 633 702 l 1
 830 706 905 719 1016 772 c 0
 1102 811 1171 897 1202 999 c 0
 1261 1192 1169 1280 913 1280 c 0
 831 1280 804 1263 786 1206 c 2
1065 1473 m 1
 983 1473 l 1
 1376 1776 l 2
 1425 1813 1446 1823 1477 1823 c 0
 1522 1823 1540 1798 1528 1757 c 0
 1518 1724 1491 1698 1440 1671 c 2
 1065 1473 l 1
EndSplineSet
Ligature2: "'liga' Standard Ligatures in Latin lookup 1 subtable" R acutecomb
EndChar

StartChar: Rcaron
Encoding: 344 344 37
Width: 1366
Flags: HW
HStem: 0 43G<35 602 1020 1350> 1280 76<449 954>
LayerCount: 2
Fore
SplineSet
1362 39 m 1
 1350 0 l 1
 1020 0 l 1
 725 631 l 1
 610 627 l 1
 485 223 l 2
 440 76 458 49 614 39 c 1
 602 0 l 1
 35 0 l 1
 47 39 l 1
 205 51 232 76 285 246 c 2
 555 1133 l 2
 600 1278 585 1301 438 1317 c 1
 449 1356 l 1
 1014 1356 l 2
 1207 1356 1360 1303 1413 1219 c 0
 1448 1160 1452 1083 1425 995 c 0
 1394 899 1329 813 1247 760 c 0
 1163 705 1095 680 950 653 c 1
 1212 135 l 1
 1251 65 1286 45 1362 39 c 1
786 1206 m 2
 633 702 l 1
 830 706 905 719 1016 772 c 0
 1102 811 1171 897 1202 999 c 0
 1261 1192 1169 1280 913 1280 c 0
 831 1280 804 1263 786 1206 c 2
1556 1815 m 1
 1196 1473 l 1
 1069 1473 l 1
 920 1815 l 1
 989 1815 l 1
 1171 1604 l 1
 1487 1815 l 1
 1556 1815 l 1
EndSplineSet
Ligature2: "'liga' Standard Ligatures in Latin lookup 1 subtable" R uni030C
EndChar

StartChar: Sacute
Encoding: 346 346 38
Width: 1138
Flags: HW
HStem: -27 43G<139 184> 41 4<262 561> 41 367<211 262> 948 367<1200 1251> 1300 84<895 961>
LayerCount: 2
Fore
SplineSet
1339 1384 m 1x88
 1251 948 l 1
 1200 948 l 1x90
 1204 1069 1192 1122 1147 1188 c 0
 1098 1262 1024 1300 932 1300 c 0
 805 1300 697 1223 662 1110 c 0
 627 999 686 910 864 791 c 0
 1089 646 1161 512 1110 344 c 0
 1047 133 816 -29 580 -29 c 0
 498 -29 420 -13 352 18 c 0
 317 32 285 41 262 41 c 0xc8
 231 41 198 12 184 -27 c 1
 139 -27 l 1
 211 408 l 1
 258 408 l 1xa0
 285 158 379 45 561 45 c 0
 711 45 842 139 883 276 c 0
 899 325 901 368 891 395 c 0
 864 473 782 557 659 635 c 0
 466 756 412 870 461 1034 c 0
 494 1140 557 1227 649 1290 c 0
 733 1349 836 1384 924 1384 c 0xc8
 990 1384 1058 1368 1126 1339 c 1
 1157 1323 1188 1315 1208 1315 c 0x90
 1243 1315 1273 1337 1296 1384 c 1
 1339 1384 l 1x88
952 1473 m 1
 870 1473 l 1
 1264 1776 l 2
 1313 1813 1333 1823 1364 1823 c 0
 1409 1823 1427 1798 1415 1757 c 0
 1405 1724 1378 1698 1327 1671 c 2
 952 1473 l 1
EndSplineSet
Ligature2: "'liga' Standard Ligatures in Latin lookup 1 subtable" S acutecomb
EndChar

StartChar: Scaron
Encoding: 352 352 39
Width: 1138
Flags: HW
HStem: -27 43G<139 184> 41 4<262 561> 41 367<211 262> 948 367<1200 1251> 1300 84<895 961>
LayerCount: 2
Fore
SplineSet
1339 1384 m 1x88
 1251 948 l 1
 1200 948 l 1x90
 1204 1069 1192 1122 1147 1188 c 0
 1098 1262 1024 1300 932 1300 c 0
 805 1300 697 1223 662 1110 c 0
 627 999 686 910 864 791 c 0
 1089 646 1161 512 1110 344 c 0
 1047 133 816 -29 580 -29 c 0
 498 -29 420 -13 352 18 c 0
 317 32 285 41 262 41 c 0xc8
 231 41 198 12 184 -27 c 1
 139 -27 l 1
 211 408 l 1
 258 408 l 1xa0
 285 158 379 45 561 45 c 0
 711 45 842 139 883 276 c 0
 899 325 901 368 891 395 c 0
 864 473 782 557 659 635 c 0
 466 756 412 870 461 1034 c 0
 494 1140 557 1227 649 1290 c 0
 733 1349 836 1384 924 1384 c 0xc8
 990 1384 1058 1368 1126 1339 c 1
 1157 1323 1188 1315 1208 1315 c 0x90
 1243 1315 1273 1337 1296 1384 c 1
 1339 1384 l 1x88
1444 1815 m 1
 1083 1473 l 1
 956 1473 l 1
 807 1815 l 1
 877 1815 l 1
 1059 1604 l 1
 1374 1815 l 1
 1444 1815 l 1
EndSplineSet
Ligature2: "'liga' Standard Ligatures in Latin lookup 1 subtable" S uni030C
EndChar

StartChar: Scedilla
Encoding: 350 350 40
Width: 1138
Flags: HW
HStem: -440 72<348 403> -205 78<438 549> -27 43G<139 184> 41 4<262 561> 41 367<211 262> 948 367<1198 1251> 1300 84<895 961>
LayerCount: 2
Fore
SplineSet
565 -29 m 1xe2
 494 -133 l 1
 514 -129 529 -127 549 -127 c 0
 660 -127 709 -180 682 -268 c 0
 649 -374 531 -440 373 -440 c 0
 307 -440 262 -433 211 -408 c 1
 260 -344 l 1
 309 -362 342 -369 385 -369 c 0
 455 -369 508 -334 524 -279 c 0
 540 -226 516 -205 438 -205 c 0
 413 -205 397 -207 379 -213 c 1
 369 -203 l 1
 498 -23 l 1
 443 -15 397 -5 352 18 c 0
 317 32 285 41 262 41 c 0xf2
 231 41 198 12 184 -27 c 1
 139 -27 l 1
 211 408 l 1
 258 408 l 1xe8
 285 158 379 45 561 45 c 0
 711 45 842 139 883 276 c 0
 899 325 901 368 891 395 c 0
 864 473 782 557 659 635 c 0
 466 756 412 870 461 1034 c 0
 494 1140 557 1227 649 1290 c 0
 733 1349 836 1384 924 1384 c 0xf2
 990 1384 1058 1368 1126 1339 c 1
 1157 1323 1188 1315 1208 1315 c 0xe4
 1243 1315 1273 1337 1296 1384 c 1
 1339 1384 l 1xe2
 1251 948 l 1
 1200 948 l 1xe4
 1204 1069 1192 1122 1147 1188 c 0
 1098 1262 1024 1300 932 1300 c 0
 805 1300 697 1223 662 1110 c 0
 627 999 686 910 864 791 c 0
 1089 646 1161 512 1110 344 c 0
 1047 135 817 -29 584 -29 c 2
 565 -29 l 1xe2
EndSplineSet
Ligature2: "'liga' Standard Ligatures in Latin lookup 1 subtable" S uni0327
EndChar

StartChar: Tcaron
Encoding: 356 356 41
Width: 1251
Flags: HW
HStem: 0 43G<328 926> 1270 86<461 909 461 1280>
LayerCount: 2
Fore
SplineSet
909 1270 m 1
 799 1270 l 2
 570 1270 510 1231 391 1008 c 1
 342 1008 l 1
 461 1356 l 1
 1616 1356 l 1
 1522 1008 l 1
 1473 1008 l 1
 1496 1233 1462 1270 1229 1270 c 2
 1118 1270 l 1
 797 223 l 2
 752 73 772 47 938 39 c 1
 926 0 l 1
 328 0 l 1
 340 39 l 1
 512 49 543 72 596 246 c 2
 909 1270 l 1
1499 1815 m 1
 1139 1473 l 1
 1012 1473 l 1
 862 1815 l 1
 932 1815 l 1
 1114 1604 l 1
 1430 1815 l 1
 1499 1815 l 1
EndSplineSet
Ligature2: "'liga' Standard Ligatures in Latin lookup 1 subtable" T uni030C
EndChar

StartChar: Udieresis
Encoding: 220 220 42
Width: 1478
Flags: HW
HStem: -29 90<719 793> 1315 41G<442 1022 1382 1858> 1505 203<1030 1092 1438 1499>
LayerCount: 2
Fore
SplineSet
1573 1055 m 2
 1411 520 l 2
 1362 362 1315 268 1239 182 c 0
 1116 43 942 -29 719 -29 c 0
 371 -29 256 140 365 494 c 2
 559 1133 l 2
 604 1283 590 1305 432 1317 c 1
 442 1356 l 1
 1022 1356 l 1
 1012 1317 l 1
 842 1303 813 1280 768 1133 c 2
 567 477 l 2
 528 348 521 273 537 207 c 0
 564 111 648 61 793 61 c 0
 947 61 1098 125 1182 223 c 0
 1233 284 1272 363 1315 502 c 2
 1483 1055 l 2
 1546 1260 1528 1305 1372 1317 c 1
 1382 1356 l 1
 1858 1356 l 1
 1847 1317 l 1
 1673 1297 1639 1264 1573 1055 c 2
1092 1708 m 0
 1149 1708 1181 1661 1165 1606 c 0
 1147 1551 1087 1505 1030 1505 c 0
 975 1505 945 1551 963 1608 c 0
 979 1661 1041 1708 1092 1708 c 0
1499 1708 m 0
 1556 1708 1589 1661 1573 1606 c 0
 1555 1551 1495 1505 1438 1505 c 0
 1383 1505 1352 1551 1370 1608 c 0
 1386 1661 1448 1708 1499 1708 c 0
EndSplineSet
Ligature2: "'liga' Standard Ligatures in Latin lookup 1 subtable" U uni0308
EndChar

StartChar: Uacute
Encoding: 218 218 43
Width: 1478
Flags: HW
HStem: -29 90<719 793> 1315 41G<442 1022 1382 1858>
LayerCount: 2
Fore
SplineSet
1573 1055 m 2
 1411 520 l 2
 1362 362 1315 268 1239 182 c 0
 1116 43 942 -29 719 -29 c 0
 371 -29 256 140 365 494 c 2
 559 1133 l 2
 604 1283 590 1305 432 1317 c 1
 442 1356 l 1
 1022 1356 l 1
 1012 1317 l 1
 842 1303 813 1280 768 1133 c 2
 567 477 l 2
 528 348 521 273 537 207 c 0
 564 111 648 61 793 61 c 0
 947 61 1098 125 1182 223 c 0
 1233 284 1272 363 1315 502 c 2
 1483 1055 l 2
 1546 1260 1528 1305 1372 1317 c 1
 1382 1356 l 1
 1858 1356 l 1
 1847 1317 l 1
 1673 1297 1639 1264 1573 1055 c 2
1174 1473 m 1
 1092 1473 l 1
 1485 1776 l 2
 1534 1813 1554 1823 1585 1823 c 0
 1630 1823 1648 1798 1636 1757 c 0
 1626 1724 1599 1698 1548 1671 c 2
 1174 1473 l 1
EndSplineSet
Ligature2: "'liga' Standard Ligatures in Latin lookup 1 subtable" U acutecomb
EndChar

StartChar: Ugrave
Encoding: 217 217 44
Width: 1478
Flags: HW
HStem: -29 90<719 793> 1315 41G<442 1022 1382 1858>
LayerCount: 2
Fore
SplineSet
1573 1055 m 2
 1411 520 l 2
 1362 362 1315 268 1239 182 c 0
 1116 43 942 -29 719 -29 c 0
 371 -29 256 140 365 494 c 2
 559 1133 l 2
 604 1283 590 1305 432 1317 c 1
 442 1356 l 1
 1022 1356 l 1
 1012 1317 l 1
 842 1303 813 1280 768 1133 c 2
 567 477 l 2
 528 348 521 273 537 207 c 0
 564 111 648 61 793 61 c 0
 947 61 1098 125 1182 223 c 0
 1233 284 1272 363 1315 502 c 2
 1483 1055 l 2
 1546 1260 1528 1305 1372 1317 c 1
 1382 1356 l 1
 1858 1356 l 1
 1847 1317 l 1
 1673 1297 1639 1264 1573 1055 c 2
1380 1473 m 1
 1298 1473 l 1
 1042 1671 l 2
 1013 1696 1002 1726 1012 1759 c 0
 1022 1798 1057 1823 1100 1823 c 0
 1131 1823 1146 1813 1171 1776 c 2
 1380 1473 l 1
EndSplineSet
Ligature2: "'liga' Standard Ligatures in Latin lookup 1 subtable" U gravecomb
EndChar

StartChar: Ucircumflex
Encoding: 219 219 45
Width: 1478
Flags: HW
HStem: -29 90<719 793> 1315 41G<442 1022 1382 1858>
LayerCount: 2
Fore
SplineSet
1573 1055 m 2
 1411 520 l 2
 1362 362 1315 268 1239 182 c 0
 1116 43 942 -29 719 -29 c 0
 371 -29 256 140 365 494 c 2
 559 1133 l 2
 604 1283 590 1305 432 1317 c 1
 442 1356 l 1
 1022 1356 l 1
 1012 1317 l 1
 842 1303 813 1280 768 1133 c 2
 567 477 l 2
 528 348 521 273 537 207 c 0
 564 111 648 61 793 61 c 0
 947 61 1098 125 1182 223 c 0
 1233 284 1272 363 1315 502 c 2
 1483 1055 l 2
 1546 1260 1528 1305 1372 1317 c 1
 1382 1356 l 1
 1858 1356 l 1
 1847 1317 l 1
 1673 1297 1639 1264 1573 1055 c 2
1548 1473 m 1
 1479 1473 l 1
 1292 1683 l 1
 981 1473 l 1
 911 1473 l 1
 1270 1815 l 1
 1397 1815 l 1
 1548 1473 l 1
EndSplineSet
Ligature2: "'liga' Standard Ligatures in Latin lookup 1 subtable" U uni0302
EndChar

StartChar: Uring
Encoding: 366 366 46
Width: 1478
Flags: HW
HStem: -29 90<719 793> 1315 41G<442 1022 1382 1858> 1483 70<1229 1255> 1821 70<1333 1360>
LayerCount: 2
Fore
SplineSet
1573 1055 m 2
 1411 520 l 2
 1362 362 1315 268 1239 182 c 0
 1116 43 942 -29 719 -29 c 0
 371 -29 256 140 365 494 c 2
 559 1133 l 2
 604 1283 590 1305 432 1317 c 1
 442 1356 l 1
 1022 1356 l 1
 1012 1317 l 1
 842 1303 813 1280 768 1133 c 2
 567 477 l 2
 528 348 521 273 537 207 c 0
 564 111 648 61 793 61 c 0
 947 61 1098 125 1182 223 c 0
 1233 284 1272 363 1315 502 c 2
 1483 1055 l 2
 1546 1260 1528 1305 1372 1317 c 1
 1382 1356 l 1
 1858 1356 l 1
 1847 1317 l 1
 1673 1297 1639 1264 1573 1055 c 2
1356 1890 m 0
 1469 1890 1532 1799 1499 1686 c 0
 1464 1573 1344 1483 1231 1483 c 0
 1116 1483 1057 1573 1092 1688 c 0
 1125 1799 1245 1890 1356 1890 c 0
1337 1821 m 0
 1263 1821 1184 1762 1161 1688 c 0
 1138 1614 1179 1552 1251 1552 c 0
 1327 1552 1407 1612 1430 1686 c 0
 1453 1760 1409 1821 1337 1821 c 0
EndSplineSet
Ligature2: "'liga' Standard Ligatures in Latin lookup 1 subtable" U uni030A
EndChar

StartChar: Uhungarumlaut
Encoding: 368 368 47
Width: 1478
Flags: HW
HStem: -29 90<719 793> 1315 41G<442 1022 1382 1858>
LayerCount: 2
Fore
SplineSet
1573 1055 m 2
 1411 520 l 2
 1362 362 1315 268 1239 182 c 0
 1116 43 942 -29 719 -29 c 0
 371 -29 256 140 365 494 c 2
 559 1133 l 2
 604 1283 590 1305 432 1317 c 1
 442 1356 l 1
 1022 1356 l 1
 1012 1317 l 1
 842 1303 813 1280 768 1133 c 2
 567 477 l 2
 528 348 521 273 537 207 c 0
 564 111 648 61 793 61 c 0
 947 61 1098 125 1182 223 c 0
 1233 284 1272 363 1315 502 c 2
 1483 1055 l 2
 1546 1260 1528 1305 1372 1317 c 1
 1382 1356 l 1
 1858 1356 l 1
 1847 1317 l 1
 1673 1297 1639 1264 1573 1055 c 2
1327 1473 m 1
 1245 1473 l 1
 1638 1776 l 2
 1687 1813 1708 1823 1739 1823 c 0
 1784 1823 1802 1798 1790 1757 c 0
 1780 1724 1753 1698 1702 1671 c 2
 1327 1473 l 1
1008 1473 m 1
 926 1473 l 1
 1319 1776 l 2
 1368 1813 1388 1823 1419 1823 c 0
 1464 1823 1482 1798 1470 1757 c 0
 1460 1724 1433 1698 1382 1671 c 2
 1008 1473 l 1
EndSplineSet
Ligature2: "'liga' Standard Ligatures in Latin lookup 1 subtable" U uni030B
EndChar

StartChar: Yacute
Encoding: 221 221 48
Width: 1478
Flags: HW
HStem: 0 39<1024 1077> 1315 41<459 1024 1395 1423>
LayerCount: 2
Fore
SplineSet
1853 1356 m 1
 1843 1317 l 1
 1734 1309 1669 1263 1489 1083 c 1
 1044 621 l 1
 922 223 l 2
 875 67 895 43 1077 39 c 1
 1065 0 l 1
 438 0 l 1
 451 39 l 1
 639 47 666 68 721 246 c 2
 829 602 l 1
 682 995 l 1
 565 1284 545 1313 449 1317 c 1
 459 1356 l 1
 1032 1356 l 1
 1022 1317 l 1
 997 1315 977 1315 969 1315 c 0
 903 1311 868 1292 856 1255 c 0
 850 1232 852 1198 864 1165 c 2
 1028 711 l 1
 1462 1174 l 2
 1491 1205 1507 1229 1513 1249 c 0
 1529 1298 1499 1315 1395 1317 c 1
 1405 1356 l 1
 1853 1356 l 1
1188 1473 m 1
 1106 1473 l 1
 1499 1776 l 2
 1548 1813 1568 1823 1599 1823 c 0
 1644 1823 1663 1798 1651 1757 c 0
 1641 1724 1614 1698 1563 1671 c 2
 1188 1473 l 1
EndSplineSet
Ligature2: "'liga' Standard Ligatures in Latin lookup 1 subtable" Y acutecomb
EndChar

StartChar: Zacute
Encoding: 377 377 49
Width: 1251
Flags: HW
HStem: 0 78<322 1174> 1278 78<518 1305>
LayerCount: 2
Fore
SplineSet
1286 360 m 1
 1333 360 l 1
 1174 0 l 1
 18 0 l 1
 29 31 l 1
 1305 1278 l 1
 852 1278 l 2
 717 1278 614 1249 551 1190 c 0
 502 1147 473 1106 424 1006 c 1
 371 1006 l 1
 518 1356 l 1
 1595 1356 l 1
 1587 1325 l 1
 322 78 l 1
 848 78 l 2
 965 78 1062 107 1128 158 c 0
 1181 203 1216 245 1286 360 c 1
1008 1473 m 1
 926 1473 l 1
 1319 1776 l 2
 1368 1813 1388 1823 1419 1823 c 0
 1464 1823 1482 1798 1470 1757 c 0
 1460 1724 1433 1698 1382 1671 c 2
 1008 1473 l 1
EndSplineSet
Ligature2: "'liga' Standard Ligatures in Latin lookup 1 subtable" Z acutecomb
EndChar

StartChar: Zcaron
Encoding: 381 381 50
Width: 1251
Flags: HW
HStem: 0 78<322 1174> 1278 78<518 1305>
LayerCount: 2
Fore
SplineSet
1286 360 m 1
 1333 360 l 1
 1174 0 l 1
 18 0 l 1
 29 31 l 1
 1305 1278 l 1
 852 1278 l 2
 717 1278 614 1249 551 1190 c 0
 502 1147 473 1106 424 1006 c 1
 371 1006 l 1
 518 1356 l 1
 1595 1356 l 1
 1587 1325 l 1
 322 78 l 1
 848 78 l 2
 965 78 1062 107 1128 158 c 0
 1181 203 1216 245 1286 360 c 1
1501 1815 m 1
 1141 1473 l 1
 1014 1473 l 1
 864 1815 l 1
 934 1815 l 1
 1116 1604 l 1
 1432 1815 l 1
 1501 1815 l 1
EndSplineSet
Ligature2: "'liga' Standard Ligatures in Latin lookup 1 subtable" Z uni030C
EndChar

StartChar: Zdotaccent
Encoding: 379 379 51
Width: 1251
Flags: HW
HStem: 0 78<322 1174> 1278 78<518 1305> 1505 203<1085 1147>
LayerCount: 2
Fore
SplineSet
1286 360 m 1
 1333 360 l 1
 1174 0 l 1
 18 0 l 1
 29 31 l 1
 1305 1278 l 1
 852 1278 l 2
 717 1278 614 1249 551 1190 c 0
 502 1147 473 1106 424 1006 c 1
 371 1006 l 1
 518 1356 l 1
 1595 1356 l 1
 1587 1325 l 1
 322 78 l 1
 848 78 l 2
 965 78 1062 107 1128 158 c 0
 1181 203 1216 245 1286 360 c 1
1147 1708 m 0
 1204 1708 1237 1661 1221 1606 c 0
 1203 1551 1142 1505 1085 1505 c 0
 1030 1505 1000 1551 1018 1608 c 0
 1034 1661 1096 1708 1147 1708 c 0
EndSplineSet
Ligature2: "'liga' Standard Ligatures in Latin lookup 1 subtable" Z uni0307
EndChar

StartChar: Amacron
Encoding: 256 256 52
Width: 1478
Flags: HW
HStem: 0 41<43 128 346 436 936 1064 1380 1446> 442 84<442 915> 1339 41<711 752 752 752> 1554 111<422 1059>
LayerCount: 2
Fore
SplineSet
1458 39 m 1
 1446 0 l 1
 924 0 l 1
 936 39 l 1
 1045 41 1086 58 1100 109 c 0
 1108 138 1110 191 1104 246 c 2
 1079 442 l 1
 543 442 l 1
 375 203 l 2
 357 176 342 148 334 123 c 0
 318 66 351 39 449 39 c 1
 436 0 l 1
 31 0 l 1
 43 39 l 1
 141 43 176 76 399 375 c 1
 1133 1380 l 1
 1174 1380 l 1
 1327 217 l 1
 1354 65 1368 45 1458 39 c 1
604 526 m 1
 1077 526 l 1
 1012 1090 l 1
 604 526 l 1
932 1665 m 1x10
 1569 1665 l 1
 1534 1554 l 1
 897 1554 l 1
 932 1665 l 1x10
EndSplineSet
Ligature2: "'liga' Standard Ligatures in Latin lookup 1 subtable" A uni0304
EndChar

StartChar: Tcommaaccent
Encoding: 354 354 53
Width: 1251
Flags: HW
HStem: -291 213<567 584> 0 43G<328 926> 1270 86<461 909 461 1280>
LayerCount: 2
Fore
SplineSet
909 1270 m 1
 799 1270 l 2
 570 1270 510 1231 391 1008 c 1
 342 1008 l 1
 461 1356 l 1
 1616 1356 l 1
 1522 1008 l 1
 1473 1008 l 1
 1496 1233 1462 1270 1229 1270 c 2
 1118 1270 l 1
 797 223 l 2
 752 73 772 47 938 39 c 1
 926 0 l 1
 328 0 l 1
 340 39 l 1
 512 49 543 72 596 246 c 2
 909 1270 l 1
362 -575 m 1
 356 -537 l 1
 489 -461 572 -385 590 -319 c 0
 596 -303 587 -291 571 -291 c 0
 569 -291 569 -291 553 -295 c 0
 541 -297 524 -299 512 -299 c 0
 438 -299 404 -261 424 -195 c 0
 444 -125 508 -78 580 -78 c 0
 672 -78 719 -158 688 -260 c 0
 651 -383 520 -507 362 -575 c 1
EndSplineSet
Ligature2: "'liga' Standard Ligatures in Latin lookup 1 subtable" T uni0327
EndChar

StartChar: Ydieresis
Encoding: 376 376 54
Width: 1478
Flags: HW
HStem: 0 39<1024 1077> 1315 41<459 1024 1395 1440> 1505 203<1028 1090 1436 1497>
LayerCount: 2
Fore
SplineSet
1853 1356 m 1
 1843 1317 l 1
 1734 1309 1669 1263 1489 1083 c 1
 1044 621 l 1
 922 223 l 2
 875 67 895 43 1077 39 c 1
 1065 0 l 1
 438 0 l 1
 451 39 l 1
 639 47 666 68 721 246 c 2
 829 602 l 1
 682 995 l 1
 565 1284 545 1313 449 1317 c 1
 459 1356 l 1
 1032 1356 l 1
 1022 1317 l 1
 997 1315 977 1315 969 1315 c 0
 903 1311 868 1292 856 1255 c 0
 850 1232 852 1198 864 1165 c 2
 1028 711 l 1
 1462 1174 l 2
 1491 1205 1507 1229 1513 1249 c 0
 1529 1298 1499 1315 1395 1317 c 1
 1405 1356 l 1
 1853 1356 l 1
1090 1708 m 0
 1147 1708 1179 1661 1163 1606 c 0
 1145 1551 1085 1505 1028 1505 c 0
 973 1505 943 1551 961 1608 c 0
 977 1661 1039 1708 1090 1708 c 0
1497 1708 m 0
 1554 1708 1587 1661 1571 1606 c 0
 1553 1551 1493 1505 1436 1505 c 0
 1381 1505 1350 1551 1368 1608 c 0
 1384 1661 1446 1708 1497 1708 c 0
EndSplineSet
Ligature2: "'liga' Standard Ligatures in Latin lookup 1 subtable" Y uni0308
EndChar

StartChar: Emacron
Encoding: 274 274 55
Width: 1251
Flags: HW
HStem: 0 76<580 1130> 670 84<643 977> 907 41G<1243 1290> 1063 293<438 1444> 1278 78<438 1206> 1554 111<815 1419>
LayerCount: 2
Fore
SplineSet
1329 346 m 1xec
 1130 0 l 1
 25 0 l 1
 37 39 l 1
 189 49 227 80 270 223 c 2
 549 1133 l 2
 592 1276 575 1305 428 1317 c 1
 438 1356 l 1xf4
 1526 1356 l 1xec
 1444 1063 l 1
 1393 1063 l 1xf4
 1413 1247 1378 1278 1147 1278 c 2
 870 1278 l 2
 815 1278 798 1265 780 1208 c 2
 643 754 l 1
 958 754 l 2
 1054 754 1116 770 1153 805 c 0
 1184 834 1202 864 1243 948 c 1
 1290 948 l 1
 1145 473 l 1
 1098 473 l 1
 1123 643 1100 670 932 670 c 2
 616 670 l 1
 461 164 l 2
 451 129 449 106 457 100 c 1
 467 86 549 76 649 76 c 2
 705 76 l 2
 998 76 1102 125 1272 346 c 1
 1329 346 l 1xec
817 1665 m 1
 1454 1665 l 1
 1419 1554 l 1
 782 1554 l 1
 817 1665 l 1
EndSplineSet
Ligature2: "'liga' Standard Ligatures in Latin lookup 1 subtable" E uni0304
EndChar

StartChar: Imacron
Encoding: 298 298 56
Width: 681
Flags: HW
HStem: 0 43G<37 645> 1315 41G<451 1059> 1554 111<530 1135>
LayerCount: 2
Fore
SplineSet
303 223 m 2
 582 1133 l 2
 629 1285 610 1307 440 1317 c 1
 451 1356 l 1
 1059 1356 l 1
 1049 1317 l 1
 873 1309 836 1283 791 1133 c 2
 512 223 l 2
 467 73 491 45 657 39 c 1
 645 0 l 1
 37 0 l 1
 49 39 l 1
 223 45 256 69 303 223 c 2
532 1665 m 1
 1169 1665 l 1
 1135 1554 l 1
 498 1554 l 1
 532 1665 l 1
EndSplineSet
Ligature2: "'liga' Standard Ligatures in Latin lookup 1 subtable" I uni0304
EndChar

StartChar: Iogonek
Encoding: 302 302 57
Width: 681
Flags: HW
HStem: -338 115<481 559> -41 41G<37 545> 1315 41G<451 1059>
LayerCount: 2
Fore
SplineSet
657 39 m 1
 645 0 l 1
 635 -2 627 -9 598 -27 c 1
 549 -66 516 -104 506 -143 c 0
 492 -188 514 -223 559 -223 c 0
 602 -223 647 -203 727 -150 c 1
 758 -182 l 1
 649 -291 565 -338 481 -338 c 0
 397 -338 352 -270 379 -182 c 0
 399 -114 447 -63 545 0 c 1
 37 0 l 1
 49 39 l 1
 223 45 256 69 303 223 c 2
 582 1133 l 2
 629 1285 610 1307 440 1317 c 1
 451 1356 l 1
 1059 1356 l 1
 1049 1317 l 1
 873 1309 836 1283 791 1133 c 2
 512 223 l 2
 467 73 491 45 657 39 c 1
EndSplineSet
Ligature2: "'liga' Standard Ligatures in Latin lookup 1 subtable" I uni0328
EndChar

StartChar: Kcommaaccent
Encoding: 310 310 58
Width: 1478
Flags: HW
HStem: -291 213<676 696> 0 41<868 1481> 1315 41<1257 1300>
LayerCount: 2
Fore
SplineSet
1249 1317 m 1
 1260 1356 l 1
 1796 1356 l 1
 1786 1317 l 1
 1643 1307 1605 1290 1425 1157 c 1
 918 772 l 1
 1239 260 l 2
 1364 61 1387 41 1493 39 c 1
 1481 0 l 1
 856 0 l 1
 868 39 l 1
 893 41 916 41 926 41 c 0
 983 43 1018 57 1026 86 c 0
 1040 135 975 280 866 434 c 2
 715 649 l 1
 647 606 l 1
 530 223 l 2
 485 73 501 49 659 39 c 1
 647 0 l 1
 70 0 l 1
 82 39 l 1
 246 49 277 76 330 246 c 2
 600 1133 l 2
 645 1278 629 1305 473 1317 c 1
 483 1356 l 1
 1065 1356 l 1
 1055 1317 l 1
 885 1305 854 1283 809 1133 c 2
 680 713 l 1
 1145 1042 l 2
 1288 1146 1354 1208 1368 1253 c 0
 1380 1294 1361 1311 1300 1315 c 0
 1292 1315 1272 1315 1249 1317 c 1
475 -575 m 1
 469 -537 l 1
 602 -461 684 -385 702 -319 c 0
 708 -303 700 -291 684 -291 c 0
 682 -291 682 -291 666 -295 c 0
 654 -297 637 -299 625 -299 c 0
 551 -299 517 -261 537 -195 c 0
 557 -125 620 -78 692 -78 c 0
 784 -78 832 -158 801 -260 c 0
 764 -383 633 -507 475 -575 c 1
EndSplineSet
Ligature2: "'liga' Standard Ligatures in Latin lookup 1 subtable" K uni0327
EndChar

StartChar: Lcommaaccent
Encoding: 315 315 59
Width: 1251
Flags: HW
HStem: -291 213<567 584> 0 80<545 1126> 1315 41G<438 1016>
LayerCount: 2
Fore
SplineSet
1282 356 m 1
 1333 356 l 1
 1126 0 l 1
 25 0 l 1
 37 39 l 1
 189 49 227 80 270 223 c 2
 549 1133 l 2
 592 1276 575 1305 428 1317 c 1
 438 1356 l 1
 1016 1356 l 1
 1006 1317 l 1
 840 1307 803 1278 758 1133 c 2
 461 164 l 2
 441 92 462 80 612 80 c 2
 750 80 l 2
 920 80 1043 117 1139 197 c 0
 1182 232 1225 278 1282 356 c 1
362 -575 m 1
 356 -537 l 1
 489 -461 572 -385 590 -319 c 0
 596 -303 587 -291 571 -291 c 0
 569 -291 569 -291 553 -295 c 0
 541 -297 524 -299 512 -299 c 0
 438 -299 404 -261 424 -195 c 0
 444 -125 508 -78 580 -78 c 0
 672 -78 719 -158 688 -260 c 0
 651 -383 520 -507 362 -575 c 1
EndSplineSet
Ligature2: "'liga' Standard Ligatures in Latin lookup 1 subtable" L uni0327
EndChar

StartChar: Ncommaaccent
Encoding: 325 325 60
Width: 1478
Flags: HW
HStem: -291 213<678 696> -23 43G<1212 1247> 1317 39<438 471>
LayerCount: 2
Fore
SplineSet
1247 -23 m 1
 1212 -23 l 1
 651 1104 l 1
 406 301 l 2
 343 94 362 47 518 39 c 1
 506 0 l 1
 25 0 l 1
 37 39 l 1
 211 51 249 90 315 301 c 2
 592 1204 l 1
 539 1300 516 1317 428 1317 c 1
 438 1356 l 1
 788 1356 l 1
 1274 365 l 1
 1485 1055 l 2
 1524 1182 1528 1255 1497 1284 c 0
 1470 1302 1446 1311 1370 1317 c 1
 1380 1356 l 1
 1862 1356 l 1
 1851 1317 l 1
 1769 1309 1739 1300 1704 1280 c 0
 1657 1253 1614 1178 1575 1055 c 2
 1247 -23 l 1
475 -575 m 1
 469 -537 l 1
 602 -461 684 -385 702 -319 c 0
 708 -303 700 -291 684 -291 c 0
 682 -291 682 -291 666 -295 c 0
 654 -297 637 -299 625 -299 c 0
 551 -299 517 -261 537 -195 c 0
 557 -125 620 -78 692 -78 c 0
 784 -78 832 -158 801 -260 c 0
 764 -383 633 -507 475 -575 c 1
EndSplineSet
Ligature2: "'liga' Standard Ligatures in Latin lookup 1 subtable" N uni0327
EndChar

StartChar: Omacron
Encoding: 332 332 61
Width: 1478
Flags: HW
HStem: -29 74<715 764> 1311 74<1120 1167> 1554 111<930 1534>
LayerCount: 2
Fore
SplineSet
1163 1384 m 0
 1360 1384 1509 1310 1595 1169 c 0
 1669 1046 1675 873 1614 670 c 0
 1489 258 1122 -29 719 -29 c 0
 539 -29 381 51 301 180 c 0
 227 299 217 485 276 678 c 0
 403 1090 772 1384 1163 1384 c 0
1141 1311 m 0
 1028 1311 913 1266 807 1178 c 0
 690 1082 573 883 510 674 c 0
 440 447 444 239 522 145 c 0
 573 82 656 45 750 45 c 0
 859 45 961 82 1055 154 c 0
 1116 201 1167 252 1200 303 c 0
 1274 409 1343 551 1380 672 c 0
 1456 916 1450 1108 1370 1208 c 0
 1317 1274 1235 1311 1141 1311 c 0
932 1665 m 1
 1569 1665 l 1
 1534 1554 l 1
 897 1554 l 1
 932 1665 l 1
EndSplineSet
Ligature2: "'liga' Standard Ligatures in Latin lookup 1 subtable" O uni0304
EndChar

StartChar: Rcommaaccent
Encoding: 342 342 62
Width: 1366
Flags: HW
HStem: -291 213<623 641> 0 43G<35 602 1020 1350> 1280 76<449 954>
LayerCount: 2
Fore
SplineSet
1362 39 m 1
 1350 0 l 1
 1020 0 l 1
 725 631 l 1
 610 627 l 1
 485 223 l 2
 440 76 458 49 614 39 c 1
 602 0 l 1
 35 0 l 1
 47 39 l 1
 205 51 232 76 285 246 c 2
 555 1133 l 2
 600 1278 585 1301 438 1317 c 1
 449 1356 l 1
 1014 1356 l 2
 1207 1356 1360 1303 1413 1219 c 0
 1448 1160 1452 1083 1425 995 c 0
 1394 899 1329 813 1247 760 c 0
 1163 705 1095 680 950 653 c 1
 1212 135 l 1
 1251 65 1286 45 1362 39 c 1
786 1206 m 2
 633 702 l 1
 830 706 905 719 1016 772 c 0
 1102 811 1171 897 1202 999 c 0
 1261 1192 1169 1280 913 1280 c 0
 831 1280 804 1263 786 1206 c 2
420 -575 m 1
 414 -537 l 1
 547 -461 629 -385 647 -319 c 0
 653 -303 645 -291 629 -291 c 0
 627 -291 626 -291 610 -295 c 0
 598 -297 581 -299 569 -299 c 0
 495 -299 461 -261 481 -195 c 0
 501 -125 565 -78 637 -78 c 0
 729 -78 776 -158 745 -260 c 0
 708 -383 578 -507 420 -575 c 1
EndSplineSet
Ligature2: "'liga' Standard Ligatures in Latin lookup 1 subtable" R uni0327
EndChar

StartChar: Gcommaaccent
Encoding: 290 290 63
Width: 1478
Flags: HW
HStem: -291 213<680 696> -29 82<786 854> 952 365<1532 1581> 1303 82<1153 1245>
LayerCount: 2
Fore
SplineSet
1673 725 m 1xd0
 1663 688 l 1
 1540 678 1507 651 1470 530 c 2
 1343 115 l 1
 1239 43 962 -29 786 -29 c 0
 561 -29 387 49 293 190 c 0
 215 311 207 465 268 666 c 0
 397 1084 782 1384 1192 1384 c 0xd0
 1284 1384 1372 1368 1456 1337 c 0
 1489 1323 1520 1317 1540 1317 c 0xe0
 1583 1317 1628 1345 1653 1384 c 1
 1698 1384 l 1xd0
 1581 952 l 1
 1534 952 l 1xe0
 1522 1077 1505 1133 1462 1190 c 0
 1405 1264 1315 1303 1200 1303 c 0
 1061 1303 918 1247 797 1147 c 0
 676 1047 561 861 504 668 c 0
 387 287 520 53 854 53 c 0
 1001 53 1143 108 1163 174 c 2
 1266 506 l 2
 1293 594 1295 641 1268 659 c 0
 1250 675 1227 682 1141 688 c 1
 1151 725 l 1
 1673 725 l 1xd0
475 -575 m 1
 469 -537 l 1
 602 -461 684 -385 702 -319 c 0
 708 -303 700 -291 684 -291 c 0
 682 -291 682 -291 666 -295 c 0
 654 -297 637 -299 625 -299 c 0
 551 -299 517 -261 537 -195 c 0
 557 -125 620 -78 692 -78 c 0
 784 -78 832 -158 801 -260 c 0
 764 -383 633 -507 475 -575 c 1
EndSplineSet
Ligature2: "'liga' Standard Ligatures in Latin lookup 1 subtable" G uni0327
EndChar

StartChar: Umacron
Encoding: 362 362 64
Width: 1478
Flags: HW
HStem: -29 90<719 793> 1315 41G<442 1022 1382 1858> 1554 111<971 1575>
LayerCount: 2
Fore
SplineSet
1573 1055 m 2
 1411 520 l 2
 1362 362 1315 268 1239 182 c 0
 1116 43 942 -29 719 -29 c 0
 371 -29 256 140 365 494 c 2
 559 1133 l 2
 604 1283 590 1305 432 1317 c 1
 442 1356 l 1
 1022 1356 l 1
 1012 1317 l 1
 842 1303 813 1280 768 1133 c 2
 567 477 l 2
 528 348 521 273 537 207 c 0
 564 111 648 61 793 61 c 0
 947 61 1098 125 1182 223 c 0
 1233 284 1272 363 1315 502 c 2
 1483 1055 l 2
 1546 1260 1528 1305 1372 1317 c 1
 1382 1356 l 1
 1858 1356 l 1
 1847 1317 l 1
 1673 1297 1639 1264 1573 1055 c 2
973 1665 m 1
 1610 1665 l 1
 1575 1554 l 1
 938 1554 l 1
 973 1665 l 1
EndSplineSet
Ligature2: "'liga' Standard Ligatures in Latin lookup 1 subtable" U uni0304
EndChar

StartChar: Uogonek
Encoding: 370 370 65
Width: 1478
Flags: HW
HStem: -338 115<862 940> -29 90<715 793> 1315 41G<442 1022 1382 1858>
LayerCount: 2
Fore
SplineSet
1110 -150 m 1
 1141 -182 l 1
 1030 -291 948 -338 862 -338 c 0
 778 -338 733 -270 760 -182 c 0
 778 -119 830 -63 918 -6 c 1
 846 -20 785 -29 715 -29 c 0
 371 -29 256 142 365 494 c 2
 559 1133 l 2
 604 1283 590 1305 432 1317 c 1
 442 1356 l 1
 1022 1356 l 1
 1012 1317 l 1
 842 1303 813 1280 768 1133 c 2
 567 477 l 2
 528 348 521 273 537 207 c 0
 564 111 648 61 793 61 c 0
 947 61 1098 125 1182 223 c 0
 1233 284 1272 363 1315 502 c 2
 1483 1055 l 2
 1546 1260 1528 1305 1372 1317 c 1
 1382 1356 l 1
 1858 1356 l 1
 1847 1317 l 1
 1673 1297 1639 1264 1573 1055 c 2
 1411 520 l 2
 1333 270 1268 180 1067 47 c 0
 958 -25 905 -82 885 -145 c 0
 873 -190 897 -223 940 -223 c 0
 985 -223 1030 -203 1110 -150 c 1
EndSplineSet
Ligature2: "'liga' Standard Ligatures in Latin lookup 1 subtable" U uni0328
EndChar

StartChar: adieresis
Encoding: 228 228 66
Width: 909
Flags: HW
HStem: -20 119<285 416> 893 49<700 748> 1071 203<575 637 983 1044>
LayerCount: 2
Fore
SplineSet
946 135 m 1
 930 82 l 1
 836 4 785 -20 715 -20 c 0
 631 -20 606 23 629 129 c 1
 471 23 375 -20 285 -20 c 0
 160 -20 96 70 137 199 c 0
 157 267 207 336 264 377 c 0
 377 455 416 471 770 598 c 1
 809 723 l 2
 842 834 805 893 705 893 c 0
 623 893 544 848 526 793 c 0
 522 779 520 761 518 743 c 0
 516 729 514 719 512 711 c 0
 498 666 442 625 393 625 c 0
 346 625 318 666 332 713 c 0
 373 842 555 942 748 942 c 0
 869 942 944 903 967 829 c 0
 981 780 975 720 942 614 c 2
 819 215 l 2
 792 125 797 96 844 96 c 0
 875 96 903 106 946 135 c 1
666 252 m 2
 756 549 l 1
 480 459 373 385 336 264 c 2
 334 256 l 2
 307 168 344 98 416 98 c 0
 459 98 521 116 580 145 c 0
 629 170 646 189 666 252 c 2
637 1274 m 0
 694 1274 727 1226 711 1171 c 0
 695 1116 632 1071 575 1071 c 0
 520 1071 492 1117 508 1174 c 0
 524 1227 586 1274 637 1274 c 0
1044 1274 m 0
 1101 1274 1134 1226 1118 1171 c 0
 1102 1116 1040 1071 983 1071 c 0
 928 1071 899 1117 915 1174 c 0
 931 1227 993 1274 1044 1274 c 0
EndSplineSet
Ligature2: "'liga' Standard Ligatures in Latin lookup 1 subtable" a uni0308
EndChar

StartChar: aacute
Encoding: 225 225 67
Width: 909
Flags: HW
HStem: -20 119<285 416> 893 49<700 748> 1348 41G<1101 1139>
LayerCount: 2
Fore
SplineSet
946 135 m 1
 930 82 l 1
 836 4 785 -20 715 -20 c 0
 631 -20 606 23 629 129 c 1
 471 23 375 -20 285 -20 c 0
 160 -20 96 70 137 199 c 0
 157 267 207 336 264 377 c 0
 377 455 416 471 770 598 c 1
 809 723 l 2
 842 834 805 893 705 893 c 0
 623 893 544 848 526 793 c 0
 522 779 520 761 518 743 c 0
 516 729 514 719 512 711 c 0
 498 666 442 625 393 625 c 0
 346 625 318 666 332 713 c 0
 373 842 555 942 748 942 c 0
 869 942 944 903 967 829 c 0
 981 780 975 720 942 614 c 2
 819 215 l 2
 792 125 797 96 844 96 c 0
 875 96 903 106 946 135 c 1
666 252 m 2
 756 549 l 1
 480 459 373 385 336 264 c 2
 334 256 l 2
 307 168 344 98 416 98 c 0
 459 98 521 116 580 145 c 0
 629 170 646 189 666 252 c 2
705 1038 m 1
 623 1038 l 1
 1016 1341 l 2
 1065 1378 1085 1389 1116 1389 c 0
 1161 1389 1181 1364 1169 1323 c 0
 1159 1290 1132 1264 1081 1237 c 2
 705 1038 l 1
EndSplineSet
Ligature2: "'liga' Standard Ligatures in Latin lookup 1 subtable" a acutecomb
EndChar

StartChar: agrave
Encoding: 224 224 68
Width: 909
Flags: HW
HStem: -20 119<285 416> 893 49<700 748> 1348 41G<624 660>
LayerCount: 2
Fore
SplineSet
946 135 m 1
 930 82 l 1
 836 4 785 -20 715 -20 c 0
 631 -20 606 23 629 129 c 1
 471 23 375 -20 285 -20 c 0
 160 -20 96 70 137 199 c 0
 157 267 207 336 264 377 c 0
 377 455 416 471 770 598 c 1
 809 723 l 2
 842 834 805 893 705 893 c 0
 623 893 544 848 526 793 c 0
 522 779 520 761 518 743 c 0
 516 729 514 719 512 711 c 0
 498 666 442 625 393 625 c 0
 346 625 318 666 332 713 c 0
 373 842 555 942 748 942 c 0
 869 942 944 903 967 829 c 0
 981 780 975 720 942 614 c 2
 819 215 l 2
 792 125 797 96 844 96 c 0
 875 96 903 106 946 135 c 1
666 252 m 2
 756 549 l 1
 480 459 373 385 336 264 c 2
 334 256 l 2
 307 168 344 98 416 98 c 0
 459 98 521 116 580 145 c 0
 629 170 646 189 666 252 c 2
926 1038 m 1
 844 1038 l 1
 590 1237 l 2
 559 1262 547 1292 557 1325 c 0
 569 1364 602 1389 645 1389 c 0
 676 1389 692 1378 717 1341 c 2
 926 1038 l 1
EndSplineSet
Ligature2: "'liga' Standard Ligatures in Latin lookup 1 subtable" a gravecomb
EndChar

StartChar: acircumflex
Encoding: 226 226 69
Width: 909
Flags: HW
HStem: -20 119<285 416> 893 49<700 748> 1339 41G<813 940>
LayerCount: 2
Fore
SplineSet
946 135 m 1
 930 82 l 1
 836 4 785 -20 715 -20 c 0
 631 -20 606 23 629 129 c 1
 471 23 375 -20 285 -20 c 0
 160 -20 96 70 137 199 c 0
 157 267 207 336 264 377 c 0
 377 455 416 471 770 598 c 1
 809 723 l 2
 842 834 805 893 705 893 c 0
 623 893 544 848 526 793 c 0
 522 779 520 761 518 743 c 0
 516 729 514 719 512 711 c 0
 498 666 442 625 393 625 c 0
 346 625 318 666 332 713 c 0
 373 842 555 942 748 942 c 0
 869 942 944 903 967 829 c 0
 981 780 975 720 942 614 c 2
 819 215 l 2
 792 125 797 96 844 96 c 0
 875 96 903 106 946 135 c 1
666 252 m 2
 756 549 l 1
 480 459 373 385 336 264 c 2
 334 256 l 2
 307 168 344 98 416 98 c 0
 459 98 521 116 580 145 c 0
 629 170 646 189 666 252 c 2
1092 1038 m 1
 1022 1038 l 1
 836 1249 l 1
 524 1038 l 1
 455 1038 l 1
 813 1380 l 1
 940 1380 l 1
 1092 1038 l 1
EndSplineSet
Ligature2: "'liga' Standard Ligatures in Latin lookup 1 subtable" a uni0302
EndChar

StartChar: abreve
Encoding: 259 259 70
Width: 909
Flags: HW
HStem: -20 117<250 453 717 852> -20 119<250 453 717 852> 893 49<391 482> 1038 123<404 516> 1319 41<168 227 227 227 684 743 743 743>
VStem: 115 170 588 166<252 549 549 549 598 614>
LayerCount: 2
Fore
SplineSet
946 135 m 1xa6
 930 82 l 1
 836 4 785 -20 715 -20 c 0x86
 631 -20 606 23 629 129 c 1
 471 23 375 -20 285 -20 c 0x46
 160 -20 96 70 137 199 c 0
 157 267 207 336 264 377 c 0
 377 455 416 471 770 598 c 1
 809 723 l 2
 842 834 805 893 705 893 c 0
 623 893 544 848 526 793 c 0
 522 779 520 761 518 743 c 0
 516 729 514 719 512 711 c 0
 498 666 442 625 393 625 c 0
 346 625 318 666 332 713 c 0
 373 842 555 942 748 942 c 0
 869 942 944 903 967 829 c 0
 981 780 975 720 942 614 c 2
 819 215 l 2
 792 125 797 96 844 96 c 0
 875 96 903 106 946 135 c 1xa6
666 252 m 2x46
 756 549 l 1
 480 459 373 385 336 264 c 2
 334 256 l 2
 307 168 344 98 416 98 c 0
 459 98 521 116 580 145 c 0
 629 170 646 189 666 252 c 2x46
1100 1360 m 1x18
 1159 1360 l 1
 1069 1143 942 1038 770 1038 c 0
 674 1038 604 1077 575 1149 c 0
 552 1206 553 1256 584 1360 c 1
 643 1360 l 1
 631 1223 680 1161 811 1161 c 0
 930 1161 996 1204 1100 1360 c 1x18
EndSplineSet
Ligature2: "'liga' Standard Ligatures in Latin lookup 1 subtable" a uni0306
EndChar

StartChar: atilde
Encoding: 227 227 71
Width: 909
Flags: HW
HStem: -20 119<285 416> 893 49<700 748> 1090 115<911 993> 1184 113<643 721>
LayerCount: 2
Fore
SplineSet
946 135 m 1xc0
 930 82 l 1
 836 4 785 -20 715 -20 c 0
 631 -20 606 23 629 129 c 1
 471 23 375 -20 285 -20 c 0
 160 -20 96 70 137 199 c 0
 157 267 207 336 264 377 c 0
 377 455 416 471 770 598 c 1
 809 723 l 2
 842 834 805 893 705 893 c 0
 623 893 544 848 526 793 c 0
 522 779 520 761 518 743 c 0
 516 729 514 719 512 711 c 0
 498 666 442 625 393 625 c 0
 346 625 318 666 332 713 c 0
 373 842 555 942 748 942 c 0
 869 942 944 903 967 829 c 0
 981 780 975 720 942 614 c 2
 819 215 l 2
 792 125 797 96 844 96 c 0
 875 96 903 106 946 135 c 1xc0
666 252 m 2
 756 549 l 1
 480 459 373 385 336 264 c 2
 334 256 l 2
 307 168 344 98 416 98 c 0
 459 98 521 116 580 145 c 0
 629 170 646 189 666 252 c 2
1133 1307 m 1
 1192 1307 l 1
 1102 1151 1024 1090 911 1090 c 0xe0
 860 1090 832 1098 760 1139 c 2
 719 1161 l 2
 692 1175 668 1184 643 1184 c 0xd0
 596 1184 551 1153 510 1090 c 1
 451 1090 l 1xe0
 523 1223 619 1296 721 1296 c 0xd0
 766 1296 813 1285 852 1260 c 2
 893 1235 l 2
 928 1217 962 1204 993 1204 c 0xe0
 1040 1204 1074 1229 1133 1307 c 1
EndSplineSet
Ligature2: "'liga' Standard Ligatures in Latin lookup 1 subtable" a tildecomb
EndChar

StartChar: aring
Encoding: 229 229 72
Width: 909
Flags: HW
HStem: -20 119<285 416> 893 49<698 748> 1069 70<776 809> 1407 70<874 907>
LayerCount: 2
Fore
SplineSet
946 135 m 1
 930 82 l 1
 836 4 785 -20 715 -20 c 0
 631 -20 606 23 629 129 c 1
 471 23 375 -20 285 -20 c 0
 160 -20 96 70 137 199 c 0
 157 267 207 336 264 377 c 0
 377 455 416 471 770 598 c 1
 809 723 l 2
 842 834 805 893 705 893 c 0
 623 893 544 848 526 793 c 0
 522 779 520 761 518 743 c 0
 516 729 514 719 512 711 c 0
 498 666 442 625 393 625 c 0
 346 625 318 666 332 713 c 0
 373 842 555 942 748 942 c 0
 869 942 944 903 967 829 c 0
 981 780 975 720 942 614 c 2
 819 215 l 2
 792 125 797 96 844 96 c 0
 875 96 903 106 946 135 c 1
666 252 m 2
 756 549 l 1
 480 459 373 385 336 264 c 2
 334 256 l 2
 307 168 344 98 416 98 c 0
 459 98 521 116 580 145 c 0
 629 170 646 189 666 252 c 2
903 1477 m 0
 1016 1477 1082 1385 1047 1272 c 0
 1012 1159 893 1069 780 1069 c 0
 665 1069 604 1159 639 1274 c 0
 674 1385 792 1477 903 1477 c 0
885 1407 m 0
 811 1407 732 1348 709 1274 c 0
 686 1200 727 1139 799 1139 c 0
 875 1139 954 1198 977 1272 c 0
 1000 1346 957 1407 885 1407 c 0
EndSplineSet
Ligature2: "'liga' Standard Ligatures in Latin lookup 1 subtable" a uni030A
EndChar

StartChar: aogonek
Encoding: 261 261 73
Width: 909
Flags: HW
HStem: -338 115<699 722> -20 119<250 453> 893 49<391 482>
VStem: 115 170 530 115<-162 -150> 588 166<252 549 549 549 598 614>
LayerCount: 2
Fore
SplineSet
946 135 m 1xf4
 930 82 l 1
 836 4 809 -9 721 -23 c 0
 668 -33 620 -78 604 -135 c 0
 588 -188 608 -223 655 -223 c 0
 698 -223 743 -203 823 -150 c 1
 854 -182 l 1
 745 -291 662 -338 578 -338 c 0
 494 -338 448 -270 475 -182 c 0xe8
 495 -116 545 -61 641 0 c 1
 618 31 615 61 629 129 c 1
 471 23 375 -20 285 -20 c 0
 160 -20 96 70 137 199 c 0
 157 267 207 336 264 377 c 0
 377 455 416 471 770 598 c 1
 809 723 l 2
 842 834 805 893 705 893 c 0
 623 893 544 848 526 793 c 0
 522 779 520 761 518 743 c 0
 516 729 514 719 512 711 c 0
 498 666 442 625 393 625 c 0
 346 625 318 666 332 713 c 0
 373 842 555 942 748 942 c 0
 869 942 944 903 967 829 c 0
 981 780 975 720 942 614 c 2
 819 215 l 2
 792 125 797 96 844 96 c 0
 875 96 903 106 946 135 c 1xf4
666 252 m 2xe4
 756 549 l 1
 480 459 373 385 336 264 c 2
 334 256 l 2
 307 168 344 98 416 98 c 0
 459 98 521 116 580 145 c 0
 629 170 646 189 666 252 c 2xe4
EndSplineSet
Ligature2: "'liga' Standard Ligatures in Latin lookup 1 subtable" a uni0328
EndChar

StartChar: cacute
Encoding: 263 263 74
Width: 909
Flags: HW
HStem: -20 147<433 486> 883 59<450 524> 1348 41<718 756>
VStem: 51 158<409 517>
LayerCount: 2
Fore
SplineSet
913 319 m 1
 936 301 l 1
 838 180 783 125 711 76 c 0
 619 13 526 -20 434 -20 c 0
 207 -20 102 170 184 436 c 0
 233 598 334 737 465 827 c 0
 571 901 688 942 788 942 c 0
 960 942 1073 846 1038 731 c 0
 1024 684 966 645 913 645 c 0
 870 645 846 682 846 739 c 2
 848 784 l 2
 850 860 832 883 758 883 c 0
 592 883 434 737 371 526 c 0
 297 290 379 127 565 127 c 0
 682 127 770 176 913 319 c 1
745 1038 m 1x20
 664 1038 l 1
 1057 1341 l 2
 1106 1378 1126 1389 1157 1389 c 0
 1202 1389 1222 1364 1210 1323 c 0
 1200 1290 1173 1264 1122 1237 c 2
 745 1038 l 1x20
EndSplineSet
Ligature2: "'liga' Standard Ligatures in Latin lookup 1 subtable" c acutecomb
EndChar

StartChar: ccaron
Encoding: 269 269 75
Width: 909
Flags: HW
HStem: -20 147<434 565> 883 59<748 788> 1339 41G<600 670 1167 1237>
LayerCount: 2
Fore
SplineSet
913 319 m 1
 936 301 l 1
 838 180 783 125 711 76 c 0
 619 13 526 -20 434 -20 c 0
 207 -20 102 170 184 436 c 0
 233 598 334 737 465 827 c 0
 571 901 688 942 788 942 c 0
 960 942 1073 846 1038 731 c 0
 1024 684 966 645 913 645 c 0
 870 645 846 682 846 739 c 2
 848 784 l 2
 850 860 832 883 758 883 c 0
 592 883 434 737 371 526 c 0
 297 290 379 127 565 127 c 0
 682 127 770 176 913 319 c 1
1237 1380 m 1
 877 1038 l 1
 750 1038 l 1
 600 1380 l 1
 670 1380 l 1
 854 1169 l 1
 1167 1380 l 1
 1237 1380 l 1
EndSplineSet
Ligature2: "'liga' Standard Ligatures in Latin lookup 1 subtable" c uni030C
EndChar

StartChar: ccedilla
Encoding: 231 231 76
Width: 909
Flags: HW
HStem: -440 72<250 295> -205 78<324 434> 883 59<750 788>
LayerCount: 2
Fore
SplineSet
457 -20 m 1
 379 -133 l 1
 402 -129 414 -127 434 -127 c 0
 545 -127 594 -180 567 -268 c 0
 534 -374 416 -440 258 -440 c 0
 192 -440 147 -433 96 -408 c 1
 145 -344 l 1
 194 -362 227 -369 270 -369 c 0
 340 -369 394 -334 410 -279 c 0
 426 -226 402 -205 324 -205 c 0
 301 -205 282 -207 264 -213 c 1
 254 -203 l 1
 389 -16 l 1
 190 11 108 190 184 434 c 0
 233 598 334 737 465 827 c 0
 571 901 688 942 788 942 c 0
 960 942 1073 846 1038 731 c 0
 1024 684 966 645 915 645 c 0
 870 645 846 680 846 739 c 2
 848 784 l 2
 850 860 832 883 758 883 c 0
 592 883 434 737 371 526 c 0
 297 290 379 127 565 127 c 0
 682 127 770 176 913 319 c 1
 936 301 l 1
 764 86 627 -6 457 -20 c 1
EndSplineSet
Ligature2: "'liga' Standard Ligatures in Latin lookup 1 subtable" c uni0327
EndChar

StartChar: dcaron
Encoding: 271 271 77
Width: 1228
Flags: HW
HStem: -20 106<428 541> 885 57<731 780> 1171 213<1473 1487>
LayerCount: 2
Fore
SplineSet
698 -20 m 1
 692 -14 l 1
 731 117 l 1
 633 21 543 -20 428 -20 c 0
 203 -20 104 158 184 420 c 0
 272 711 534 942 770 942 c 0
 852 942 899 920 956 854 c 1
 1055 1174 l 2
 1082 1258 1069 1278 993 1278 c 0
 977 1278 964 1278 946 1276 c 1
 956 1309 l 1
 1099 1344 1177 1364 1286 1399 c 1
 1294 1395 l 1
 940 233 l 2
 911 139 919 117 993 117 c 0
 999 117 1003 117 1042 119 c 1
 1032 86 l 1
 698 -20 l 1
760 209 m 2
 905 680 l 2
 938 789 867 885 758 885 c 0
 602 885 455 733 385 502 c 0
 307 250 371 86 541 86 c 0
 600 86 658 106 707 147 c 0
 734 170 756 195 760 209 c 2
1268 887 m 1
 1262 926 l 1
 1397 1002 1477 1075 1497 1143 c 0
 1501 1159 1493 1171 1477 1171 c 0
 1475 1171 1474 1171 1458 1167 c 0
 1446 1165 1431 1163 1419 1163 c 0
 1345 1163 1309 1202 1329 1268 c 0
 1352 1338 1415 1384 1487 1384 c 0
 1579 1384 1626 1304 1593 1202 c 0
 1556 1079 1426 955 1268 887 c 1
EndSplineSet
Ligature2: "'liga' Standard Ligatures in Latin lookup 1 subtable" d uni030C
EndChar

StartChar: edieresis
Encoding: 235 235 78
Width: 909
Flags: HW
HStem: -20 141<428 555> 567 66<395 1004> 868 74<686 768> 1071 203<575 637 983 1044>
LayerCount: 2
Fore
SplineSet
938 336 m 1
 967 322 l 1
 813 101 623 -20 428 -20 c 0
 192 -20 98 155 184 438 c 0
 235 606 336 752 459 836 c 0
 557 906 666 942 768 942 c 0
 874 942 954 899 993 825 c 0
 1024 759 1029 700 1004 567 c 1
 373 567 l 1
 338 442 332 375 344 297 c 0
 369 180 438 121 555 121 c 0
 686 121 793 180 938 336 c 1
395 633 m 1
 813 633 l 1
 842 811 811 868 686 868 c 0
 561 868 467 793 395 633 c 1
637 1274 m 0
 694 1274 727 1226 711 1171 c 0
 695 1116 632 1071 575 1071 c 0
 520 1071 492 1117 508 1174 c 0
 524 1227 586 1274 637 1274 c 0
1044 1274 m 0
 1101 1274 1134 1226 1118 1171 c 0
 1102 1116 1040 1071 983 1071 c 0
 928 1071 899 1117 915 1174 c 0
 931 1227 993 1274 1044 1274 c 0
EndSplineSet
Ligature2: "'liga' Standard Ligatures in Latin lookup 1 subtable" e uni0308
EndChar

StartChar: eacute
Encoding: 233 233 79
Width: 909
Flags: HW
HStem: -20 141<428 555> 567 66<395 1004> 868 74<686 768> 1348 41G<1101 1139>
LayerCount: 2
Fore
SplineSet
938 336 m 1
 967 322 l 1
 813 101 623 -20 428 -20 c 0
 192 -20 98 155 184 438 c 0
 235 606 336 752 459 836 c 0
 557 906 666 942 768 942 c 0
 874 942 954 899 993 825 c 0
 1024 759 1029 700 1004 567 c 1
 373 567 l 1
 338 442 332 375 344 297 c 0
 369 180 438 121 555 121 c 0
 686 121 793 180 938 336 c 1
395 633 m 1
 813 633 l 1
 842 811 811 868 686 868 c 0
 561 868 467 793 395 633 c 1
705 1038 m 1
 623 1038 l 1
 1016 1341 l 2
 1065 1378 1085 1389 1116 1389 c 0
 1161 1389 1181 1364 1169 1323 c 0
 1159 1290 1132 1264 1081 1237 c 2
 705 1038 l 1
EndSplineSet
Ligature2: "'liga' Standard Ligatures in Latin lookup 1 subtable" e acutecomb
EndChar

StartChar: egrave
Encoding: 232 232 80
Width: 909
Flags: HW
HStem: -20 141<428 555> 567 66<395 1004> 868 74<686 768> 1348 41G<624 660>
LayerCount: 2
Fore
SplineSet
938 336 m 1
 967 322 l 1
 813 101 623 -20 428 -20 c 0
 192 -20 98 155 184 438 c 0
 235 606 336 752 459 836 c 0
 557 906 666 942 768 942 c 0
 874 942 954 899 993 825 c 0
 1024 759 1029 700 1004 567 c 1
 373 567 l 1
 338 442 332 375 344 297 c 0
 369 180 438 121 555 121 c 0
 686 121 793 180 938 336 c 1
395 633 m 1
 813 633 l 1
 842 811 811 868 686 868 c 0
 561 868 467 793 395 633 c 1
926 1038 m 1
 844 1038 l 1
 590 1237 l 2
 559 1262 547 1292 557 1325 c 0
 569 1364 602 1389 645 1389 c 0
 676 1389 692 1378 717 1341 c 2
 926 1038 l 1
EndSplineSet
Ligature2: "'liga' Standard Ligatures in Latin lookup 1 subtable" e gravecomb
EndChar

StartChar: ecircumflex
Encoding: 234 234 81
Width: 909
Flags: HW
HStem: -20 141<428 555> 567 66<395 1004> 868 74<686 768> 1339 41G<813 940>
LayerCount: 2
Fore
SplineSet
938 336 m 1
 967 322 l 1
 813 101 623 -20 428 -20 c 0
 192 -20 98 155 184 438 c 0
 235 606 336 752 459 836 c 0
 557 906 666 942 768 942 c 0
 874 942 954 899 993 825 c 0
 1024 759 1029 700 1004 567 c 1
 373 567 l 1
 338 442 332 375 344 297 c 0
 369 180 438 121 555 121 c 0
 686 121 793 180 938 336 c 1
395 633 m 1
 813 633 l 1
 842 811 811 868 686 868 c 0
 561 868 467 793 395 633 c 1
1092 1038 m 1
 1022 1038 l 1
 836 1249 l 1
 524 1038 l 1
 455 1038 l 1
 813 1380 l 1
 940 1380 l 1
 1092 1038 l 1
EndSplineSet
Ligature2: "'liga' Standard Ligatures in Latin lookup 1 subtable" e uni0302
EndChar

StartChar: ecaron
Encoding: 283 283 82
Width: 909
Flags: HW
HStem: -20 141<460 531> 567 66<203 621> 868 74<428 482> 1339 41<137 207 207 207 705 774 774 774>
LayerCount: 2
Fore
SplineSet
938 336 m 1
 967 322 l 1
 813 101 623 -20 428 -20 c 0
 192 -20 98 155 184 438 c 0
 235 606 336 752 459 836 c 0
 557 906 666 942 768 942 c 0
 874 942 954 899 993 825 c 0
 1024 759 1029 700 1004 567 c 1
 373 567 l 1
 338 442 332 375 344 297 c 0
 369 180 438 121 555 121 c 0
 686 121 793 180 938 336 c 1
395 633 m 1
 813 633 l 1
 842 811 811 868 686 868 c 0
 561 868 467 793 395 633 c 1
1196 1380 m 1x10
 836 1038 l 1
 709 1038 l 1
 559 1380 l 1
 629 1380 l 1
 813 1169 l 1
 1126 1380 l 1
 1196 1380 l 1x10
EndSplineSet
Ligature2: "'liga' Standard Ligatures in Latin lookup 1 subtable" e uni030C
EndChar

StartChar: edotaccent
Encoding: 279 279 83
Width: 909
Flags: HMW
HStem: -20 141<460 531> 567 66<203 621> 868 74<428 482>
LayerCount: 2
Fore
SplineSet
938 336 m 1
 967 322 l 1
 813 101 623 -20 428 -20 c 0
 192 -20 98 155 184 438 c 0
 235 606 336 752 459 836 c 0
 557 906 666 942 768 942 c 0
 874 942 954 899 993 825 c 0
 1024 759 1029 700 1004 567 c 1
 373 567 l 1
 338 442 332 375 344 297 c 0
 369 180 438 121 555 121 c 0
 686 121 793 180 938 336 c 1
395 633 m 1
 813 633 l 1
 842 811 811 868 686 868 c 0
 561 868 467 793 395 633 c 1
842 1274 m 0
 899 1274 931 1226 915 1171 c 0
 899 1116 837 1071 780 1071 c 0
 725 1071 697 1117 713 1174 c 0
 729 1227 791 1274 842 1274 c 0
EndSplineSet
Ligature2: "'liga' Standard Ligatures in Latin lookup 1 subtable" e uni0307
EndChar

StartChar: eogonek
Encoding: 281 281 84
Width: 909
Flags: HMW
HStem: -338 115<618 641> -20 141<417 608> 567 66<203 621> 868 74<428 482>
VStem: 449 115<-167 -150>
LayerCount: 2
Fore
SplineSet
938 336 m 1
 967 322 l 1
 908 232 842 166 690 45 c 0
 575 -45 536 -90 520 -143 c 0
 506 -190 528 -223 573 -223 c 0
 618 -223 663 -203 743 -150 c 1
 774 -182 l 1
 663 -291 582 -338 496 -338 c 0
 412 -338 366 -270 393 -182 c 0
 413 -116 461 -63 557 -2 c 1
 506 -16 473 -20 430 -20 c 0
 192 -20 98 155 184 438 c 0
 235 606 336 752 459 836 c 0
 557 906 666 942 768 942 c 0
 874 942 954 899 993 825 c 0
 1024 759 1029 700 1004 567 c 1
 373 567 l 1
 338 442 332 375 344 297 c 0
 369 180 438 121 555 121 c 0
 686 121 793 180 938 336 c 1
395 633 m 1
 813 633 l 1
 842 811 811 868 686 868 c 0
 561 868 467 793 395 633 c 1
EndSplineSet
Ligature2: "'liga' Standard Ligatures in Latin lookup 1 subtable" e uni0328
EndChar

StartChar: gbreve
Encoding: 287 287 85
Width: 1024
Flags: HW
HStem: -446 117<274 399> -72 41G<572 716> 305 51<602 641> 795 80<1036 1206> 885 57<731 772> 1038 123<827 868> 1319 41G<641 700 1157 1217>
LayerCount: 2
Fore
SplineSet
1206 795 m 1
 1036 795 l 1
 1044 729 1040 682 1022 623 c 0
 991 521 938 448 852 391 c 0
 772 336 682 305 606 305 c 0
 594 305 567 307 528 311 c 0
 522 311 510 313 492 315 c 1
 433 299 342 227 330 186 c 0
 320 153 364 135 473 131 c 2
 733 119 l 2
 883 113 952 27 913 -100 c 0
 888 -178 835 -244 737 -307 c 0
 604 -393 428 -446 274 -446 c 0
 79 -446 -51 -357 -18 -248 c 0
 5 -172 80 -104 258 2 c 1
 186 43 170 68 184 111 c 0
 196 152 236 193 322 252 c 0
 336 262 383 297 434 334 c 1
 319 402 289 479 328 608 c 0
 385 794 582 942 772 942 c 0
 825 942 877 931 926 911 c 2
 967 895 l 2
 1002 881 1032 874 1073 874 c 2
 1231 874 l 1
 1206 795 l 1
299 -4 m 1
 182 -106 159 -133 145 -180 c 0
 118 -270 219 -330 399 -330 c 0
 630 -330 811 -250 846 -131 c 0
 869 -57 809 -31 623 -31 c 0
 523 -31 362 -18 299 -4 c 1
522 692 m 2
 520 686 l 2
 461 489 506 356 629 356 c 0
 723 356 805 428 840 543 c 0
 865 623 868 716 854 788 c 0
 840 849 796 885 733 885 c 0
 639 885 559 813 522 692 c 2
1157 1360 m 1
 1217 1360 l 1
 1127 1143 999 1038 827 1038 c 0
 731 1038 662 1077 633 1149 c 0
 610 1206 610 1256 641 1360 c 1
 700 1360 l 1
 688 1223 737 1161 868 1161 c 0
 987 1161 1053 1204 1157 1360 c 1
EndSplineSet
Ligature2: "'liga' Standard Ligatures in Latin lookup 1 subtable" g uni0306
EndChar

StartChar: idieresis
Encoding: 239 239 86
Width: 569
Flags: HW
HStem: 0 43G<33 518> 1071 203<449 510 774 836>
LayerCount: 2
Fore
SplineSet
510 1274 m 0
 567 1274 600 1226 584 1171 c 0
 568 1116 506 1071 449 1071 c 0
 394 1071 365 1117 381 1174 c 0
 397 1227 459 1274 510 1274 c 0
836 1274 m 0
 893 1274 925 1226 909 1171 c 0
 893 1116 831 1071 774 1071 c 0
 719 1071 691 1117 707 1174 c 0
 723 1227 785 1274 836 1274 c 0
647 942 m 1
 653 936 l 1
 430 209 l 2
 385 62 395 41 528 31 c 1
 518 0 l 1
 33 0 l 1
 43 31 l 1
 186 39 213 62 258 209 c 2
 403 684 l 2
 432 774 422 807 373 807 c 0
 355 807 328 805 303 801 c 2
 285 799 l 1
 295 829 l 1
 647 942 l 1
EndSplineSet
Ligature2: "'liga' Standard Ligatures in Latin lookup 1 subtable" i uni0308
EndChar

StartChar: iacute
Encoding: 237 237 87
Width: 569
Flags: HW
HStem: 0 43G<33 518> 1348 41G<931 969>
LayerCount: 2
Fore
SplineSet
647 942 m 1
 653 936 l 1
 430 209 l 2
 385 62 395 41 528 31 c 1
 518 0 l 1
 33 0 l 1
 43 31 l 1
 186 39 213 62 258 209 c 2
 403 684 l 2
 432 774 422 807 373 807 c 0
 355 807 328 805 303 801 c 2
 285 799 l 1
 295 829 l 1
 647 942 l 1
535 1038 m 1
 453 1038 l 1
 846 1341 l 2
 895 1378 915 1389 946 1389 c 0
 991 1389 1011 1364 999 1323 c 0
 989 1290 962 1264 911 1237 c 2
 535 1038 l 1
EndSplineSet
Ligature2: "'liga' Standard Ligatures in Latin lookup 1 subtable" i acutecomb
EndChar

StartChar: igrave
Encoding: 236 236 88
Width: 569
Flags: HW
HStem: 0 43G<33 518> 1348 41G<456 493>
LayerCount: 2
Fore
SplineSet
647 942 m 1
 653 936 l 1
 430 209 l 2
 385 62 395 41 528 31 c 1
 518 0 l 1
 33 0 l 1
 43 31 l 1
 186 39 213 62 258 209 c 2
 403 684 l 2
 432 774 422 807 373 807 c 0
 355 807 328 805 303 801 c 2
 285 799 l 1
 295 829 l 1
 647 942 l 1
758 1038 m 1
 676 1038 l 1
 422 1237 l 2
 391 1262 379 1292 389 1325 c 0
 401 1364 434 1389 477 1389 c 0
 508 1389 524 1378 549 1341 c 2
 758 1038 l 1
EndSplineSet
Ligature2: "'liga' Standard Ligatures in Latin lookup 1 subtable" i gravecomb
EndChar

StartChar: icircumflex
Encoding: 238 238 89
Width: 569
Flags: HW
HStem: 0 43G<33 518> 1339 41G<643 770>
LayerCount: 2
Fore
SplineSet
647 942 m 1
 653 936 l 1
 430 209 l 2
 385 62 395 41 528 31 c 1
 518 0 l 1
 33 0 l 1
 43 31 l 1
 186 39 213 62 258 209 c 2
 403 684 l 2
 432 774 422 807 373 807 c 0
 355 807 328 805 303 801 c 2
 285 799 l 1
 295 829 l 1
 647 942 l 1
922 1038 m 1
 852 1038 l 1
 666 1249 l 1
 354 1038 l 1
 285 1038 l 1
 643 1380 l 1
 770 1380 l 1
 922 1038 l 1
EndSplineSet
Ligature2: "'liga' Standard Ligatures in Latin lookup 1 subtable" i uni0302
EndChar

StartChar: lacute
Encoding: 314 314 90
Width: 569
Flags: HW
HStem: 0 43G<43 526>
LayerCount: 2
Fore
SplineSet
428 1276 m 1
 438 1309 l 1
 592 1344 676 1364 793 1399 c 1
 799 1395 l 1
 426 172 l 2
 391 59 410 39 537 31 c 1
 526 0 l 1
 43 0 l 1
 53 31 l 1
 184 41 221 67 256 178 c 2
 553 1155 l 2
 584 1251 572 1280 506 1280 c 0
 490 1280 465 1278 440 1276 c 2
 428 1276 l 1
668 1473 m 1
 586 1473 l 1
 979 1776 l 2
 1028 1813 1048 1823 1079 1823 c 0
 1124 1823 1142 1798 1130 1757 c 0
 1120 1724 1093 1698 1042 1671 c 2
 668 1473 l 1
EndSplineSet
Ligature2: "'liga' Standard Ligatures in Latin lookup 1 subtable" l acutecomb
EndChar

StartChar: lcaron
Encoding: 318 318 91
Width: 712
Flags: HW
HStem: 0 43G<43 526> 1171 213<958 973>
LayerCount: 2
Fore
SplineSet
428 1276 m 1
 438 1309 l 1
 592 1344 676 1364 793 1399 c 1
 799 1395 l 1
 426 172 l 2
 391 59 410 39 537 31 c 1
 526 0 l 1
 43 0 l 1
 53 31 l 1
 184 41 221 67 256 178 c 2
 553 1155 l 2
 584 1251 572 1280 506 1280 c 0
 490 1280 465 1278 440 1276 c 2
 428 1276 l 1
754 887 m 1
 748 926 l 1
 883 1002 963 1075 983 1143 c 0
 987 1159 979 1171 963 1171 c 0
 961 1171 960 1171 944 1167 c 0
 932 1165 917 1163 905 1163 c 0
 831 1163 795 1202 815 1268 c 0
 838 1338 901 1384 973 1384 c 0
 1065 1384 1112 1304 1079 1202 c 0
 1042 1079 912 955 754 887 c 1
EndSplineSet
Ligature2: "'liga' Standard Ligatures in Latin lookup 1 subtable" l uni030C
EndChar

StartChar: nacute
Encoding: 324 324 92
Width: 1024
Flags: HW
HStem: 0 43G<37 471 567 993> 829 113<801 915> 1348 41G<1158 1196>
LayerCount: 2
Fore
SplineSet
283 815 m 1
 293 850 l 1
 416 883 491 905 604 942 c 1
 616 938 l 1
 567 776 l 1
 745 907 821 942 915 942 c 0
 1067 942 1122 828 1063 635 c 2
 920 166 l 2
 889 66 906 41 1004 31 c 1
 993 0 l 1
 567 0 l 1
 578 31 l 1
 682 39 719 74 758 203 c 2
 889 631 l 2
 930 766 901 829 801 829 c 0
 733 829 680 805 553 713 c 1
 377 137 l 2
 354 63 379 39 481 31 c 1
 471 0 l 1
 37 0 l 1
 47 31 l 1
 153 39 184 67 221 184 c 2
 375 692 l 2
 406 792 397 823 340 823 c 0
 317 823 297 821 283 815 c 1
762 1038 m 1
 680 1038 l 1
 1073 1341 l 2
 1122 1378 1143 1389 1174 1389 c 0
 1219 1389 1239 1364 1227 1323 c 0
 1217 1290 1190 1264 1139 1237 c 2
 762 1038 l 1
EndSplineSet
Ligature2: "'liga' Standard Ligatures in Latin lookup 1 subtable" n acutecomb
EndChar

StartChar: ncaron
Encoding: 328 328 93
Width: 1024
Flags: HW
HStem: 0 43G<37 471 567 993> 829 113<801 915> 1339 41G<616 686 1184 1253>
LayerCount: 2
Fore
SplineSet
283 815 m 1
 293 850 l 1
 416 883 491 905 604 942 c 1
 616 938 l 1
 567 776 l 1
 745 907 821 942 915 942 c 0
 1067 942 1122 828 1063 635 c 2
 920 166 l 2
 889 66 906 41 1004 31 c 1
 993 0 l 1
 567 0 l 1
 578 31 l 1
 682 39 719 74 758 203 c 2
 889 631 l 2
 930 766 901 829 801 829 c 0
 733 829 680 805 553 713 c 1
 377 137 l 2
 354 63 379 39 481 31 c 1
 471 0 l 1
 37 0 l 1
 47 31 l 1
 153 39 184 67 221 184 c 2
 375 692 l 2
 406 792 397 823 340 823 c 0
 317 823 297 821 283 815 c 1
1253 1380 m 1
 893 1038 l 1
 766 1038 l 1
 616 1380 l 1
 686 1380 l 1
 870 1169 l 1
 1184 1380 l 1
 1253 1380 l 1
EndSplineSet
Ligature2: "'liga' Standard Ligatures in Latin lookup 1 subtable" n uni030C
EndChar

StartChar: ntilde
Encoding: 241 241 94
Width: 1024
Flags: HW
HStem: 0 43G<37 471 567 993> 829 113<801 915> 1090 115<969 1051> 1184 113<700 778>
LayerCount: 2
Fore
SplineSet
283 815 m 1xc0
 293 850 l 1
 416 883 491 905 604 942 c 1
 616 938 l 1
 567 776 l 1
 745 907 821 942 915 942 c 0
 1067 942 1122 828 1063 635 c 2
 920 166 l 2
 889 66 906 41 1004 31 c 1
 993 0 l 1
 567 0 l 1
 578 31 l 1
 682 39 719 74 758 203 c 2
 889 631 l 2
 930 766 901 829 801 829 c 0
 733 829 680 805 553 713 c 1
 377 137 l 2
 354 63 379 39 481 31 c 1
 471 0 l 1
 37 0 l 1
 47 31 l 1
 153 39 184 67 221 184 c 2
 375 692 l 2
 406 792 397 823 340 823 c 0
 317 823 297 821 283 815 c 1xc0
1190 1307 m 1
 1249 1307 l 1
 1159 1151 1082 1090 969 1090 c 0xe0
 918 1090 889 1098 817 1139 c 2
 776 1161 l 2
 749 1175 725 1184 700 1184 c 0xd0
 653 1184 608 1153 567 1090 c 1
 508 1090 l 1xe0
 580 1223 676 1296 778 1296 c 0xd0
 823 1296 870 1285 909 1260 c 2
 950 1235 l 2
 985 1217 1020 1204 1051 1204 c 0xe0
 1098 1204 1131 1229 1190 1307 c 1
EndSplineSet
Ligature2: "'liga' Standard Ligatures in Latin lookup 1 subtable" n tildecomb
EndChar

StartChar: odieresis
Encoding: 246 246 95
Width: 1024
Flags: HW
HStem: -20 57<502 545> 885 57<752 801> 1071 203<633 694 1040 1102>
LayerCount: 2
Fore
SplineSet
801 942 m 0
 1063 942 1192 747 1110 479 c 0
 1022 196 760 -20 502 -20 c 0
 244 -20 117 187 201 463 c 0
 287 746 535 942 801 942 c 0
756 885 m 0
 611 885 475 758 416 563 c 0
 371 418 360 274 385 168 c 0
 403 86 465 37 545 37 c 0
 699 37 831 177 903 408 c 0
 989 689 928 885 756 885 c 0
694 1274 m 0
 751 1274 784 1226 768 1171 c 0
 752 1116 690 1071 633 1071 c 0
 578 1071 549 1117 565 1174 c 0
 581 1227 643 1274 694 1274 c 0
1102 1274 m 0
 1159 1274 1192 1226 1176 1171 c 0
 1160 1116 1097 1071 1040 1071 c 0
 985 1071 957 1117 973 1174 c 0
 989 1227 1051 1274 1102 1274 c 0
EndSplineSet
Ligature2: "'liga' Standard Ligatures in Latin lookup 1 subtable" o uni0308
EndChar

StartChar: oacute
Encoding: 243 243 96
Width: 1024
Flags: HW
HStem: -20 57<502 545> 885 57<752 801> 1348 41G<1158 1196>
LayerCount: 2
Fore
SplineSet
801 942 m 0
 1063 942 1192 747 1110 479 c 0
 1022 196 760 -20 502 -20 c 0
 244 -20 117 187 201 463 c 0
 287 746 535 942 801 942 c 0
756 885 m 0
 611 885 475 758 416 563 c 0
 371 418 360 274 385 168 c 0
 403 86 465 37 545 37 c 0
 699 37 831 177 903 408 c 0
 989 689 928 885 756 885 c 0
762 1038 m 1
 680 1038 l 1
 1073 1341 l 2
 1122 1378 1143 1389 1174 1389 c 0
 1219 1389 1239 1364 1227 1323 c 0
 1217 1290 1190 1264 1139 1237 c 2
 762 1038 l 1
EndSplineSet
Ligature2: "'liga' Standard Ligatures in Latin lookup 1 subtable" o acutecomb
EndChar

StartChar: ograve
Encoding: 242 242 97
Width: 1024
Flags: HW
HStem: -20 57<502 545> 885 57<752 801> 1348 41G<681 718>
LayerCount: 2
Fore
SplineSet
801 942 m 0
 1063 942 1192 747 1110 479 c 0
 1022 196 760 -20 502 -20 c 0
 244 -20 117 187 201 463 c 0
 287 746 535 942 801 942 c 0
756 885 m 0
 611 885 475 758 416 563 c 0
 371 418 360 274 385 168 c 0
 403 86 465 37 545 37 c 0
 699 37 831 177 903 408 c 0
 989 689 928 885 756 885 c 0
983 1038 m 1
 901 1038 l 1
 647 1237 l 2
 616 1262 604 1292 614 1325 c 0
 626 1364 659 1389 702 1389 c 0
 733 1389 749 1378 774 1341 c 2
 983 1038 l 1
EndSplineSet
Ligature2: "'liga' Standard Ligatures in Latin lookup 1 subtable" o gravecomb
EndChar

StartChar: ocircumflex
Encoding: 244 244 98
Width: 1024
Flags: HW
HStem: -20 57<502 545> 885 57<752 801> 1339 41G<870 997>
LayerCount: 2
Fore
SplineSet
801 942 m 0
 1063 942 1192 747 1110 479 c 0
 1022 196 760 -20 502 -20 c 0
 244 -20 117 187 201 463 c 0
 287 746 535 942 801 942 c 0
756 885 m 0
 611 885 475 758 416 563 c 0
 371 418 360 274 385 168 c 0
 403 86 465 37 545 37 c 0
 699 37 831 177 903 408 c 0
 989 689 928 885 756 885 c 0
1149 1038 m 1
 1079 1038 l 1
 893 1249 l 1
 582 1038 l 1
 512 1038 l 1
 870 1380 l 1
 997 1380 l 1
 1149 1038 l 1
EndSplineSet
Ligature2: "'liga' Standard Ligatures in Latin lookup 1 subtable" o uni0302
EndChar

StartChar: otilde
Encoding: 245 245 99
Width: 1024
Flags: HW
HStem: -20 57<502 545> 885 57<752 801> 1090 115<969 1051> 1184 113<700 778>
LayerCount: 2
Fore
SplineSet
801 942 m 0xc0
 1063 942 1192 747 1110 479 c 0
 1022 196 760 -20 502 -20 c 0
 244 -20 117 187 201 463 c 0
 287 746 535 942 801 942 c 0xc0
756 885 m 0
 611 885 475 758 416 563 c 0
 371 418 360 274 385 168 c 0
 403 86 465 37 545 37 c 0
 699 37 831 177 903 408 c 0
 989 689 928 885 756 885 c 0
1190 1307 m 1
 1249 1307 l 1
 1159 1151 1082 1090 969 1090 c 0xe0
 918 1090 889 1098 817 1139 c 2
 776 1161 l 2
 749 1175 725 1184 700 1184 c 0xd0
 653 1184 608 1153 567 1090 c 1
 508 1090 l 1xe0
 580 1223 676 1296 778 1296 c 0xd0
 823 1296 870 1285 909 1260 c 2
 950 1235 l 2
 985 1217 1020 1204 1051 1204 c 0xe0
 1098 1204 1131 1229 1190 1307 c 1
EndSplineSet
Ligature2: "'liga' Standard Ligatures in Latin lookup 1 subtable" o tildecomb
EndChar

StartChar: ohungarumlaut
Encoding: 337 337 100
Width: 1024
Flags: HW
HStem: -20 57<502 545> 885 57<752 801> 1348 41G<962 999 1281 1319>
LayerCount: 2
Fore
SplineSet
801 942 m 0
 1063 942 1192 747 1110 479 c 0
 1022 196 760 -20 502 -20 c 0
 244 -20 117 187 201 463 c 0
 287 746 535 942 801 942 c 0
756 885 m 0
 611 885 475 758 416 563 c 0
 371 418 360 274 385 168 c 0
 403 86 465 37 545 37 c 0
 699 37 831 177 903 408 c 0
 989 689 928 885 756 885 c 0
885 1038 m 1
 803 1038 l 1
 1196 1341 l 2
 1245 1378 1265 1389 1296 1389 c 0
 1341 1389 1362 1364 1350 1323 c 0
 1340 1290 1313 1264 1262 1237 c 2
 885 1038 l 1
565 1038 m 1
 483 1038 l 1
 877 1341 l 2
 926 1378 946 1389 977 1389 c 0
 1022 1389 1042 1364 1030 1323 c 0
 1020 1290 993 1264 942 1237 c 2
 565 1038 l 1
EndSplineSet
Ligature2: "'liga' Standard Ligatures in Latin lookup 1 subtable" o uni030B
EndChar

StartChar: racute
Encoding: 341 341 101
Width: 681
Flags: HW
HStem: 0 43G<10 502> 741 201<831 862> 1348 41G<986 1024>
LayerCount: 2
Fore
SplineSet
258 799 m 1
 268 831 l 1
 401 870 483 897 606 942 c 1
 614 938 l 1
 557 750 l 1
 702 895 776 942 862 942 c 0
 932 942 963 902 940 834 c 0
 924 777 883 741 834 741 c 0
 807 741 789 753 764 782 c 0
 748 802 731 813 719 813 c 0
 664 813 544 711 524 645 c 2
 385 184 l 2
 348 67 375 37 512 31 c 1
 502 0 l 1
 10 0 l 1
 20 31 l 1
 157 56 176 70 209 172 c 2
 365 684 l 2
 394 774 383 807 332 807 c 0
 307 807 289 805 258 799 c 1
590 1038 m 1
 508 1038 l 1
 901 1341 l 2
 950 1378 970 1389 1001 1389 c 0
 1046 1389 1067 1364 1055 1323 c 0
 1045 1290 1018 1264 967 1237 c 2
 590 1038 l 1
EndSplineSet
Ligature2: "'liga' Standard Ligatures in Latin lookup 1 subtable" r acutecomb
EndChar

StartChar: sacute
Encoding: 347 347 102
Width: 796
Flags: HW
HStem: -20 45<397 434> 16 295<184 207> 643 258<840 858> 895 45<633 696> 1348 41G<1084 1122>
LayerCount: 2
Fore
SplineSet
842 643 m 1x28
 811 643 l 1x28
 819 825 781 895 664 895 c 0
 570 895 488 838 463 756 c 0
 447 701 461 649 508 616 c 2
 688 485 l 2
 788 411 817 344 786 242 c 0
 743 99 576 -20 418 -20 c 0x98
 381 -20 327 -12 274 0 c 0
 231 12 202 16 184 16 c 0
 159 16 151 12 131 -8 c 1
 104 -8 l 1
 201 311 l 1
 233 311 l 1x48
 225 194 229 147 256 96 c 0
 283 51 338 25 408 25 c 0
 512 25 594 82 623 172 c 0
 641 235 620 285 563 326 c 2
 465 393 l 2
 320 491 280 573 315 688 c 0
 360 835 508 940 670 940 c 0x98
 723 940 766 931 807 915 c 0
 825 905 846 901 858 901 c 0
 866 901 868 904 891 918 c 2
 897 922 l 1
 920 922 l 1
 842 643 l 1x28
688 1038 m 1
 606 1038 l 1
 999 1341 l 2
 1048 1378 1069 1389 1100 1389 c 0
 1145 1389 1165 1364 1153 1323 c 0
 1143 1290 1116 1264 1065 1237 c 2
 688 1038 l 1
EndSplineSet
Ligature2: "'liga' Standard Ligatures in Latin lookup 1 subtable" s acutecomb
EndChar

StartChar: scaron
Encoding: 353 353 103
Width: 796
Flags: HW
HStem: -20 45<397 434> 16 295<184 207> 643 258<840 858> 895 45<647 696> 1339 41G<502 571 1069 1139>
LayerCount: 2
Fore
SplineSet
842 643 m 1x28
 811 643 l 1x28
 819 825 781 895 664 895 c 0
 570 895 488 838 463 756 c 0
 447 701 461 649 508 616 c 2
 688 485 l 2
 788 411 817 344 786 242 c 0
 743 99 576 -20 418 -20 c 0x98
 381 -20 327 -12 274 0 c 0
 231 12 202 16 184 16 c 0
 159 16 151 12 131 -8 c 1
 104 -8 l 1
 201 311 l 1
 233 311 l 1x48
 225 194 229 147 256 96 c 0
 283 51 338 25 408 25 c 0
 512 25 594 82 623 172 c 0
 641 235 620 285 563 326 c 2
 465 393 l 2
 320 491 280 573 315 688 c 0
 360 835 508 940 670 940 c 0x98
 723 940 766 931 807 915 c 0
 825 905 846 901 858 901 c 0
 866 901 868 904 891 918 c 2
 897 922 l 1
 920 922 l 1
 842 643 l 1x28
1139 1380 m 1
 778 1038 l 1
 651 1038 l 1
 502 1380 l 1
 571 1380 l 1
 756 1169 l 1
 1069 1380 l 1
 1139 1380 l 1
EndSplineSet
Ligature2: "'liga' Standard Ligatures in Latin lookup 1 subtable" s uni030C
EndChar

StartChar: scommaaccent
Encoding: 537 537 104
Width: 796
Flags: HW
HStem: -291 213<340 356> -20 45<397 434> 16 295<184 207> 643 258<840 858> 895 45<633 696>
LayerCount: 2
Fore
SplineSet
842 643 m 1x90
 811 643 l 1x90
 819 825 781 895 664 895 c 0
 570 895 488 838 463 756 c 0
 447 701 461 649 508 616 c 2
 688 485 l 2
 788 411 817 344 786 242 c 0
 743 99 576 -20 418 -20 c 0xc8
 381 -20 327 -12 274 0 c 0
 231 12 202 16 184 16 c 0
 159 16 151 12 131 -8 c 1
 104 -8 l 1
 201 311 l 1
 233 311 l 1xa0
 225 194 229 147 256 96 c 0
 283 51 338 25 408 25 c 0
 512 25 594 82 623 172 c 0
 641 235 620 285 563 326 c 2
 465 393 l 2
 320 491 280 573 315 688 c 0
 360 835 508 940 670 940 c 0xc8
 723 940 766 931 807 915 c 0
 825 905 846 901 858 901 c 0
 866 901 868 904 891 918 c 2
 897 922 l 1
 920 922 l 1
 842 643 l 1x90
135 -575 m 1
 129 -537 l 1
 262 -461 344 -385 362 -319 c 0
 368 -303 360 -291 344 -291 c 0
 342 -291 342 -291 326 -295 c 0
 314 -297 297 -299 285 -299 c 0
 211 -299 177 -261 197 -195 c 0
 217 -125 280 -78 352 -78 c 0
 444 -78 492 -158 461 -260 c 0
 424 -383 293 -507 135 -575 c 1
EndSplineSet
Ligature2: "'liga' Standard Ligatures in Latin lookup 1 subtable" s uni0326
EndChar

StartChar: tcaron
Encoding: 357 357 105
Width: 569
Flags: HW
HStem: -20 106<319 449> 856 66<598 784> 1171 213<860 874>
LayerCount: 2
Fore
SplineSet
651 922 m 1
 649 926 l 1
 784 1002 865 1075 885 1143 c 0
 889 1159 880 1171 864 1171 c 0
 862 1171 862 1171 846 1167 c 0
 834 1165 819 1163 807 1163 c 0
 733 1163 697 1202 717 1268 c 0
 740 1338 802 1384 874 1384 c 0
 966 1384 1014 1304 981 1202 c 0
 952 1104 858 1000 729 922 c 1
 805 922 l 1
 784 856 l 1
 578 856 l 1
 397 270 l 2
 358 141 373 86 449 86 c 0
 494 86 535 107 594 158 c 1
 612 135 l 1
 512 29 419 -20 319 -20 c 0
 198 -20 164 68 217 240 c 2
 406 856 l 1
 297 856 l 1
 291 860 291 864 293 870 c 0
 295 880 313 895 340 909 c 1
 375 917 493 1015 604 1128 c 0
 627 1148 644 1168 664 1186 c 1
 676 1186 676 1179 670 1159 c 2
 598 922 l 1
 651 922 l 1
EndSplineSet
Ligature2: "'liga' Standard Ligatures in Latin lookup 1 subtable" t uni030C
EndChar

StartChar: udieresis
Encoding: 252 252 106
Width: 1024
Flags: HW
HStem: -20 119<423 431> -18 41 887 35<530 530> 893 29<18 18>
VStem: 18 203 145 172<246 254 254 762 762 809> 426 203 682 172<276 758 758 809>
LayerCount: 2
Fore
SplineSet
1012 102 m 1x15
 1004 74 l 1
 891 45 809 23 694 -18 c 1x45
 688 -14 l 1
 739 156 l 1
 625 68 l 2
 553 13 463 -20 387 -20 c 0
 237 -20 172 84 221 246 c 2
 379 762 l 2
 408 856 387 887 291 893 c 1
 301 922 l 1
 600 922 l 1x95
 395 254 l 2
 368 168 414 98 494 98 c 0
 555 98 624 123 694 168 c 0
 729 191 750 219 766 276 c 2
 913 758 l 2
 944 860 926 881 801 887 c 1xa5
 813 922 l 1
 1137 922 l 1
 922 219 l 2
 893 125 907 102 1001 102 c 2
 1012 102 l 1x15
655 1274 m 0x0a
 712 1274 745 1226 729 1171 c 0
 713 1116 651 1071 594 1071 c 0
 539 1071 510 1117 526 1174 c 0
 542 1227 604 1274 655 1274 c 0x0a
1063 1274 m 0
 1120 1274 1153 1226 1137 1171 c 0
 1121 1116 1058 1071 1001 1071 c 0
 946 1071 918 1117 934 1174 c 0
 950 1227 1012 1274 1063 1274 c 0
EndSplineSet
Ligature2: "'liga' Standard Ligatures in Latin lookup 1 subtable" u uni0308
EndChar

StartChar: uacute
Encoding: 250 250 107
Width: 1024
Flags: HW
HStem: -20 119<423 431> -18 41 887 35<530 530> 893 29<18 18> 1348 41<734 772>
VStem: 145 172<246 254 254 762 762 809> 682 172<276 758 758 809>
LayerCount: 2
Fore
SplineSet
1012 102 m 1x16
 1004 74 l 1
 891 45 809 23 694 -18 c 1x46
 688 -14 l 1
 739 156 l 1
 625 68 l 2
 553 13 463 -20 387 -20 c 0
 237 -20 172 84 221 246 c 2
 379 762 l 2
 408 856 387 887 291 893 c 1
 301 922 l 1
 600 922 l 1x96
 395 254 l 2
 368 168 414 98 494 98 c 0
 555 98 624 123 694 168 c 0
 729 191 750 219 766 276 c 2
 913 758 l 2
 944 860 926 881 801 887 c 1xa6
 813 922 l 1
 1137 922 l 1
 922 219 l 2
 893 125 907 102 1001 102 c 2
 1012 102 l 1x16
762 1038 m 1x08
 680 1038 l 1
 1073 1341 l 2
 1122 1378 1143 1389 1174 1389 c 0
 1219 1389 1239 1364 1227 1323 c 0
 1217 1290 1190 1264 1139 1237 c 2
 762 1038 l 1x08
EndSplineSet
Ligature2: "'liga' Standard Ligatures in Latin lookup 1 subtable" u acutecomb
EndChar

StartChar: ugrave
Encoding: 249 249 108
Width: 1024
Flags: HW
HStem: -20 119<423 431> -18 41 887 35<530 530> 893 29<18 18> 1348 41<214 251>
VStem: 145 172<246 254 254 762 762 809> 682 172<276 758 758 809>
LayerCount: 2
Fore
SplineSet
1012 102 m 1x16
 1004 74 l 1
 891 45 809 23 694 -18 c 1x46
 688 -14 l 1
 739 156 l 1
 625 68 l 2
 553 13 463 -20 387 -20 c 0
 237 -20 172 84 221 246 c 2
 379 762 l 2
 408 856 387 887 291 893 c 1
 301 922 l 1
 600 922 l 1x96
 395 254 l 2
 368 168 414 98 494 98 c 0
 555 98 624 123 694 168 c 0
 729 191 750 219 766 276 c 2
 913 758 l 2
 944 860 926 881 801 887 c 1xa6
 813 922 l 1
 1137 922 l 1
 922 219 l 2
 893 125 907 102 1001 102 c 2
 1012 102 l 1x16
940 1038 m 1x08
 858 1038 l 1
 604 1237 l 2
 573 1262 561 1292 571 1325 c 0
 583 1364 616 1389 659 1389 c 0
 690 1389 706 1378 731 1341 c 2
 940 1038 l 1x08
EndSplineSet
Ligature2: "'liga' Standard Ligatures in Latin lookup 1 subtable" u gravecomb
EndChar

StartChar: ucircumflex
Encoding: 251 251 109
Width: 1024
Flags: HW
HStem: -20 119<423 431> -18 41 887 35<530 530> 893 29<18 18> 1339 41<422 549 549 549>
VStem: 145 172<246 254 254 762 762 809> 682 172<276 758 758 809>
LayerCount: 2
Fore
SplineSet
1012 102 m 1x16
 1004 74 l 1
 891 45 809 23 694 -18 c 1x46
 688 -14 l 1
 739 156 l 1
 625 68 l 2
 553 13 463 -20 387 -20 c 0
 237 -20 172 84 221 246 c 2
 379 762 l 2
 408 856 387 887 291 893 c 1
 301 922 l 1
 600 922 l 1x96
 395 254 l 2
 368 168 414 98 494 98 c 0
 555 98 624 123 694 168 c 0
 729 191 750 219 766 276 c 2
 913 758 l 2
 944 860 926 881 801 887 c 1xa6
 813 922 l 1
 1137 922 l 1
 922 219 l 2
 893 125 907 102 1001 102 c 2
 1012 102 l 1x16
1122 1038 m 1x08
 1053 1038 l 1
 866 1249 l 1
 555 1038 l 1
 485 1038 l 1
 844 1380 l 1
 971 1380 l 1
 1122 1038 l 1x08
EndSplineSet
Ligature2: "'liga' Standard Ligatures in Latin lookup 1 subtable" u uni0302
EndChar

StartChar: uring
Encoding: 367 367 110
Width: 1024
Flags: HW
HStem: -20 119<387 494> 881 41G<301 600 813 1137> 1049 70<827 862> 1386 70<924 958>
LayerCount: 2
Fore
SplineSet
1012 102 m 1
 1004 74 l 1
 891 45 809 23 694 -18 c 1
 688 -14 l 1
 739 156 l 1
 625 68 l 2
 553 13 463 -20 387 -20 c 0
 237 -20 172 84 221 246 c 2
 379 762 l 2
 408 856 387 887 291 893 c 1
 301 922 l 1
 600 922 l 1
 395 254 l 2
 368 168 414 98 494 98 c 0
 555 98 624 123 694 168 c 0
 729 191 750 219 766 276 c 2
 913 758 l 2
 944 860 926 881 801 887 c 1
 813 922 l 1
 1137 922 l 1
 922 219 l 2
 893 125 907 102 1001 102 c 2
 1012 102 l 1
954 1456 m 0
 1067 1456 1133 1364 1098 1251 c 0
 1063 1138 944 1049 831 1049 c 0
 716 1049 655 1138 690 1253 c 0
 725 1364 843 1456 954 1456 c 0
936 1386 m 0
 862 1386 783 1327 760 1253 c 0
 737 1179 778 1118 850 1118 c 0
 926 1118 1005 1177 1028 1251 c 0
 1051 1325 1008 1386 936 1386 c 0
EndSplineSet
Ligature2: "'liga' Standard Ligatures in Latin lookup 1 subtable" u uni030A
EndChar

StartChar: uhungarumlaut
Encoding: 369 369 111
Width: 1024
Flags: HW
HStem: -20 119<387 494> 881 41G<301 600 813 1137> 1348 41G<962 999 1281 1319>
LayerCount: 2
Fore
SplineSet
1012 102 m 1
 1004 74 l 1
 891 45 809 23 694 -18 c 1
 688 -14 l 1
 739 156 l 1
 625 68 l 2
 553 13 463 -20 387 -20 c 0
 237 -20 172 84 221 246 c 2
 379 762 l 2
 408 856 387 887 291 893 c 1
 301 922 l 1
 600 922 l 1
 395 254 l 2
 368 168 414 98 494 98 c 0
 555 98 624 123 694 168 c 0
 729 191 750 219 766 276 c 2
 913 758 l 2
 944 860 926 881 801 887 c 1
 813 922 l 1
 1137 922 l 1
 922 219 l 2
 893 125 907 102 1001 102 c 2
 1012 102 l 1
885 1038 m 1
 803 1038 l 1
 1196 1341 l 2
 1245 1378 1265 1389 1296 1389 c 0
 1341 1389 1362 1364 1350 1323 c 0
 1340 1290 1313 1264 1262 1237 c 2
 885 1038 l 1
565 1038 m 1
 483 1038 l 1
 877 1341 l 2
 926 1378 946 1389 977 1389 c 0
 1022 1389 1042 1364 1030 1323 c 0
 1020 1290 993 1264 942 1237 c 2
 565 1038 l 1
EndSplineSet
Ligature2: "'liga' Standard Ligatures in Latin lookup 1 subtable" u uni030B
EndChar

StartChar: yacute
Encoding: 253 253 112
Width: 1024
Flags: HW
HStem: -446 172<23 240> 881 41<29 451 451 451 696 973 973 973> 1348 41<734 772>
LayerCount: 2
Fore
SplineSet
1255 922 m 1
 1245 891 l 1
 1194 885 1165 865 1118 799 c 1
 547 -37 l 2
 346 -332 213 -446 76 -446 c 0
 -10 -446 -59 -396 -39 -328 c 0
 -25 -279 31 -238 78 -238 c 0
 113 -238 143 -246 178 -260 c 0
 196 -270 213 -274 225 -274 c 0
 254 -274 311 -235 356 -182 c 0
 409 -121 496 8 506 39 c 0
 514 70 504 144 479 246 c 1
 467 307 l 1
 465 324 l 1
 387 827 l 2
 381 862 352 885 301 893 c 1
 311 922 l 1
 733 922 l 1
 723 891 l 1
 633 887 598 873 588 836 c 0
 580 813 580 787 584 758 c 2
 662 240 l 1
 1032 805 l 1
 1042 819 1049 832 1051 840 c 0
 1061 873 1035 891 969 891 c 1
 979 922 l 1
 1255 922 l 1
762 1038 m 1x20
 680 1038 l 1
 1073 1341 l 2
 1122 1378 1143 1389 1174 1389 c 0
 1219 1389 1239 1364 1227 1323 c 0
 1217 1290 1190 1264 1139 1237 c 2
 762 1038 l 1x20
EndSplineSet
Ligature2: "'liga' Standard Ligatures in Latin lookup 1 subtable" y acutecomb
EndChar

StartChar: zacute
Encoding: 378 378 113
Width: 909
Flags: HW
HStem: 0 61<293 827> 860 61<397 862> 1348 41G<1101 1139>
LayerCount: 2
Fore
SplineSet
940 276 m 1
 827 0 l 1
 55 0 l 1
 66 31 l 1
 862 860 l 1
 580 860 l 2
 457 860 417 830 354 680 c 1
 317 680 l 1
 397 922 l 1
 1108 922 l 1
 1098 891 l 1
 293 61 l 1
 575 61 l 2
 679 61 756 80 795 115 c 0
 832 150 854 183 905 285 c 1
 940 276 l 1
705 1038 m 1
 623 1038 l 1
 1016 1341 l 2
 1065 1378 1085 1389 1116 1389 c 0
 1161 1389 1181 1364 1169 1323 c 0
 1159 1290 1132 1264 1081 1237 c 2
 705 1038 l 1
EndSplineSet
Ligature2: "'liga' Standard Ligatures in Latin lookup 1 subtable" z acutecomb
EndChar

StartChar: zcaron
Encoding: 382 382 114
Width: 909
Flags: HW
HStem: 0 61<293 827> 860 61<397 862> 1339 41G<559 629 1126 1196>
LayerCount: 2
Fore
SplineSet
940 276 m 1
 827 0 l 1
 55 0 l 1
 66 31 l 1
 862 860 l 1
 580 860 l 2
 457 860 417 830 354 680 c 1
 317 680 l 1
 397 922 l 1
 1108 922 l 1
 1098 891 l 1
 293 61 l 1
 575 61 l 2
 679 61 756 80 795 115 c 0
 832 150 854 183 905 285 c 1
 940 276 l 1
1196 1380 m 1
 836 1038 l 1
 709 1038 l 1
 559 1380 l 1
 629 1380 l 1
 813 1169 l 1
 1126 1380 l 1
 1196 1380 l 1
EndSplineSet
Ligature2: "'liga' Standard Ligatures in Latin lookup 1 subtable" z uni030C
EndChar

StartChar: zdotaccent
Encoding: 380 380 115
Width: 909
Flags: HW
HStem: 0 61<293 827> 860 61<397 862> 1071 203<780 842>
LayerCount: 2
Fore
SplineSet
940 276 m 1
 827 0 l 1
 55 0 l 1
 66 31 l 1
 862 860 l 1
 580 860 l 2
 457 860 417 830 354 680 c 1
 317 680 l 1
 397 922 l 1
 1108 922 l 1
 1098 891 l 1
 293 61 l 1
 575 61 l 2
 679 61 756 80 795 115 c 0
 832 150 854 183 905 285 c 1
 940 276 l 1
842 1274 m 0
 899 1274 931 1226 915 1171 c 0
 899 1116 837 1071 780 1071 c 0
 725 1071 697 1117 713 1174 c 0
 729 1227 791 1274 842 1274 c 0
EndSplineSet
Ligature2: "'liga' Standard Ligatures in Latin lookup 1 subtable" z uni0307
EndChar

StartChar: ydieresis
Encoding: 255 255 116
Width: 1024
Flags: HW
HStem: -446 172<23 240> 881 41<29 451 451 451 696 973 973 973>
VStem: 29 203 436 203
LayerCount: 2
Fore
SplineSet
1255 922 m 1
 1245 891 l 1
 1194 885 1165 865 1118 799 c 1
 547 -37 l 2
 346 -332 213 -446 76 -446 c 0
 -10 -446 -59 -396 -39 -328 c 0
 -25 -279 31 -238 78 -238 c 0
 113 -238 143 -246 178 -260 c 0
 196 -270 213 -274 225 -274 c 0
 254 -274 311 -235 356 -182 c 0
 409 -121 496 8 506 39 c 0
 514 70 504 144 479 246 c 1
 467 307 l 1
 465 324 l 1
 387 827 l 2
 381 862 352 885 301 893 c 1
 311 922 l 1
 733 922 l 1
 723 891 l 1
 633 887 598 873 588 836 c 0
 580 813 580 787 584 758 c 2
 662 240 l 1
 1032 805 l 1
 1042 819 1049 832 1051 840 c 0
 1061 873 1035 891 969 891 c 1
 979 922 l 1
 1255 922 l 1
727 1274 m 0x30
 784 1274 817 1226 801 1171 c 0
 785 1116 723 1071 666 1071 c 0
 611 1071 582 1117 598 1174 c 0
 614 1227 676 1274 727 1274 c 0x30
1135 1274 m 0
 1192 1274 1224 1226 1208 1171 c 0
 1192 1116 1130 1071 1073 1071 c 0
 1018 1071 990 1117 1006 1174 c 0
 1022 1227 1084 1274 1135 1274 c 0
EndSplineSet
Ligature2: "'liga' Standard Ligatures in Latin lookup 1 subtable" y uni0308
EndChar

StartChar: tcommaaccent
Encoding: 355 355 117
Width: 569
Flags: HW
HStem: -291 213<219 242> -20 106<319 449> 856 66<598 784>
LayerCount: 2
Fore
SplineSet
805 922 m 1
 784 856 l 1
 578 856 l 1
 397 270 l 2
 358 141 373 86 449 86 c 0
 494 86 535 107 594 158 c 1
 612 135 l 1
 512 29 419 -20 319 -20 c 0
 198 -20 164 68 217 240 c 2
 406 856 l 1
 297 856 l 1
 291 860 291 864 293 870 c 0
 295 880 313 895 340 909 c 1
 375 917 493 1015 604 1128 c 0
 627 1148 644 1168 664 1186 c 1
 676 1186 676 1179 670 1159 c 2
 598 922 l 1
 805 922 l 1
20 -575 m 1
 14 -537 l 1
 147 -461 230 -385 248 -319 c 0
 254 -303 245 -291 229 -291 c 0
 227 -291 227 -291 211 -295 c 0
 199 -297 182 -299 170 -299 c 0
 96 -299 62 -261 82 -195 c 0
 102 -125 166 -78 238 -78 c 0
 330 -78 377 -158 346 -260 c 0
 309 -383 178 -507 20 -575 c 1
EndSplineSet
Ligature2: "'liga' Standard Ligatures in Latin lookup 1 subtable" t uni0327
EndChar

StartChar: amacron
Encoding: 257 257 118
Width: 909
Flags: HW
HStem: -20 117<250 453 717 852> -20 119<250 453 717 852> 893 49<391 482> 1120 111<137 774>
VStem: 115 170 588 166<252 549 549 549 598 614>
LayerCount: 2
Fore
SplineSet
946 135 m 1xac
 930 82 l 1
 836 4 785 -20 715 -20 c 0x8c
 631 -20 606 23 629 129 c 1
 471 23 375 -20 285 -20 c 0x4c
 160 -20 96 70 137 199 c 0
 157 267 207 336 264 377 c 0
 377 455 416 471 770 598 c 1
 809 723 l 2
 842 834 805 893 705 893 c 0
 623 893 544 848 526 793 c 0
 522 779 520 761 518 743 c 0
 516 729 514 719 512 711 c 0
 498 666 442 625 393 625 c 0
 346 625 318 666 332 713 c 0
 373 842 555 942 748 942 c 0
 869 942 944 903 967 829 c 0
 981 780 975 720 942 614 c 2
 819 215 l 2
 792 125 797 96 844 96 c 0
 875 96 903 106 946 135 c 1xac
666 252 m 2x4c
 756 549 l 1
 480 459 373 385 336 264 c 2
 334 256 l 2
 307 168 344 98 416 98 c 0
 459 98 521 116 580 145 c 0
 629 170 646 189 666 252 c 2x4c
514 1231 m 1x10
 1151 1231 l 1
 1116 1120 l 1
 479 1120 l 1
 514 1231 l 1x10
EndSplineSet
Ligature2: "'liga' Standard Ligatures in Latin lookup 1 subtable" a uni0304
EndChar

StartChar: emacron
Encoding: 275 275 119
Width: 909
Flags: HW
HStem: -20 141<428 555> 567 66<395 1004> 868 74<686 768> 1120 111<512 1116>
LayerCount: 2
Fore
SplineSet
938 336 m 1
 967 322 l 1
 813 101 623 -20 428 -20 c 0
 192 -20 98 155 184 438 c 0
 235 606 336 752 459 836 c 0
 557 906 666 942 768 942 c 0
 874 942 954 899 993 825 c 0
 1024 759 1029 700 1004 567 c 1
 373 567 l 1
 338 442 332 375 344 297 c 0
 369 180 438 121 555 121 c 0
 686 121 793 180 938 336 c 1
395 633 m 1
 813 633 l 1
 842 811 811 868 686 868 c 0
 561 868 467 793 395 633 c 1
514 1231 m 1
 1151 1231 l 1
 1116 1120 l 1
 479 1120 l 1
 514 1231 l 1
EndSplineSet
Ligature2: "'liga' Standard Ligatures in Latin lookup 1 subtable" e uni0304
EndChar

StartChar: imacron
Encoding: 299 299 120
Width: 569
Flags: HW
HStem: 0 43G<33 518> 1120 111<342 940>
LayerCount: 2
Fore
SplineSet
647 942 m 1
 653 936 l 1
 430 209 l 2
 385 62 395 41 528 31 c 1
 518 0 l 1
 33 0 l 1
 43 31 l 1
 186 39 213 62 258 209 c 2
 403 684 l 2
 432 774 422 807 373 807 c 0
 355 807 328 805 303 801 c 2
 285 799 l 1
 295 829 l 1
 647 942 l 1
344 1231 m 1
 975 1231 l 1
 940 1120 l 1
 309 1120 l 1
 344 1231 l 1
EndSplineSet
Ligature2: "'liga' Standard Ligatures in Latin lookup 1 subtable" i uni0304
EndChar

StartChar: kcommaaccent
Encoding: 311 311 121
Width: 1024
Flags: HW
HStem: -291 213<453 469> 0 31<596 1034> 891 31<848 1255>
LayerCount: 2
Fore
SplineSet
403 1276 m 1
 414 1309 l 1
 481 1325 l 2
 610 1358 674 1374 760 1399 c 1
 766 1395 l 1
 504 535 l 1
 860 784 l 2
 897 809 924 838 928 854 c 0
 938 883 918 891 838 893 c 1
 848 922 l 1
 1266 922 l 1
 1255 891 l 1
 1239 891 l 2
 1204 891 1174 887 1141 879 c 0
 1078 863 921 768 733 633 c 2
 657 578 l 1
 850 180 l 1
 903 76 956 37 1044 31 c 1
 1034 0 l 1
 588 0 l 1
 598 31 l 1
 637 31 l 2
 662 31 682 43 688 61 c 0
 692 71 690 84 680 104 c 0
 676 110 672 117 670 123 c 2
 668 131 l 1
 498 514 l 1
 381 137 l 2
 361 65 383 37 463 33 c 2
 504 31 l 1
 494 0 l 1
 14 0 l 1
 25 31 l 1
 179 56 186 62 219 168 c 2
 520 1155 l 2
 551 1253 539 1280 471 1280 c 0
 451 1280 432 1278 403 1276 c 1
248 -575 m 1
 242 -537 l 1
 375 -461 457 -385 475 -319 c 0
 481 -303 473 -291 457 -291 c 0
 455 -291 454 -291 438 -295 c 0
 426 -297 409 -299 397 -299 c 0
 323 -299 289 -261 309 -195 c 0
 329 -125 393 -78 465 -78 c 0
 557 -78 604 -158 573 -260 c 0
 536 -383 406 -507 248 -575 c 1
EndSplineSet
Ligature2: "'liga' Standard Ligatures in Latin lookup 1 subtable" k uni0327
EndChar

StartChar: lcommaaccent
Encoding: 316 316 122
Width: 569
Flags: HW
HStem: -291 213<225 242> 0 43G<43 526>
LayerCount: 2
Fore
SplineSet
428 1276 m 1
 438 1309 l 1
 592 1344 676 1364 793 1399 c 1
 799 1395 l 1
 426 172 l 2
 391 59 410 39 537 31 c 1
 526 0 l 1
 43 0 l 1
 53 31 l 1
 184 41 221 67 256 178 c 2
 553 1155 l 2
 584 1251 572 1280 506 1280 c 0
 490 1280 465 1278 440 1276 c 2
 428 1276 l 1
20 -575 m 1
 14 -537 l 1
 147 -461 230 -385 248 -319 c 0
 254 -303 245 -291 229 -291 c 0
 227 -291 227 -291 211 -295 c 0
 199 -297 182 -299 170 -299 c 0
 96 -299 62 -261 82 -195 c 0
 102 -125 166 -78 238 -78 c 0
 330 -78 377 -158 346 -260 c 0
 309 -383 178 -507 20 -575 c 1
EndSplineSet
Ligature2: "'liga' Standard Ligatures in Latin lookup 1 subtable" l uni0327
EndChar

StartChar: ncommaaccent
Encoding: 326 326 123
Width: 1024
Flags: HW
HStem: -291 213<453 469> 0 43G<37 471 567 993> 829 113<801 915>
LayerCount: 2
Fore
SplineSet
283 815 m 1
 293 850 l 1
 416 883 491 905 604 942 c 1
 616 938 l 1
 567 776 l 1
 745 907 821 942 915 942 c 0
 1067 942 1122 828 1063 635 c 2
 920 166 l 2
 889 66 906 41 1004 31 c 1
 993 0 l 1
 567 0 l 1
 578 31 l 1
 682 39 719 74 758 203 c 2
 889 631 l 2
 930 766 901 829 801 829 c 0
 733 829 680 805 553 713 c 1
 377 137 l 2
 354 63 379 39 481 31 c 1
 471 0 l 1
 37 0 l 1
 47 31 l 1
 153 39 184 67 221 184 c 2
 375 692 l 2
 406 792 397 823 340 823 c 0
 317 823 297 821 283 815 c 1
248 -575 m 1
 242 -537 l 1
 375 -461 457 -385 475 -319 c 0
 481 -303 473 -291 457 -291 c 0
 455 -291 454 -291 438 -295 c 0
 426 -297 409 -299 397 -299 c 0
 323 -299 289 -261 309 -195 c 0
 329 -125 393 -78 465 -78 c 0
 557 -78 604 -158 573 -260 c 0
 536 -383 406 -507 248 -575 c 1
EndSplineSet
Ligature2: "'liga' Standard Ligatures in Latin lookup 1 subtable" n uni0327
EndChar

StartChar: omacron
Encoding: 333 333 124
Width: 1024
Flags: HW
HStem: -20 57<502 545> 885 57<752 801> 1120 111<569 1174>
LayerCount: 2
Fore
SplineSet
801 942 m 0
 1063 942 1192 747 1110 479 c 0
 1022 196 760 -20 502 -20 c 0
 244 -20 117 187 201 463 c 0
 287 746 535 942 801 942 c 0
756 885 m 0
 611 885 475 758 416 563 c 0
 371 418 360 274 385 168 c 0
 403 86 465 37 545 37 c 0
 699 37 831 177 903 408 c 0
 989 689 928 885 756 885 c 0
571 1231 m 1
 1208 1231 l 1
 1174 1120 l 1
 537 1120 l 1
 571 1231 l 1
EndSplineSet
Ligature2: "'liga' Standard Ligatures in Latin lookup 1 subtable" o uni0304
EndChar

StartChar: rcommaaccent
Encoding: 343 343 125
Width: 681
Flags: HW
HStem: -291 213<201 217> 0 43G<10 502> 741 201<831 862>
LayerCount: 2
Fore
SplineSet
258 799 m 1
 268 831 l 1
 401 870 483 897 606 942 c 1
 614 938 l 1
 557 750 l 1
 702 895 776 942 862 942 c 0
 932 942 963 902 940 834 c 0
 924 777 883 741 834 741 c 0
 807 741 789 753 764 782 c 0
 748 802 731 813 719 813 c 0
 664 813 544 711 524 645 c 2
 385 184 l 2
 348 67 375 37 512 31 c 1
 502 0 l 1
 10 0 l 1
 20 31 l 1
 157 56 176 70 209 172 c 2
 365 684 l 2
 394 774 383 807 332 807 c 0
 307 807 289 805 258 799 c 1
-4 -575 m 1
 -10 -537 l 1
 123 -461 205 -385 223 -319 c 0
 229 -303 221 -291 205 -291 c 0
 203 -291 202 -291 186 -295 c 0
 174 -297 157 -299 145 -299 c 0
 71 -299 37 -261 57 -195 c 0
 77 -125 141 -78 213 -78 c 0
 305 -78 353 -158 322 -260 c 0
 285 -383 154 -507 -4 -575 c 1
EndSplineSet
Ligature2: "'liga' Standard Ligatures in Latin lookup 1 subtable" r uni0327
EndChar

StartChar: umacron
Encoding: 363 363 126
Width: 1024
Flags: HW
HStem: -20 119<387 494> 881 41G<301 600 813 1137> 1120 111<569 1174>
LayerCount: 2
Fore
SplineSet
1012 102 m 1
 1004 74 l 1
 891 45 809 23 694 -18 c 1
 688 -14 l 1
 739 156 l 1
 625 68 l 2
 553 13 463 -20 387 -20 c 0
 237 -20 172 84 221 246 c 2
 379 762 l 2
 408 856 387 887 291 893 c 1
 301 922 l 1
 600 922 l 1
 395 254 l 2
 368 168 414 98 494 98 c 0
 555 98 624 123 694 168 c 0
 729 191 750 219 766 276 c 2
 913 758 l 2
 944 860 926 881 801 887 c 1
 813 922 l 1
 1137 922 l 1
 922 219 l 2
 893 125 907 102 1001 102 c 2
 1012 102 l 1
571 1231 m 1
 1208 1231 l 1
 1174 1120 l 1
 537 1120 l 1
 571 1231 l 1
EndSplineSet
Ligature2: "'liga' Standard Ligatures in Latin lookup 1 subtable" u uni0304
EndChar

StartChar: uogonek
Encoding: 371 371 127
Width: 1024
Flags: HW
HStem: -338 115<692 770> -20 119<387 494> 881 41G<301 600 813 1137>
LayerCount: 2
Fore
SplineSet
1012 102 m 1
 1004 74 l 1
 938 60 905 47 854 12 c 0
 786 -33 731 -94 717 -143 c 0
 703 -190 725 -223 770 -223 c 0
 813 -223 858 -203 938 -150 c 1
 969 -182 l 1
 860 -291 776 -338 692 -338 c 0
 608 -338 563 -270 590 -182 c 0
 602 -139 625 -106 674 -59 c 1
 739 156 l 1
 625 68 l 2
 553 13 463 -20 387 -20 c 0
 237 -20 172 84 221 246 c 2
 379 762 l 2
 408 856 387 887 291 893 c 1
 301 922 l 1
 600 922 l 1
 395 254 l 2
 368 168 414 98 494 98 c 0
 555 98 624 123 694 168 c 0
 729 191 750 219 766 276 c 2
 913 758 l 2
 944 860 926 881 801 887 c 1
 813 922 l 1
 1137 922 l 1
 922 219 l 2
 893 125 907 102 1001 102 c 2
 1012 102 l 1
EndSplineSet
Ligature2: "'liga' Standard Ligatures in Latin lookup 1 subtable" u uni0328
EndChar

StartChar: rcaron
Encoding: 345 345 128
Width: 681
Flags: HW
HStem: 0 43G<10 502> 741 201<831 862> 1339 41G<444 514 1012 1081>
LayerCount: 2
Fore
SplineSet
258 799 m 1
 268 831 l 1
 401 870 483 897 606 942 c 1
 614 938 l 1
 557 750 l 1
 702 895 776 942 862 942 c 0
 932 942 963 902 940 834 c 0
 924 777 883 741 834 741 c 0
 807 741 789 753 764 782 c 0
 748 802 731 813 719 813 c 0
 664 813 544 711 524 645 c 2
 385 184 l 2
 348 67 375 37 512 31 c 1
 502 0 l 1
 10 0 l 1
 20 31 l 1
 157 56 176 70 209 172 c 2
 365 684 l 2
 394 774 383 807 332 807 c 0
 307 807 289 805 258 799 c 1
1081 1380 m 1
 721 1038 l 1
 594 1038 l 1
 444 1380 l 1
 514 1380 l 1
 698 1169 l 1
 1012 1380 l 1
 1081 1380 l 1
EndSplineSet
Ligature2: "'liga' Standard Ligatures in Latin lookup 1 subtable" r uni030C
EndChar

StartChar: scedilla
Encoding: 351 351 129
Width: 796
Flags: HW
HStem: -440 72<180 238> -205 78<266 377> -20 45<397 434> 16 295<184 211> 643 258<840 858> 895 45<633 696>
LayerCount: 2
Fore
SplineSet
399 -20 m 1xe4
 322 -133 l 1
 345 -129 357 -127 377 -127 c 0
 488 -127 537 -180 510 -268 c 0
 477 -374 359 -440 201 -440 c 0
 135 -440 90 -433 39 -408 c 1
 88 -344 l 1
 139 -362 170 -369 213 -369 c 0
 283 -369 336 -334 352 -279 c 0
 368 -226 344 -205 266 -205 c 0
 243 -205 225 -207 207 -213 c 1
 197 -203 l 1
 334 -12 l 1
 311 -8 299 -6 274 0 c 0
 229 12 202 16 184 16 c 0
 159 16 151 12 131 -8 c 1
 104 -8 l 1
 201 311 l 1
 233 311 l 1xd0
 225 194 229 147 256 96 c 0
 283 51 338 25 408 25 c 0
 512 25 594 82 623 172 c 0
 641 235 620 285 563 326 c 2
 465 393 l 2
 320 491 280 573 315 688 c 0
 360 835 508 940 670 940 c 0xe4
 723 940 766 931 807 915 c 0
 825 905 846 901 858 901 c 0
 866 901 868 904 891 918 c 2
 897 922 l 1
 920 922 l 1
 842 643 l 1
 811 643 l 1xc8
 819 825 781 895 664 895 c 0
 570 895 488 838 463 756 c 0
 447 701 461 649 508 616 c 2
 688 485 l 2
 788 411 817 344 786 242 c 0
 743 101 576 -20 422 -20 c 2
 399 -20 l 1xe4
EndSplineSet
Ligature2: "'liga' Standard Ligatures in Latin lookup 1 subtable" s uni0327
EndChar

StartChar: gcommaaccent
Encoding: 291 291 130
Width: 1024
Flags: HW
HStem: -446 117<274 399> -72 41G<572 716> 305 51<602 633> 795 80<1036 1206> 885 57<731 772> 1010 213<840 860>
LayerCount: 2
Fore
SplineSet
1206 795 m 1
 1036 795 l 1
 1044 729 1040 682 1022 623 c 0
 991 521 938 448 852 391 c 0
 772 336 682 305 606 305 c 0
 594 305 567 307 528 311 c 0
 522 311 510 313 492 315 c 1
 433 299 342 227 330 186 c 0
 320 153 364 135 473 131 c 2
 733 119 l 2
 883 113 952 27 913 -100 c 0
 888 -178 835 -244 737 -307 c 0
 604 -393 428 -446 274 -446 c 0
 79 -446 -51 -357 -18 -248 c 0
 5 -172 80 -104 258 2 c 1
 186 43 170 68 184 111 c 0
 196 152 236 193 322 252 c 0
 336 262 383 297 434 334 c 1
 319 402 289 479 328 608 c 0
 385 794 582 942 772 942 c 0
 825 942 877 931 926 911 c 2
 967 895 l 2
 1002 881 1032 874 1073 874 c 2
 1231 874 l 1
 1206 795 l 1
299 -4 m 1
 182 -106 159 -133 145 -180 c 0
 118 -270 219 -330 399 -330 c 0
 630 -330 811 -250 846 -131 c 0
 869 -57 809 -31 623 -31 c 0
 523 -31 362 -18 299 -4 c 1
522 692 m 2
 520 686 l 2
 461 489 506 356 629 356 c 0
 723 356 805 428 840 543 c 0
 865 623 868 716 854 788 c 0
 840 849 796 885 733 885 c 0
 639 885 559 813 522 692 c 2
1059 1507 m 1
 1065 1468 l 1
 932 1392 851 1319 831 1251 c 0
 825 1235 836 1223 852 1223 c 0
 854 1223 854 1223 868 1227 c 0
 880 1229 897 1231 909 1231 c 0
 983 1231 1017 1192 997 1126 c 0
 977 1056 914 1010 842 1010 c 0
 750 1010 702 1090 733 1192 c 0
 770 1315 901 1439 1059 1507 c 1
EndSplineSet
Ligature2: "'liga' Standard Ligatures in Latin lookup 1 subtable" g uni0327
EndChar

StartChar: iogonek
Encoding: 303 303 131
Width: 569
Flags: HW
HStem: -338 115<238 315> -41 41G<33 301> 0 43G<451 518> 1190 209<627 690>
LayerCount: 2
Fore
SplineSet
653 936 m 1
 430 209 l 2
 385 62 395 41 528 31 c 1
 518 0 l 1
 451 0 l 2
 373 0 285 -67 262 -143 c 0
 248 -188 270 -223 315 -223 c 0
 358 -223 403 -203 483 -150 c 1
 514 -182 l 1
 405 -291 322 -338 238 -338 c 0
 154 -338 108 -270 135 -182 c 0
 155 -114 203 -63 301 0 c 1
 33 0 l 1
 43 31 l 1
 186 39 213 62 258 209 c 2
 403 684 l 2
 432 774 422 807 373 807 c 0
 355 807 328 805 303 801 c 2
 285 799 l 1
 295 829 l 1
 647 942 l 1
 653 936 l 1
690 1399 m 0
 749 1399 782 1351 764 1294 c 0
 746 1235 686 1190 627 1190 c 0
 570 1190 539 1237 555 1294 c 0
 573 1351 635 1399 690 1399 c 0
EndSplineSet
Ligature2: "'liga' Standard Ligatures in Latin lookup 1 subtable" i uni0328
EndChar

StartChar: Scommaaccent
Encoding: 536 536 132
Width: 1138
Flags: HW
HStem: -291 213<510 526> -29 74<528 600> 41 367<211 262> 948 367<1198 1251> 1300 84<895 961>
LayerCount: 2
Fore
SplineSet
1339 1384 m 1x88
 1251 948 l 1
 1200 948 l 1x90
 1204 1069 1192 1122 1147 1188 c 0
 1098 1262 1024 1300 932 1300 c 0
 805 1300 697 1223 662 1110 c 0
 627 999 686 910 864 791 c 0
 1089 646 1161 512 1110 344 c 0
 1047 133 816 -29 580 -29 c 0xc8
 498 -29 420 -13 352 18 c 0
 317 32 285 41 262 41 c 0
 231 41 198 12 184 -27 c 1
 139 -27 l 1
 211 408 l 1
 258 408 l 1xa0
 285 158 379 45 561 45 c 0
 711 45 842 139 883 276 c 0
 899 325 901 368 891 395 c 0
 864 473 782 557 659 635 c 0
 466 756 412 870 461 1034 c 0
 494 1140 557 1227 649 1290 c 0
 733 1349 836 1384 924 1384 c 0xc8
 990 1384 1058 1368 1126 1339 c 1
 1157 1323 1188 1315 1208 1315 c 0x90
 1243 1315 1273 1337 1296 1384 c 1
 1339 1384 l 1x88
305 -575 m 1
 299 -537 l 1
 432 -461 514 -385 532 -319 c 0
 538 -303 530 -291 514 -291 c 0
 512 -291 512 -291 496 -295 c 0
 484 -297 467 -299 455 -299 c 0
 381 -299 347 -261 367 -195 c 0
 387 -125 450 -78 522 -78 c 0
 614 -78 662 -158 631 -260 c 0
 594 -383 463 -507 305 -575 c 1
EndSplineSet
Ligature2: "'liga' Standard Ligatures in Latin lookup 1 subtable" S uni0326
EndChar

StartChar: A
Encoding: 65 65 133
Width: 1478
Flags: HW
HStem: 0 39<422 449 936 982> 442 84<604 1079> 1339 41G<1133 1174>
LayerCount: 2
Fore
SplineSet
1458 39 m 1
 1446 0 l 1
 924 0 l 1
 936 39 l 1
 1045 41 1086 58 1100 109 c 0
 1108 138 1110 191 1104 246 c 2
 1079 442 l 1
 543 442 l 1
 375 203 l 2
 357 176 342 148 334 123 c 0
 318 66 351 39 449 39 c 1
 436 0 l 1
 31 0 l 1
 43 39 l 1
 141 43 176 76 399 375 c 1
 1133 1380 l 1
 1174 1380 l 1
 1327 217 l 1
 1354 65 1368 45 1458 39 c 1
604 526 m 1
 1077 526 l 1
 1012 1090 l 1
 604 526 l 1
EndSplineSet
EndChar

StartChar: B
Encoding: 66 66 134
Width: 1366
Flags: HW
HStem: 0 76<557 719> 668 82<645 776> 1280 76<449 1024>
LayerCount: 2
Fore
SplineSet
449 1356 m 1
 1022 1356 l 2
 1376 1356 1524 1237 1452 1008 c 0
 1427 924 1375 848 1309 803 c 0
 1246 760 1196 740 1081 713 c 1
 1206 680 1253 655 1298 600 c 0
 1343 541 1354 459 1327 369 c 0
 1296 271 1229 179 1135 113 c 0
 1037 43 879 0 719 0 c 2
 35 0 l 1
 47 39 l 1
 219 45 254 71 299 223 c 2
 578 1133 l 2
 625 1285 606 1307 438 1317 c 1
 449 1356 l 1
645 668 m 1
 489 160 l 2
 469 94 492 76 592 76 c 0
 727 76 817 92 893 129 c 0
 989 176 1057 256 1092 367 c 0
 1131 496 1099 578 999 627 c 0
 933 658 844 668 645 668 c 1
670 750 m 1
 864 750 l 2
 1057 750 1192 839 1241 999 c 0
 1296 1181 1203 1280 967 1280 c 2
 877 1280 l 2
 846 1280 825 1262 813 1219 c 2
 670 750 l 1
EndSplineSet
EndChar

StartChar: C
Encoding: 67 67 135
Width: 1366
Flags: HW
HStem: -29 90<729 821> 922 395<1503 1552> 1303 82<1137 1206>
LayerCount: 2
Fore
SplineSet
1552 922 m 1xc0
 1505 922 l 1xc0
 1505 1055 1493 1112 1448 1178 c 0
 1391 1260 1297 1303 1180 1303 c 0
 883 1303 621 1063 506 692 c 0
 436 465 444 280 526 180 c 0
 589 102 692 61 821 61 c 0
 991 61 1144 123 1341 268 c 1
 1368 231 l 1
 1192 65 960 -29 729 -29 c 0
 526 -29 361 49 279 182 c 0
 211 299 203 476 260 666 c 0
 330 891 465 1081 647 1208 c 0
 809 1321 999 1384 1167 1384 c 0xa0
 1263 1384 1360 1368 1450 1335 c 0
 1479 1323 1508 1317 1526 1317 c 0xc0
 1567 1317 1605 1341 1632 1384 c 1
 1675 1384 l 1xa0
 1552 922 l 1xc0
EndSplineSet
EndChar

StartChar: D
Encoding: 68 68 136
Width: 1478
Flags: HW
HStem: 0 76<522 625> 1280 76<446 983>
LayerCount: 2
Fore
SplineSet
281 223 m 2
 559 1133 l 2
 606 1285 592 1303 436 1317 c 1
 446 1356 l 1
 999 1356 l 2
 1280 1356 1481 1282 1577 1141 c 0
 1655 1028 1669 868 1612 684 c 0
 1551 485 1419 303 1249 182 c 0
 1087 67 852 0 614 0 c 2
 33 0 l 1
 45 39 l 1
 203 49 236 76 281 223 c 2
788 1200 m 2
 471 160 l 2
 451 94 469 76 551 76 c 0
 729 76 856 101 979 160 c 0
 1174 256 1310 428 1384 670 c 0
 1452 891 1421 1067 1296 1178 c 0
 1218 1248 1096 1280 920 1280 c 0
 836 1280 808 1263 788 1200 c 2
EndSplineSet
EndChar

StartChar: E
Encoding: 69 69 137
Width: 1251
Flags: HW
HStem: 0 76<580 1130> 670 84<643 977> 907 41G<1243 1290> 1063 293<438 1444> 1278 78<438 1206>
LayerCount: 2
Fore
SplineSet
1329 346 m 1xe8
 1130 0 l 1
 25 0 l 1
 37 39 l 1
 189 49 227 80 270 223 c 2
 549 1133 l 2
 592 1276 575 1305 428 1317 c 1
 438 1356 l 1xf0
 1526 1356 l 1xe8
 1444 1063 l 1
 1393 1063 l 1xf0
 1413 1247 1378 1278 1147 1278 c 2
 870 1278 l 2
 815 1278 798 1265 780 1208 c 2
 643 754 l 1
 958 754 l 2
 1054 754 1116 770 1153 805 c 0
 1184 834 1202 864 1243 948 c 1
 1290 948 l 1
 1145 473 l 1
 1098 473 l 1
 1123 643 1100 670 932 670 c 2
 616 670 l 1
 461 164 l 2
 451 129 449 106 457 100 c 1
 467 86 549 76 649 76 c 2
 705 76 l 2
 998 76 1102 125 1272 346 c 1
 1329 346 l 1xe8
EndSplineSet
EndChar

StartChar: F
Encoding: 70 70 138
Width: 1138
Flags: HW
HStem: 0 43G<25 598> 670 84<643 944> 907 41G<1225 1272> 1063 293<438 1444> 1278 78<438 1229>
LayerCount: 2
Fore
SplineSet
1126 473 m 1xe8
 1079 473 l 1
 1104 639 1079 670 913 670 c 2
 616 670 l 1
 479 223 l 2
 434 76 454 47 610 39 c 1
 598 0 l 1
 25 0 l 1
 37 39 l 1
 195 49 226 76 279 246 c 2
 549 1133 l 2
 592 1276 575 1305 428 1317 c 1
 438 1356 l 1xf0
 1526 1356 l 1xe8
 1444 1063 l 1
 1393 1063 l 1xf0
 1413 1247 1378 1278 1147 1278 c 2
 868 1278 l 2
 813 1278 798 1265 780 1208 c 2
 643 754 l 1
 940 754 l 2
 1104 754 1149 784 1225 948 c 1
 1272 948 l 1
 1126 473 l 1xe8
EndSplineSet
EndChar

StartChar: G
Encoding: 71 71 139
Width: 1478
Flags: HW
HStem: -29 82<786 854> 952 365<1532 1581> 1303 82<1153 1245>
LayerCount: 2
Fore
SplineSet
1673 725 m 1xa0
 1663 688 l 1
 1540 678 1507 651 1470 530 c 2
 1343 115 l 1
 1239 43 962 -29 786 -29 c 0
 561 -29 387 49 293 190 c 0
 215 311 207 465 268 666 c 0
 397 1084 782 1384 1192 1384 c 0xa0
 1284 1384 1372 1368 1456 1337 c 0
 1489 1323 1520 1317 1540 1317 c 0xc0
 1583 1317 1628 1345 1653 1384 c 1
 1698 1384 l 1xa0
 1581 952 l 1
 1534 952 l 1xc0
 1522 1077 1505 1133 1462 1190 c 0
 1405 1264 1315 1303 1200 1303 c 0
 1061 1303 918 1247 797 1147 c 0
 676 1047 561 861 504 668 c 0
 387 287 520 53 854 53 c 0
 1001 53 1143 108 1163 174 c 2
 1266 506 l 2
 1293 594 1295 641 1268 659 c 0
 1250 675 1227 682 1141 688 c 1
 1151 725 l 1
 1673 725 l 1xa0
EndSplineSet
EndChar

StartChar: H
Encoding: 72 72 140
Width: 1478
Flags: HW
HStem: 645 90<653 1245>
LayerCount: 2
Fore
SplineSet
653 735 m 1
 1274 735 l 1
 1395 1133 l 2
 1440 1280 1424 1303 1272 1317 c 1
 1282 1356 l 1
 1851 1356 l 1
 1841 1317 l 1
 1677 1303 1649 1280 1604 1133 c 2
 1325 223 l 2
 1282 78 1300 51 1450 39 c 1
 1438 0 l 1
 868 0 l 1
 881 39 l 1
 1043 49 1071 74 1124 246 c 2
 1245 645 l 1
 625 645 l 1
 496 223 l 2
 453 78 471 51 621 39 c 1
 608 0 l 1
 39 0 l 1
 51 39 l 1
 213 49 242 74 295 246 c 2
 565 1133 l 2
 610 1280 594 1303 442 1317 c 1
 453 1356 l 1
 1022 1356 l 1
 1012 1317 l 1
 848 1303 819 1280 774 1133 c 2
 653 735 l 1
EndSplineSet
EndChar

StartChar: I
Encoding: 73 73 141
Width: 681
Flags: HW
HStem: 0 43G<37 645> 1315 41G<451 1059>
LayerCount: 2
Fore
SplineSet
303 223 m 2
 582 1133 l 2
 629 1285 610 1307 440 1317 c 1
 451 1356 l 1
 1059 1356 l 1
 1049 1317 l 1
 873 1309 836 1283 791 1133 c 2
 512 223 l 2
 467 73 491 45 657 39 c 1
 645 0 l 1
 37 0 l 1
 49 39 l 1
 223 45 256 69 303 223 c 2
EndSplineSet
EndChar

StartChar: J
Encoding: 74 74 142
Width: 796
Flags: HW
HStem: -29 250<180 215> 1315 41G<584 1171>
LayerCount: 2
Fore
SplineSet
915 1133 m 2
 684 375 l 2
 606 119 436 -29 215 -29 c 0
 96 -29 30 33 57 119 c 0
 73 174 133 221 188 221 c 0
 241 221 264 189 262 117 c 0
 262 66 268 49 297 49 c 0
 350 49 389 92 418 184 c 2
 707 1133 l 2
 752 1283 737 1305 573 1317 c 1
 584 1356 l 1
 1171 1356 l 1
 1161 1317 l 1
 991 1305 960 1283 915 1133 c 2
EndSplineSet
EndChar

StartChar: K
Encoding: 75 75 143
Width: 1478
Flags: HW
HStem: 0 41<868 1481> 1315 41<1257 1300>
LayerCount: 2
Fore
SplineSet
1249 1317 m 1
 1260 1356 l 1
 1796 1356 l 1
 1786 1317 l 1
 1643 1307 1605 1290 1425 1157 c 1
 918 772 l 1
 1239 260 l 2
 1364 61 1387 41 1493 39 c 1
 1481 0 l 1
 856 0 l 1
 868 39 l 1
 893 41 916 41 926 41 c 0
 983 43 1018 57 1026 86 c 0
 1040 135 975 280 866 434 c 2
 715 649 l 1
 647 606 l 1
 530 223 l 2
 485 73 501 49 659 39 c 1
 647 0 l 1
 70 0 l 1
 82 39 l 1
 246 49 277 76 330 246 c 2
 600 1133 l 2
 645 1278 629 1305 473 1317 c 1
 483 1356 l 1
 1065 1356 l 1
 1055 1317 l 1
 885 1305 854 1283 809 1133 c 2
 680 713 l 1
 1145 1042 l 2
 1288 1146 1354 1208 1368 1253 c 0
 1380 1294 1361 1311 1300 1315 c 0
 1292 1315 1272 1315 1249 1317 c 1
EndSplineSet
EndChar

StartChar: L
Encoding: 76 76 144
Width: 1251
Flags: HW
HStem: 0 80<545 1126> 1315 41G<438 1016>
LayerCount: 2
Fore
SplineSet
1282 356 m 1
 1333 356 l 1
 1126 0 l 1
 25 0 l 1
 37 39 l 1
 189 49 227 80 270 223 c 2
 549 1133 l 2
 592 1276 575 1305 428 1317 c 1
 438 1356 l 1
 1016 1356 l 1
 1006 1317 l 1
 840 1307 803 1278 758 1133 c 2
 461 164 l 2
 441 92 462 80 612 80 c 2
 750 80 l 2
 920 80 1043 117 1139 197 c 0
 1182 232 1225 278 1282 356 c 1
EndSplineSet
EndChar

StartChar: M
Encoding: 77 77 145
Width: 1820
Flags: HW
HStem: 0 43G<25 506 827 856 1194 1767> 1315 41G<442 848 1774 2181>
LayerCount: 2
Fore
SplineSet
1739 1174 m 1
 856 0 l 1
 827 0 l 1
 657 1126 l 1
 406 301 l 2
 343 94 362 47 518 39 c 1
 506 0 l 1
 25 0 l 1
 37 39 l 1
 211 51 249 90 315 301 c 2
 569 1133 l 2
 614 1283 596 1307 432 1317 c 1
 442 1356 l 1
 848 1356 l 1
 1006 322 l 1
 1774 1356 l 1
 2181 1356 l 1
 2171 1317 l 1
 2015 1305 1980 1278 1935 1133 c 2
 1657 223 l 2
 1614 78 1633 49 1780 39 c 1
 1767 0 l 1
 1194 0 l 1
 1206 39 l 1
 1370 49 1403 76 1456 246 c 2
 1739 1174 l 1
EndSplineSet
EndChar

StartChar: N
Encoding: 78 78 146
Width: 1478
Flags: HW
HStem: -23 43G<1212 1247> 1317 39<438 471>
LayerCount: 2
Fore
SplineSet
1247 -23 m 1
 1212 -23 l 1
 651 1104 l 1
 406 301 l 2
 343 94 362 47 518 39 c 1
 506 0 l 1
 25 0 l 1
 37 39 l 1
 211 51 249 90 315 301 c 2
 592 1204 l 1
 539 1300 516 1317 428 1317 c 1
 438 1356 l 1
 788 1356 l 1
 1274 365 l 1
 1485 1055 l 2
 1524 1182 1528 1255 1497 1284 c 0
 1470 1302 1446 1311 1370 1317 c 1
 1380 1356 l 1
 1862 1356 l 1
 1851 1317 l 1
 1769 1309 1739 1300 1704 1280 c 0
 1657 1253 1614 1178 1575 1055 c 2
 1247 -23 l 1
EndSplineSet
EndChar

StartChar: O
Encoding: 79 79 147
Width: 1478
Flags: HW
HStem: -29 74<715 764> 1311 74<1120 1167>
LayerCount: 2
Fore
SplineSet
1163 1384 m 0
 1360 1384 1509 1310 1595 1169 c 0
 1669 1046 1675 873 1614 670 c 0
 1489 258 1122 -29 719 -29 c 0
 539 -29 381 51 301 180 c 0
 227 299 217 485 276 678 c 0
 403 1090 772 1384 1163 1384 c 0
1141 1311 m 0
 1028 1311 913 1266 807 1178 c 0
 690 1082 573 883 510 674 c 0
 440 447 444 239 522 145 c 0
 573 82 656 45 750 45 c 0
 859 45 961 82 1055 154 c 0
 1116 201 1167 252 1200 303 c 0
 1274 409 1343 551 1380 672 c 0
 1456 916 1450 1108 1370 1208 c 0
 1317 1274 1235 1311 1141 1311 c 0
EndSplineSet
EndChar

StartChar: P
Encoding: 80 80 148
Width: 1138
Flags: HW
HStem: 0 43G<33 606> 590 82<735 788> 1280 76<446 920>
LayerCount: 2
Fore
SplineSet
596 596 m 1
 481 223 l 2
 436 73 458 45 618 39 c 1
 606 0 l 1
 33 0 l 1
 45 39 l 1
 205 53 228 74 281 246 c 2
 551 1133 l 2
 596 1280 581 1301 436 1317 c 1
 446 1356 l 1
 987 1356 l 2
 1180 1356 1342 1298 1395 1208 c 0
 1434 1149 1438 1071 1411 985 c 0
 1370 850 1257 725 1114 659 c 0
 1012 610 895 590 735 590 c 0
 682 590 647 592 596 596 c 1
784 1210 m 2
 621 678 l 1
 668 674 694 672 735 672 c 0
 971 672 1125 774 1184 973 c 0
 1250 1184 1150 1280 874 1280 c 0
 819 1280 800 1265 784 1210 c 2
EndSplineSet
EndChar

StartChar: Q
Encoding: 81 81 149
Width: 1478
Flags: HW
HStem: -365 410<754 1241> 1311 74<1118 1167>
LayerCount: 2
Fore
SplineSet
1335 -326 m 1
 1325 -362 l 1
 1313 -362 l 2
 1290 -364 1272 -365 1241 -365 c 0
 915 -365 694 -277 604 -115 c 2
 543 -2 l 1
 412 47 358 88 305 174 c 0
 225 305 215 473 276 674 c 0
 403 1090 772 1384 1163 1384 c 0
 1554 1384 1743 1090 1616 678 c 0
 1546 451 1412 264 1219 129 c 0
 1100 47 1015 13 868 -14 c 1
 968 -229 1104 -320 1335 -326 c 1
1147 1311 m 0
 1028 1311 918 1268 807 1178 c 0
 694 1084 573 883 512 686 c 0
 440 446 442 241 522 145 c 0
 575 79 656 45 754 45 c 0
 867 45 987 92 1087 176 c 0
 1198 270 1323 479 1384 682 c 0
 1454 913 1450 1110 1368 1208 c 0
 1317 1271 1235 1311 1147 1311 c 0
EndSplineSet
EndChar

StartChar: R
Encoding: 82 82 150
Width: 1366
Flags: HW
HStem: 0 43G<35 602 1020 1350> 1280 76<449 954>
LayerCount: 2
Fore
SplineSet
1362 39 m 1
 1350 0 l 1
 1020 0 l 1
 725 631 l 1
 610 627 l 1
 485 223 l 2
 440 76 458 49 614 39 c 1
 602 0 l 1
 35 0 l 1
 47 39 l 1
 205 51 232 76 285 246 c 2
 555 1133 l 2
 600 1278 585 1301 438 1317 c 1
 449 1356 l 1
 1014 1356 l 2
 1207 1356 1360 1303 1413 1219 c 0
 1448 1160 1452 1083 1425 995 c 0
 1394 899 1329 813 1247 760 c 0
 1163 705 1095 680 950 653 c 1
 1212 135 l 1
 1251 65 1286 45 1362 39 c 1
786 1206 m 2
 633 702 l 1
 830 706 905 719 1016 772 c 0
 1102 811 1171 897 1202 999 c 0
 1261 1192 1169 1280 913 1280 c 0
 831 1280 804 1263 786 1206 c 2
EndSplineSet
EndChar

StartChar: S
Encoding: 83 83 151
Width: 1138
Flags: HW
HStem: -27 43G<139 184> 41 4<262 561> 41 367<211 262> 948 367<1198 1251> 1300 84<895 961>
LayerCount: 2
Fore
SplineSet
1339 1384 m 1x88
 1251 948 l 1
 1200 948 l 1x90
 1204 1069 1192 1122 1147 1188 c 0
 1098 1262 1024 1300 932 1300 c 0
 805 1300 697 1223 662 1110 c 0
 627 999 686 910 864 791 c 0
 1089 646 1161 512 1110 344 c 0
 1047 133 816 -29 580 -29 c 0
 498 -29 420 -13 352 18 c 0
 317 32 285 41 262 41 c 0xc8
 231 41 198 12 184 -27 c 1
 139 -27 l 1
 211 408 l 1
 258 408 l 1xa0
 285 158 379 45 561 45 c 0
 711 45 842 139 883 276 c 0
 899 325 901 368 891 395 c 0
 864 473 782 557 659 635 c 0
 466 756 412 870 461 1034 c 0
 494 1140 557 1227 649 1290 c 0
 733 1349 836 1384 924 1384 c 0xc8
 990 1384 1058 1368 1126 1339 c 1
 1157 1323 1188 1315 1208 1315 c 0x90
 1243 1315 1273 1337 1296 1384 c 1
 1339 1384 l 1x88
EndSplineSet
EndChar

StartChar: T
Encoding: 84 84 152
Width: 1251
Flags: HW
HStem: 0 43G<328 926> 1270 86<461 909 461 1280>
LayerCount: 2
Fore
SplineSet
909 1270 m 1
 799 1270 l 2
 570 1270 510 1231 391 1008 c 1
 342 1008 l 1
 461 1356 l 1
 1616 1356 l 1
 1522 1008 l 1
 1473 1008 l 1
 1496 1233 1462 1270 1229 1270 c 2
 1118 1270 l 1
 797 223 l 2
 752 73 772 47 938 39 c 1
 926 0 l 1
 328 0 l 1
 340 39 l 1
 512 49 543 72 596 246 c 2
 909 1270 l 1
EndSplineSet
EndChar

StartChar: U
Encoding: 85 85 153
Width: 1478
Flags: HW
HStem: -29 90<719 793> 1315 41G<442 1022 1382 1858>
LayerCount: 2
Fore
SplineSet
1573 1055 m 2
 1411 520 l 2
 1362 362 1315 268 1239 182 c 0
 1116 43 942 -29 719 -29 c 0
 371 -29 256 140 365 494 c 2
 559 1133 l 2
 604 1283 590 1305 432 1317 c 1
 442 1356 l 1
 1022 1356 l 1
 1012 1317 l 1
 842 1303 813 1280 768 1133 c 2
 567 477 l 2
 528 348 521 273 537 207 c 0
 564 111 648 61 793 61 c 0
 947 61 1098 125 1182 223 c 0
 1233 284 1272 363 1315 502 c 2
 1483 1055 l 2
 1546 1260 1528 1305 1372 1317 c 1
 1382 1356 l 1
 1858 1356 l 1
 1847 1317 l 1
 1673 1297 1639 1264 1573 1055 c 2
EndSplineSet
EndChar

StartChar: V
Encoding: 86 86 154
Width: 1478
Flags: HW
HStem: -23 43G<748 778> 1313 43<446 930>
LayerCount: 2
Fore
SplineSet
1841 1356 m 1
 1831 1317 l 1
 1731 1311 1700 1288 1583 1126 c 1
 778 -23 l 1
 748 -23 l 1
 586 1102 l 1
 555 1284 534 1313 436 1317 c 1
 446 1356 l 1
 991 1356 l 1
 981 1317 l 1
 950 1315 928 1313 920 1313 c 0
 852 1309 817 1288 805 1249 c 0
 797 1218 798 1172 821 1022 c 2
 918 330 l 1
 1448 1081 l 2
 1493 1142 1524 1198 1534 1231 c 0
 1550 1288 1522 1311 1411 1317 c 1
 1421 1356 l 1
 1841 1356 l 1
EndSplineSet
EndChar

StartChar: W
Encoding: 87 87 155
Width: 1933
Flags: HW
HStem: -23 43G<610 641 1284 1315> 1317 39<1044 1071 1055 1591>
LayerCount: 2
Fore
SplineSet
2322 1356 m 1
 2312 1317 l 1
 2197 1297 2169 1277 2097 1171 c 0
 1689 569 1651 512 1315 -23 c 1
 1284 -23 l 1
 1221 844 l 1
 641 -23 l 1
 610 -23 l 1
 551 1077 l 1
 535 1270 514 1307 414 1317 c 1
 424 1356 l 1
 926 1356 l 1
 915 1317 l 1
 809 1311 776 1296 762 1251 c 0
 754 1228 752 1194 756 1157 c 2
 815 387 l 1
 1210 965 l 1
 1194 1133 l 1
 1176 1297 1159 1315 1044 1317 c 1
 1055 1356 l 1
 1602 1356 l 1
 1591 1317 l 1
 1478 1315 1425 1294 1411 1245 c 0
 1405 1222 1405 1184 1409 1141 c 0
 1409 1135 1415 1089 1415 1079 c 2
 1473 381 l 1
 1942 1075 l 2
 1979 1132 2007 1186 2019 1229 c 0
 2037 1284 2007 1307 1907 1317 c 1
 1917 1356 l 1
 2322 1356 l 1
EndSplineSet
EndChar

StartChar: X
Encoding: 88 88 156
Width: 1478
Flags: HW
HStem: 0 43<868 1442> 1315 41G<459 1077 1352 1839>
LayerCount: 2
Fore
SplineSet
1839 1356 m 1
 1829 1317 l 1
 1694 1309 1646 1284 1464 1124 c 1
 1051 752 l 1
 1272 190 l 1
 1325 71 1350 51 1454 39 c 1
 1442 0 l 1
 834 0 l 1
 846 39 l 1
 871 41 893 43 901 43 c 0
 973 45 1012 65 1022 102 c 0
 1032 133 1016 203 979 303 c 2
 872 590 l 1
 537 287 l 2
 433 193 385 142 377 111 c 0
 361 64 393 47 510 39 c 1
 498 0 l 1
 20 0 l 1
 33 39 l 1
 139 47 151 55 401 272 c 1
 844 668 l 1
 721 995 l 1
 606 1280 580 1311 449 1317 c 1
 459 1356 l 1
 1077 1356 l 1
 1067 1317 l 1
 1008 1315 l 2
 940 1313 905 1296 891 1255 c 0
 879 1210 901 1122 973 948 c 2
 1022 827 l 1
 1339 1110 l 2
 1421 1184 1454 1220 1464 1251 c 0
 1478 1298 1450 1313 1341 1317 c 1
 1352 1356 l 1
 1839 1356 l 1
EndSplineSet
EndChar

StartChar: Y
Encoding: 89 89 157
Width: 1478
Flags: HW
HStem: 0 39<1024 1077> 1315 41<459 1024 1395 1423>
LayerCount: 2
Fore
SplineSet
1853 1356 m 1
 1843 1317 l 1
 1734 1309 1669 1263 1489 1083 c 1
 1044 621 l 1
 922 223 l 2
 875 67 895 43 1077 39 c 1
 1065 0 l 1
 438 0 l 1
 451 39 l 1
 639 47 666 68 721 246 c 2
 829 602 l 1
 682 995 l 1
 565 1284 545 1313 449 1317 c 1
 459 1356 l 1
 1032 1356 l 1
 1022 1317 l 1
 997 1315 977 1315 969 1315 c 0
 903 1311 868 1292 856 1255 c 0
 850 1232 852 1198 864 1165 c 2
 1028 711 l 1
 1462 1174 l 2
 1491 1205 1507 1229 1513 1249 c 0
 1529 1298 1499 1315 1395 1317 c 1
 1405 1356 l 1
 1853 1356 l 1
EndSplineSet
EndChar

StartChar: Z
Encoding: 90 90 158
Width: 1251
Flags: HW
HStem: 0 78<322 1174> 1278 78<518 1305>
LayerCount: 2
Fore
SplineSet
1286 360 m 1
 1333 360 l 1
 1174 0 l 1
 18 0 l 1
 29 31 l 1
 1305 1278 l 1
 852 1278 l 2
 717 1278 614 1249 551 1190 c 0
 502 1147 473 1106 424 1006 c 1
 371 1006 l 1
 518 1356 l 1
 1595 1356 l 1
 1587 1325 l 1
 322 78 l 1
 848 78 l 2
 965 78 1062 107 1128 158 c 0
 1181 203 1216 245 1286 360 c 1
EndSplineSet
EndChar

StartChar: AE
Encoding: 198 198 159
Width: 1820
Flags: HW
HStem: 0 78<1112 1677> 532 80<676 977> 674 76<1247 1542> 907 41G<1806 1849> 1067 289<930 1997> 1282 74<930 1739>
LayerCount: 2
Fore
SplineSet
1997 1067 m 1xf8
 1950 1067 l 1xf8
 1981 1253 1941 1282 1642 1282 c 2
 1464 1282 l 2xf4
 1425 1282 1405 1266 1391 1221 c 2
 1247 750 l 1
 1475 750 l 2
 1604 750 1681 768 1726 811 c 0
 1757 842 1773 872 1806 948 c 1
 1849 948 l 1
 1702 469 l 1
 1659 469 l 1
 1675 553 1675 583 1663 616 c 0
 1649 653 1600 674 1522 674 c 2
 1225 674 l 1
 1075 186 l 2
 1044 84 1051 78 1184 78 c 2
 1339 78 l 2
 1560 78 1637 119 1823 344 c 1
 1872 344 l 1
 1677 0 l 1
 633 0 l 1
 645 39 l 1
 680 43 l 2
 809 57 842 86 883 221 c 2
 977 532 l 1
 616 532 l 1
 526 424 l 2
 395 264 311 145 297 100 c 0
 287 69 332 47 418 39 c 2
 420 39 l 1
 408 0 l 1
 0 0 l 1
 12 39 l 1
 104 51 136 74 242 199 c 1
 1047 1190 l 2
 1065 1213 1077 1235 1081 1247 c 0
 1095 1292 1051 1311 918 1315 c 1
 930 1356 l 1xf8
 2085 1356 l 1xf4
 1997 1067 l 1xf8
676 612 m 1
 1001 612 l 1
 1202 1266 l 1
 676 612 l 1
EndSplineSet
EndChar

StartChar: OE
Encoding: 338 338 160
Width: 1820
Flags: HW
HStem: 0 78<1198 1722> 674 76<1317 1595> 909 41G<1862 1905> 1067 289<1462 2042> 1282 74<1462 1792>
LayerCount: 2
Fore
SplineSet
2042 1067 m 1xf0
 1995 1067 l 1xf0
 2026 1249 1984 1282 1716 1282 c 2
 1612 1282 l 2xe8
 1497 1282 1476 1276 1464 1233 c 2
 1317 750 l 1
 1530 750 l 2
 1657 750 1737 770 1780 813 c 0
 1813 844 1833 874 1862 950 c 1
 1905 950 l 1
 1757 471 l 1
 1714 471 l 1
 1745 633 1718 674 1577 674 c 2
 1294 674 l 1
 1141 172 l 2
 1116 96 1135 76 1227 78 c 2
 1481 82 l 2
 1612 86 1704 149 1868 344 c 1
 1917 344 l 1
 1722 0 l 1
 1006 0 l 2
 963 0 838 -4 756 -8 c 0
 707 -10 664 -12 635 -12 c 0
 483 -12 361 43 291 145 c 0
 205 266 194 438 262 659 c 0
 336 895 473 1099 639 1214 c 0
 782 1314 948 1368 1118 1368 c 0
 1147 1368 1153 1368 1249 1362 c 0
 1286 1360 1419 1356 1462 1356 c 2xf0
 2130 1356 l 1xe8
 2042 1067 l 1xf0
965 268 m 2
 1212 1079 l 2
 1257 1229 1216 1294 1075 1294 c 0
 827 1294 617 1067 494 666 c 0
 375 277 446 63 696 63 c 0
 841 63 920 123 965 268 c 2
EndSplineSet
EndChar

StartChar: Oslash
Encoding: 216 216 161
Width: 1478
Flags: HW
HStem: -29 74<719 758> 1311 74<1112 1182>
LayerCount: 2
Fore
SplineSet
1806 1503 m 1
 1546 1237 l 1
 1605 1159 1628 1119 1642 1047 c 0
 1667 945 1657 811 1616 678 c 0
 1489 262 1124 -29 727 -29 c 0
 590 -29 503 -2 399 74 c 1
 166 -164 l 1
 66 -164 l 1
 346 121 l 1
 285 199 264 239 248 311 c 0
 228 413 237 547 276 676 c 0
 403 1092 772 1384 1165 1384 c 0
 1300 1384 1384 1358 1493 1284 c 1
 1706 1503 l 1
 1806 1503 l 1
1417 1106 m 1
 504 180 l 1
 563 84 635 45 754 45 c 0
 1024 45 1261 285 1382 676 c 0
 1437 858 1446 973 1417 1106 c 1
475 252 m 1
 1389 1178 l 1
 1328 1272 1254 1311 1141 1311 c 0
 873 1311 629 1067 510 676 c 0
 455 496 444 383 475 252 c 1
EndSplineSet
EndChar

StartChar: Eth
Encoding: 208 208 162
Width: 1478
Flags: HW
HStem: 0 76<522 623> 645 90<266 410 647 918> 1280 76<446 983>
LayerCount: 2
Fore
SplineSet
410 645 m 1
 240 645 l 1
 268 735 l 1
 438 735 l 1
 559 1133 l 2
 606 1285 592 1303 436 1317 c 1
 446 1356 l 1
 999 1356 l 2
 1280 1356 1481 1282 1577 1141 c 0
 1655 1028 1669 868 1612 684 c 0
 1551 485 1419 303 1249 182 c 0
 1087 67 852 0 614 0 c 2
 33 0 l 1
 45 39 l 1
 203 49 236 76 281 223 c 2
 410 645 l 1
946 735 m 1
 918 645 l 1
 618 645 l 1
 471 160 l 2
 451 94 469 76 551 76 c 0
 729 76 856 101 979 160 c 0
 1174 256 1310 428 1384 670 c 0
 1452 891 1421 1067 1296 1178 c 0
 1218 1248 1097 1280 915 1280 c 0
 833 1280 808 1263 788 1200 c 2
 647 735 l 1
 946 735 l 1
EndSplineSet
EndChar

StartChar: Dcroat
Encoding: 272 272 163
Width: 1478
Flags: HW
HStem: 0 76<522 623> 645 90<266 410 647 918> 1280 76<446 983>
LayerCount: 2
Fore
SplineSet
410 645 m 1
 240 645 l 1
 268 735 l 1
 438 735 l 1
 559 1133 l 2
 606 1285 592 1303 436 1317 c 1
 446 1356 l 1
 999 1356 l 2
 1280 1356 1481 1282 1577 1141 c 0
 1655 1028 1669 868 1612 684 c 0
 1551 485 1419 303 1249 182 c 0
 1087 67 852 0 614 0 c 2
 33 0 l 1
 45 39 l 1
 203 49 236 76 281 223 c 2
 410 645 l 1
946 735 m 1
 918 645 l 1
 618 645 l 1
 471 160 l 2
 451 94 469 76 551 76 c 0
 729 76 856 101 979 160 c 0
 1174 256 1310 428 1384 670 c 0
 1452 891 1421 1067 1296 1178 c 0
 1218 1248 1097 1280 915 1280 c 0
 833 1280 808 1263 788 1200 c 2
 647 735 l 1
 946 735 l 1
EndSplineSet
EndChar

StartChar: Lslash
Encoding: 321 321 164
Width: 1251
Flags: HW
HStem: 0 80<545 1126> 1315 41G<438 1016>
LayerCount: 2
Fore
SplineSet
406 666 m 1
 549 1133 l 2
 592 1276 575 1305 428 1317 c 1
 438 1356 l 1
 1016 1356 l 1
 1006 1317 l 1
 840 1307 803 1278 758 1133 c 2
 651 786 l 1
 1026 969 l 1
 995 868 l 1
 621 686 l 1
 461 164 l 2
 441 92 462 80 612 80 c 2
 750 80 l 2
 920 80 1043 117 1139 197 c 0
 1182 232 1225 278 1282 356 c 1
 1333 356 l 1
 1126 0 l 1
 25 0 l 1
 37 39 l 1
 189 49 227 80 270 223 c 2
 375 565 l 1
 166 463 l 1
 197 563 l 1
 406 666 l 1
EndSplineSet
EndChar

StartChar: Thorn
Encoding: 222 222 165
Width: 1138
Flags: HW
HStem: 0 43G<33 606> 324 82<602 707> 1012 78<748 854> 1315 41G<446 1014>
LayerCount: 2
Fore
SplineSet
1014 1356 m 1
 1004 1317 l 1
 830 1303 801 1276 748 1090 c 1
 911 1090 l 2
 1239 1090 1399 946 1329 719 c 0
 1288 584 1173 459 1034 393 c 0
 930 344 813 324 653 324 c 0
 604 324 569 326 514 330 c 1
 481 223 l 2
 436 73 458 45 618 39 c 1
 606 0 l 1
 33 0 l 1
 45 39 l 1
 205 53 228 74 281 246 c 2
 551 1133 l 2
 596 1280 581 1301 436 1317 c 1
 446 1356 l 1
 1014 1356 l 1
702 944 m 2
 539 412 l 1
 586 408 614 406 655 406 c 0
 891 406 1043 508 1102 707 c 0
 1168 918 1071 1012 788 1012 c 0
 737 1012 718 997 702 944 c 2
EndSplineSet
EndChar

StartChar: a
Encoding: 97 97 166
Width: 909
Flags: HW
HStem: -24.36 144.942<347.13 506.688> 1087.67 59.682<852.6 911.064>
LayerCount: 2
Fore
SplineSet
1152.23 164.43 m 1
 1132.74 99.876 l 1
 1018.25 4.87207 956.13 -24.3604 870.87 -24.3604 c 0
 768.558 -24.3604 738.108 28.0137 766.122 157.122 c 1
 573.678 28.0137 456.75 -24.3604 347.13 -24.3604 c 0
 194.88 -24.3604 116.928 85.2598 166.866 242.382 c 0
 191.226 325.206 252.126 409.248 321.552 459.186 c 0
 459.186 554.19 506.688 573.678 937.86 728.364 c 1
 985.362 880.614 l 2
 1025.56 1015.81 980.49 1087.67 858.69 1087.67 c 0
 758.814 1087.67 662.592 1032.86 640.668 965.874 c 0
 635.796 948.822 633.36 926.898 630.924 904.974 c 0
 628.488 887.922 626.052 875.742 623.616 865.998 c 0
 606.564 811.188 538.356 761.25 478.674 761.25 c 0
 421.428 761.25 387.324 811.188 404.376 868.434 c 0
 454.314 1025.56 675.99 1147.36 911.064 1147.36 c 0
 1058.44 1147.36 1149.79 1099.85 1177.81 1009.72 c 0
 1194.86 950.04 1187.55 876.96 1147.36 747.852 c 2
 997.542 261.87 l 2
 964.656 152.25 970.746 116.928 1027.99 116.928 c 0
 1065.75 116.928 1099.85 129.108 1152.23 164.43 c 1
811.188 306.936 m 2
 920.808 668.682 l 1
 584.64 559.062 454.314 468.93 409.248 321.552 c 2
 406.812 311.808 l 2
 373.926 204.624 418.992 119.364 506.688 119.364 c 0
 559.062 119.364 634.578 141.288 706.44 176.61 c 0
 766.122 207.06 786.828 230.202 811.188 306.936 c 2
EndSplineSet
EndChar

StartChar: b
Encoding: 98 98 167
Width: 1024
Flags: HW
HStem: -24.36 80.388<576.114 640.668> 990.234 157.122<930.552 1080.37>
LayerCount: 2
Fore
SplineSet
900.102 1699.11 m 1
 668.682 935.424 l 1
 756.378 1057.22 928.116 1147.36 1080.37 1147.36 c 0
 1330.06 1147.36 1446.98 913.5 1351.98 606.564 c 0
 1244.8 249.69 904.974 -24.3604 576.114 -24.3604 c 0
 376.362 -24.3604 190.008 58.4639 214.368 135.198 c 2
 609 1429.93 l 2
 641.886 1534.68 626.052 1556.6 526.176 1556.6 c 0
 509.124 1556.6 498.162 1556.6 481.11 1554.17 c 1
 494.508 1594.36 l 1
 573.678 1613.85 l 2
 700.35 1646.74 773.43 1666.22 890.358 1703.98 c 1
 900.102 1699.11 l 1
626.052 802.662 m 2
 433.608 174.174 l 2
 416.556 112.056 511.56 54.8096 640.668 54.8096 c 0
 845.292 54.8096 1012.16 214.368 1097.42 490.854 c 0
 1192.42 795.354 1125.43 990.234 930.552 990.234 c 0
 801.444 990.234 656.502 900.102 626.052 802.662 c 2
EndSplineSet
EndChar

StartChar: c
Encoding: 99 99 168
Width: 909
Flags: HW
HStem: -24.36 179.046<528.612 688.17> 1075.49 71.862<918.372 959.784>
LayerCount: 2
Fore
SplineSet
1112.03 388.542 m 1
 1140.05 366.618 l 1
 1020.68 219.24 953.694 152.25 865.998 92.5684 c 0
 753.942 15.834 640.668 -24.3604 528.612 -24.3604 c 0
 252.126 -24.3604 124.236 207.06 224.112 531.048 c 0
 283.794 728.364 406.812 897.666 566.37 1007.29 c 0
 695.479 1097.42 837.984 1147.36 959.784 1147.36 c 0
 1169.28 1147.36 1306.91 1030.43 1264.28 890.358 c 0
 1247.23 833.112 1176.59 785.61 1112.03 785.61 c 0
 1059.66 785.61 1030.43 830.676 1030.43 900.102 c 2
 1032.86 954.912 l 2
 1035.3 1047.48 1013.38 1075.49 923.244 1075.49 c 0
 721.056 1075.49 528.612 897.666 451.878 640.668 c 0
 361.746 353.22 461.622 154.686 688.17 154.686 c 0
 830.676 154.686 937.86 214.368 1112.03 388.542 c 1
EndSplineSet
EndChar

StartChar: d
Encoding: 100 100 169
Width: 1024
Flags: HW
HStem: -24.36 129.108<521.304 658.938> 1077.93 69.426<890.358 950.04>
LayerCount: 2
Fore
SplineSet
850.164 -24.3604 m 1
 842.856 -17.0518 l 1
 890.358 142.506 l 1
 770.994 25.5781 661.374 -24.3604 521.304 -24.3604 c 0
 247.254 -24.3604 126.672 192.444 224.112 511.56 c 0
 331.296 865.998 650.412 1147.36 937.86 1147.36 c 0
 1037.74 1147.36 1094.98 1120.56 1164.41 1040.17 c 1
 1284.99 1429.93 l 2
 1317.88 1532.24 1302.04 1556.6 1209.47 1556.6 c 0
 1189.99 1556.6 1174.15 1556.6 1152.23 1554.17 c 1
 1164.41 1594.36 l 1
 1338.58 1636.99 1433.59 1661.35 1566.35 1703.98 c 1
 1576.09 1699.11 l 1
 1144.92 283.794 l 2
 1109.6 169.302 1119.34 142.506 1209.47 142.506 c 0
 1216.78 142.506 1221.65 142.506 1269.16 144.942 c 1
 1256.98 104.748 l 1
 850.164 -24.3604 l 1
925.68 254.562 m 2
 1102.29 828.24 l 2
 1142.48 961.002 1056.01 1077.93 923.244 1077.93 c 0
 733.236 1077.93 554.19 892.794 468.93 611.436 c 0
 373.926 304.5 451.878 104.748 658.938 104.748 c 0
 730.8 104.748 801.444 129.108 861.126 179.046 c 0
 894.012 207.06 920.808 237.51 925.68 254.562 c 2
EndSplineSet
EndChar

StartChar: e
Encoding: 101 101 170
Width: 909
Flags: HW
HStem: -24.36 171.738<521.304 675.99> 690.606 80.388<481.11 1222.87> 1057.22 90.132<835.548 935.424>
LayerCount: 2
Fore
SplineSet
1142.48 409.248 m 1
 1177.81 392.196 l 1
 990.234 123.018 758.814 -24.3604 521.304 -24.3604 c 0
 233.856 -24.3604 119.364 188.79 224.112 533.484 c 0
 286.23 738.108 409.248 915.936 559.062 1018.25 c 0
 678.426 1103.51 811.188 1147.36 935.424 1147.36 c 0
 1064.53 1147.36 1161.97 1094.98 1209.47 1004.85 c 0
 1247.23 924.462 1253.32 852.6 1222.87 690.606 c 1
 454.314 690.606 l 1
 411.684 538.356 404.376 456.75 418.992 361.746 c 0
 449.442 219.24 533.484 147.378 675.99 147.378 c 0
 835.548 147.378 965.874 219.24 1142.48 409.248 c 1
481.11 770.994 m 1
 990.234 770.994 l 1
 1025.56 987.798 987.798 1057.22 835.548 1057.22 c 0
 683.298 1057.22 568.806 965.874 481.11 770.994 c 1
EndSplineSet
EndChar

StartChar: f
Encoding: 102 102 171
Width: 681
Flags: HW
HStem: 0 52.374G<49.938 697.914> 1042.61 80.388<394.632 576.114 808.752 1090.11> 1446.98 256.998<1216.78 1292.3>
LayerCount: 2
Fore
SplineSet
1114.47 1123 m 1
 1090.11 1042.61 l 1
 785.61 1042.61 l 1
 546.882 259.434 l 2
 489.636 71.8623 509.124 45.0664 711.312 37.7578 c 1
 697.914 0 l 1
 49.9385 0 l 1
 62.1182 37.7578 l 1
 244.818 47.502 278.922 76.7344 336.168 259.434 c 2
 576.114 1042.61 l 1
 371.49 1042.61 l 1
 397.068 1123 l 1
 601.692 1123 l 1
 663.811 1322.75 711.312 1411.66 808.752 1521.28 c 0
 911.064 1635.77 1062.1 1703.98 1216.78 1703.98 c 0
 1366.6 1703.98 1457.95 1639.43 1429.93 1549.3 c 0
 1412.88 1492.05 1349.54 1446.98 1292.3 1446.98 c 0
 1249.67 1446.98 1226.53 1472.56 1207.04 1537.12 c 0
 1185.11 1608.98 1157.1 1633.34 1104.73 1633.34 c 0
 1009.72 1633.34 940.296 1556.6 895.23 1411.66 c 2
 808.752 1123 l 1
 1114.47 1123 l 1
EndSplineSet
EndChar

StartChar: g
Encoding: 103 103 172
Width: 1024
Flags: HW
HStem: -543.228 142.506<333.732 485.982> -87.696 49.938G<696.696 872.088> 371.49 62.118<733.236 770.994> 968.31 97.44<1261.85 1468.91> 1077.93 69.426<890.358 940.296>
LayerCount: 2
Fore
SplineSet
1468.91 968.311 m 1
 1261.85 968.311 l 1
 1271.59 887.922 1266.72 830.676 1244.8 758.814 c 0
 1207.04 634.578 1142.48 545.664 1037.74 476.238 c 0
 940.296 409.248 830.676 371.49 738.108 371.49 c 0
 723.492 371.49 690.606 373.926 643.104 378.798 c 0
 635.796 378.798 621.18 381.234 599.256 383.67 c 1
 527.395 364.182 416.556 276.486 401.94 226.548 c 0
 389.76 186.354 443.352 164.43 576.114 159.558 c 2
 892.794 144.942 l 2
 1075.49 137.634 1159.54 32.8857 1112.03 -121.8 c 0
 1081.58 -216.804 1017.03 -297.192 897.666 -373.926 c 0
 735.672 -478.674 521.304 -543.229 333.732 -543.229 c 0
 96.2217 -543.229 -62.1182 -434.826 -21.9238 -302.064 c 0
 6.08984 -209.496 97.4404 -126.672 314.244 2.43555 c 1
 226.548 52.374 207.06 82.8242 224.112 135.198 c 0
 238.728 185.136 287.448 235.074 392.196 306.936 c 0
 409.248 319.116 466.494 361.746 528.612 406.812 c 1
 388.542 489.636 352.002 583.422 399.504 740.544 c 0
 468.93 967.092 708.876 1147.36 940.296 1147.36 c 0
 1004.85 1147.36 1068.19 1133.96 1127.87 1109.6 c 2
 1177.81 1090.11 l 2
 1220.44 1073.06 1256.98 1064.53 1306.91 1064.53 c 2
 1499.36 1064.53 l 1
 1468.91 968.311 l 1
364.182 -4.87207 m 1
 221.676 -129.108 193.662 -161.994 176.61 -219.24 c 0
 143.724 -328.86 266.742 -401.94 485.982 -401.94 c 0
 767.34 -401.94 987.798 -304.5 1030.43 -159.558 c 0
 1058.44 -69.4258 985.362 -37.7578 758.814 -37.7578 c 0
 637.014 -37.7578 440.916 -21.9238 364.182 -4.87207 c 1
635.796 842.856 m 2
 633.36 835.548 l 2
 561.498 595.602 616.308 433.608 766.122 433.608 c 0
 880.614 433.608 980.49 521.304 1023.12 661.374 c 0
 1053.57 758.814 1057.22 872.088 1040.17 959.784 c 0
 1023.12 1034.08 969.528 1077.93 892.794 1077.93 c 0
 778.302 1077.93 680.862 990.234 635.796 842.856 c 2
EndSplineSet
EndChar

StartChar: h
Encoding: 104 104 173
Width: 1024
Flags: HW
HStem: 0 52.374G<21.924 561.498 685.734 1214.35> 1012.16 135.198<978.054 1109.6>
LayerCount: 2
Fore
SplineSet
654.066 855.036 m 1
 468.93 254.562 l 2
 416.556 82.8242 431.172 52.374 573.678 37.7578 c 1
 561.498 0 l 1
 21.9238 0 l 1
 35.3223 37.7578 l 1
 185.136 57.2461 207.06 80.3877 259.434 254.562 c 2
 618.744 1429.93 l 2
 651.63 1537.12 638.232 1556.6 531.048 1556.6 c 0
 518.868 1556.6 511.56 1556.6 499.38 1554.17 c 1
 511.56 1594.36 l 1
 585.858 1613.85 l 2
 738.108 1654.04 805.098 1673.53 900.102 1703.98 c 1
 911.064 1696.67 l 1
 678.426 937.86 l 1
 837.984 1087.67 962.22 1147.36 1109.6 1147.36 c 0
 1311.79 1147.36 1375.12 1012.16 1294.73 750.288 c 2
 1142.48 254.562 l 2
 1090.11 82.8242 1101.07 62.1182 1227.74 37.7578 c 1
 1214.35 0 l 1
 685.734 0 l 1
 697.914 37.7578 l 1
 845.292 52.374 880.614 85.2598 932.988 254.562 c 2
 1085.24 747.852 l 2
 1137.61 922.026 1102.29 1012.16 978.054 1012.16 c 0
 880.614 1012.16 794.136 969.528 654.066 855.036 c 1
EndSplineSet
EndChar

StartChar: i
Encoding: 105 105 174
Width: 569
Flags: HW
HStem: 0 52.374G<40.194 630.924> 1449.42 254.562<763.686 840.42>
LayerCount: 2
Fore
SplineSet
788.046 1147.36 m 1
 795.354 1140.05 l 1
 523.74 254.562 l 2
 468.93 75.5156 481.11 49.9385 643.104 37.7578 c 1
 630.924 0 l 1
 40.1943 0 l 1
 52.374 37.7578 l 1
 226.548 47.502 259.434 75.5156 314.244 254.562 c 2
 490.854 833.112 l 2
 526.176 942.732 513.996 982.926 454.314 982.926 c 0
 432.39 982.926 399.504 980.49 369.054 975.618 c 2
 347.13 973.182 l 1
 359.31 1009.72 l 1
 788.046 1147.36 l 1
840.42 1703.98 m 0
 912.282 1703.98 952.476 1645.52 930.552 1576.09 c 0
 908.628 1504.23 835.548 1449.42 763.686 1449.42 c 0
 694.26 1449.42 656.502 1506.67 675.99 1576.09 c 0
 697.914 1645.52 773.43 1703.98 840.42 1703.98 c 0
EndSplineSet
EndChar

StartChar: j
Encoding: 106 106 175
Width: 569
Flags: HW
HStem: -543.228 235.074<-166.866 -107.184> 1449.42 254.562<797.79 875.742>
LayerCount: 2
Fore
SplineSet
830.676 1140.05 m 1
 481.11 0 l 2
 373.926 -354.438 166.866 -543.229 -107.184 -543.229 c 0
 -242.382 -543.229 -323.988 -487.2 -299.628 -406.812 c 0
 -282.576 -352.002 -224.112 -309.372 -166.866 -309.372 c 0
 -126.672 -309.372 -99.876 -331.296 -71.8623 -388.542 c 0
 -43.8477 -440.916 -25.5781 -459.186 12.1797 -459.186 c 0
 47.502 -459.186 87.6963 -438.48 109.62 -414.12 c 0
 152.25 -364.182 180.264 -302.064 237.51 -112.056 c 2
 526.176 833.112 l 2
 559.062 940.296 548.1 982.926 490.854 982.926 c 0
 466.494 982.926 429.954 980.49 392.196 975.618 c 2
 376.362 973.182 l 1
 388.542 1012.16 l 1
 550.536 1057.22 656.502 1090.11 820.932 1147.36 c 1
 830.676 1140.05 l 1
875.742 1703.98 m 0
 947.604 1703.98 987.798 1645.52 965.874 1576.09 c 0
 943.95 1504.23 869.652 1449.42 797.79 1449.42 c 0
 728.364 1449.42 691.824 1506.67 711.312 1576.09 c 0
 733.236 1645.52 808.752 1703.98 875.742 1703.98 c 0
EndSplineSet
EndChar

StartChar: k
Encoding: 107 107 176
Width: 1024
Flags: HW
HStem: 0 37.758<725.928 1259.41> 1085.24 37.758<1032.86 1528.59>
LayerCount: 2
Fore
SplineSet
490.854 1554.17 m 1
 504.252 1594.36 l 1
 585.858 1613.85 l 2
 742.98 1654.04 820.932 1673.53 925.68 1703.98 c 1
 932.988 1699.11 l 1
 613.872 651.63 l 1
 1047.48 954.912 l 2
 1092.55 985.362 1125.43 1020.68 1130.3 1040.17 c 0
 1142.48 1075.49 1118.12 1085.24 1020.68 1087.67 c 1
 1032.86 1123 l 1
 1541.99 1123 l 1
 1528.59 1085.24 l 1
 1509.1 1085.24 l 2
 1466.47 1085.24 1429.93 1080.37 1389.74 1070.62 c 0
 1313 1051.13 1121.78 935.424 892.794 770.994 c 2
 800.226 704.004 l 1
 1035.3 219.24 l 1
 1099.85 92.5684 1164.41 45.0664 1271.59 37.7578 c 1
 1259.41 0 l 1
 716.184 0 l 1
 728.364 37.7578 l 1
 775.866 37.7578 l 2
 806.316 37.7578 830.676 52.374 837.984 74.2979 c 0
 842.856 86.4775 840.42 102.312 828.24 126.672 c 0
 823.368 133.98 818.496 142.506 816.061 149.814 c 2
 813.624 159.558 l 1
 606.564 626.052 l 1
 464.058 166.866 l 2
 439.698 79.1699 466.494 45.0664 563.934 40.1943 c 2
 613.872 37.7578 l 1
 601.692 0 l 1
 17.0518 0 l 1
 30.4502 37.7578 l 1
 218.022 68.208 226.548 75.5156 266.742 204.624 c 2
 633.36 1406.79 l 2
 671.118 1526.15 656.502 1559.04 573.678 1559.04 c 0
 549.318 1559.04 526.176 1556.6 490.854 1554.17 c 1
EndSplineSet
EndChar

StartChar: l
Encoding: 108 108 177
Width: 569
Flags: HW
HStem: 0 52.374G<52.374 640.668>
LayerCount: 2
Fore
SplineSet
521.304 1554.17 m 1
 533.484 1594.36 l 1
 721.056 1636.99 823.368 1661.35 965.874 1703.98 c 1
 973.182 1699.11 l 1
 518.868 209.496 l 2
 476.238 71.8623 499.38 47.502 654.066 37.7578 c 1
 640.668 0 l 1
 52.374 0 l 1
 64.5537 37.7578 l 1
 224.112 49.9385 269.178 81.6064 311.808 216.804 c 2
 673.554 1406.79 l 2
 711.312 1523.72 696.696 1559.04 616.308 1559.04 c 0
 596.82 1559.04 566.37 1556.6 535.92 1554.17 c 2
 521.304 1554.17 l 1
EndSplineSet
EndChar

StartChar: m
Encoding: 109 109 178
Width: 1593
Flags: HW
HStem: 0 37.758<52.374 98.658 1266.72 1284.99> 1018.25 129.108<1030.43 1152.23>
LayerCount: 2
Fore
SplineSet
352.002 992.67 m 1
 364.182 1035.3 l 1
 511.56 1073.06 605.346 1099.85 747.852 1147.36 c 1
 763.686 1142.48 l 1
 706.44 954.912 l 1
 961.002 1112.03 1042.61 1147.36 1152.23 1147.36 c 0
 1287.43 1147.36 1349.54 1080.37 1351.98 937.86 c 1
 1531.03 1082.8 1678.4 1147.36 1823.35 1147.36 c 0
 2015.79 1147.36 2065.73 998.76 1975.6 704.004 c 2
 1818.47 190.008 l 2
 1788.02 92.5684 1808.73 47.502 1880.59 42.6299 c 2
 1945.15 37.7578 l 1
 1932.97 0 l 1
 1387.3 0 l 1
 1399.48 37.7578 l 1
 1549.3 54.8096 1573.66 74.2979 1618.72 216.804 c 2
 1778.28 742.98 l 2
 1840.4 950.04 1818.47 1018.25 1675.97 1018.25 c 0
 1561.48 1018.25 1464.04 973.182 1356.85 865.998 c 1
 1164.41 237.51 l 2
 1116.91 82.8242 1142.48 40.1943 1284.99 37.7578 c 1
 1271.59 0 l 1
 713.748 0 l 1
 725.928 37.7578 l 1
 870.87 47.502 904.974 74.2979 947.604 214.368 c 2
 1114.47 756.378 l 2
 1166.84 930.552 1140.05 1018.25 1030.43 1018.25 c 0
 942.732 1018.25 823.368 975.618 742.98 918.372 c 0
 718.62 901.32 690.606 875.742 690.606 870.87 c 2
 473.802 166.866 l 2
 445.788 69.4258 473.802 42.6299 606.564 37.7578 c 1
 593.166 0 l 1
 40.1943 0 l 1
 52.374 37.7578 l 1
 192.444 40.1943 236.292 76.7344 278.922 211.932 c 2
 471.366 842.856 l 2
 509.124 962.22 498.162 1002.41 433.608 1002.41 c 0
 405.594 1002.41 387.324 999.979 352.002 992.67 c 1
EndSplineSet
EndChar

StartChar: n
Encoding: 110 110 179
Width: 1024
Flags: HW
HStem: 0 52.374G<45.066 573.678 690.606 1209.47> 1009.72 137.634<975.618 1114.47>
LayerCount: 2
Fore
SplineSet
344.694 992.67 m 1
 356.874 1035.3 l 1
 506.688 1075.49 598.038 1102.29 735.672 1147.36 c 1
 750.288 1142.48 l 1
 690.606 945.168 l 1
 907.41 1104.73 999.979 1147.36 1114.47 1147.36 c 0
 1299.61 1147.36 1366.6 1008.5 1294.73 773.43 c 2
 1120.56 202.188 l 2
 1082.8 80.3877 1103.51 49.9385 1222.87 37.7578 c 1
 1209.47 0 l 1
 690.606 0 l 1
 704.004 37.7578 l 1
 830.676 47.502 875.742 90.1318 923.244 247.254 c 2
 1082.8 768.558 l 2
 1132.74 932.988 1097.42 1009.72 975.618 1009.72 c 0
 892.794 1009.72 828.24 980.49 673.554 868.434 c 1
 459.186 166.866 l 2
 431.172 76.7344 461.622 47.502 585.858 37.7578 c 1
 573.678 0 l 1
 45.0664 0 l 1
 57.2461 37.7578 l 1
 186.354 47.502 224.112 81.6064 269.178 224.112 c 2
 456.75 842.856 l 2
 494.508 964.656 483.546 1002.41 414.12 1002.41 c 0
 386.106 1002.41 361.746 999.979 344.694 992.67 c 1
EndSplineSet
EndChar

StartChar: o
Encoding: 111 111 180
Width: 1024
Flags: HW
HStem: -24.36 69.426<611.436 663.81> 1077.93 69.426<915.936 975.618>
LayerCount: 2
Fore
SplineSet
975.618 1147.36 m 0
 1294.73 1147.36 1451.86 909.846 1351.98 583.422 c 0
 1244.8 238.728 925.68 -24.3604 611.436 -24.3604 c 0
 297.192 -24.3604 142.506 227.766 244.818 563.934 c 0
 349.566 908.628 651.63 1147.36 975.618 1147.36 c 0
920.808 1077.93 m 0
 744.198 1077.93 578.55 923.244 506.688 685.734 c 0
 451.878 509.124 438.48 333.732 468.93 204.624 c 0
 490.854 104.748 566.37 45.0664 663.811 45.0664 c 0
 851.382 45.0664 1012.16 215.586 1099.85 496.944 c 0
 1204.6 839.202 1130.3 1077.93 920.808 1077.93 c 0
EndSplineSet
EndChar

StartChar: p
Encoding: 112 112 181
Width: 1024
Flags: HW
HStem: -540.792 45.066<404.376 464.058> -24.36 80.388<638.232 690.606> 997.542 149.814<954.912 1107.16>
LayerCount: 2
Fore
SplineSet
321.552 980.49 m 1
 333.732 1020.68 l 1
 483.546 1063.31 580.986 1094.98 733.236 1147.36 c 1
 745.416 1142.48 l 1
 685.734 950.04 l 1
 837.984 1085.24 967.092 1147.36 1107.16 1147.36 c 0
 1349.54 1147.36 1454.29 925.68 1361.72 616.308 c 0
 1249.67 254.562 935.424 -24.3604 640.668 -24.3604 c 0
 535.92 -24.3604 483.546 0 421.428 82.8242 c 1
 302.064 -309.372 l 2
 254.562 -466.494 276.486 -494.508 464.058 -496.944 c 1
 451.878 -540.792 l 1
 -152.25 -540.792 l 1
 -140.07 -499.38 l 1
 12.1797 -484.764 47.502 -455.532 87.6963 -326.424 c 2
 444.57 840.42 l 2
 479.892 957.348 468.93 982.926 383.67 982.926 c 0
 361.746 982.926 343.476 982.926 321.552 980.49 c 1
651.63 833.112 m 2
 464.058 219.24 l 2
 442.134 144.942 556.626 54.8096 673.554 54.8096 c 0
 852.6 54.8096 1032.86 242.382 1118.12 518.868 c 0
 1205.82 808.752 1140.05 997.542 954.912 997.542 c 0
 840.42 997.542 673.554 907.41 651.63 833.112 c 2
EndSplineSet
EndChar

StartChar: q
Encoding: 113 113 182
Width: 1024
Flags: HW
HStem: -24.36 152.25<451.878 640.668> 1080.37 69.426<932.988 978.054>
LayerCount: 2
Fore
SplineSet
1222.87 1059.66 m 1
 1382.43 1140.05 l 1
 1409.23 1140.05 l 1
 952.476 -352.002 l 2
 919.59 -456.75 935.424 -476.238 1062.1 -506.688 c 1
 1052.35 -540.792 l 1
 464.058 -540.792 l 1
 476.238 -499.38 l 1
 655.284 -487.2 713.748 -449.442 756.378 -309.372 c 2
 900.102 159.558 l 1
 752.724 40.1943 596.82 -24.3604 451.878 -24.3604 c 0
 216.804 -24.3604 119.364 197.316 216.804 511.56 c 0
 326.424 870.87 651.63 1149.79 963.438 1149.79 c 0
 1060.88 1149.79 1127.87 1126.65 1222.87 1059.66 c 1
947.604 316.68 m 2
 1104.73 830.676 l 2
 1154.66 997.542 1102.29 1080.37 947.604 1080.37 c 0
 735.672 1080.37 549.318 896.448 459.186 601.692 c 0
 409.248 437.262 411.684 274.05 468.93 202.188 c 1
 504.252 152.25 563.934 126.672 640.668 126.672 c 0
 717.402 126.672 808.752 157.122 878.178 204.624 c 0
 911.064 224.112 928.116 256.998 947.604 316.68 c 2
EndSplineSet
EndChar

StartChar: r
Encoding: 114 114 183
Width: 681
Flags: HW
HStem: 0 52.374G<12.18 611.436> 902.538 244.818<1012.16 1049.92>
LayerCount: 2
Fore
SplineSet
314.244 973.182 m 1
 326.424 1012.16 l 1
 488.418 1059.66 588.294 1092.55 738.108 1147.36 c 1
 747.852 1142.48 l 1
 678.426 913.5 l 1
 855.036 1090.11 945.168 1147.36 1049.92 1147.36 c 0
 1135.18 1147.36 1172.93 1098.64 1144.92 1015.81 c 0
 1125.43 946.386 1075.49 902.538 1015.81 902.538 c 0
 982.926 902.538 961.002 917.154 930.552 952.476 c 0
 911.064 976.836 890.358 990.234 875.742 990.234 c 0
 808.752 990.234 662.592 865.998 638.232 785.61 c 2
 468.93 224.112 l 2
 423.864 81.6064 456.75 45.0664 623.616 37.7578 c 1
 611.436 0 l 1
 12.1797 0 l 1
 24.3604 37.7578 l 1
 191.226 68.208 214.368 85.2598 254.562 209.496 c 2
 444.57 833.112 l 2
 479.892 942.732 466.494 982.926 404.376 982.926 c 0
 373.926 982.926 352.002 980.49 314.244 973.182 c 1
EndSplineSet
EndChar

StartChar: s
Encoding: 115 115 184
Width: 796
Flags: HW
HStem: -24.36 54.81<483.546 528.612> 19.488 359.31<224.112 252.126> 783.174 314.244<1023.12 1045.04> 1090.11 54.81<770.994 847.728>
LayerCount: 2
Fore
SplineSet
1025.56 783.174 m 1x20
 987.798 783.174 l 1x20
 997.542 1004.85 951.258 1090.11 808.752 1090.11 c 0
 694.26 1090.11 594.384 1020.68 563.934 920.808 c 0
 544.446 853.818 561.498 790.482 618.744 750.288 c 2
 837.984 590.73 l 2
 959.784 500.598 995.106 418.992 957.348 294.756 c 0
 904.974 120.582 701.568 -24.3604 509.124 -24.3604 c 0x90
 464.058 -24.3604 398.286 -14.6162 333.732 0 c 0
 281.358 14.6162 246.036 19.4883 224.112 19.4883 c 0
 193.662 19.4883 183.918 14.6162 159.558 -9.74414 c 1
 126.672 -9.74414 l 1
 244.818 378.798 l 1
 283.794 378.798 l 1x40
 274.05 236.292 278.922 179.046 311.808 116.928 c 0
 344.694 62.1182 411.684 30.4502 496.944 30.4502 c 0
 623.616 30.4502 723.492 99.876 758.814 209.496 c 0
 780.738 286.23 755.16 347.13 685.734 397.068 c 2
 566.37 478.674 l 2
 389.76 598.038 341.04 697.914 383.67 837.984 c 0
 438.48 1017.03 618.744 1144.92 816.061 1144.92 c 0x90
 880.614 1144.92 932.988 1133.96 982.926 1114.47 c 0
 1004.85 1102.29 1030.43 1097.42 1045.04 1097.42 c 0
 1054.79 1097.42 1057.22 1101.07 1085.24 1118.12 c 2
 1092.55 1123 l 1
 1120.56 1123 l 1
 1025.56 783.174 l 1x20
EndSplineSet
EndChar

StartChar: t
Encoding: 116 116 185
Width: 569
Flags: HW
HStem: -24.36 129.108<388.542 546.882> 1042.61 80.388<728.364 954.912>
LayerCount: 2
Fore
SplineSet
980.49 1123 m 1
 954.912 1042.61 l 1
 704.004 1042.61 l 1
 483.546 328.86 l 2
 436.044 171.738 454.314 104.748 546.882 104.748 c 0
 601.692 104.748 651.63 130.326 723.492 192.444 c 1
 745.416 164.43 l 1
 623.616 35.3223 510.342 -24.3604 388.542 -24.3604 c 0
 241.164 -24.3604 199.752 82.8242 264.306 292.32 c 2
 494.508 1042.61 l 1
 361.746 1042.61 l 1
 354.438 1047.48 354.438 1052.35 356.874 1059.66 c 0
 359.31 1071.84 381.234 1090.11 414.12 1107.16 c 1
 456.75 1116.91 600.474 1236.27 735.672 1373.9 c 0
 763.686 1398.26 784.392 1422.62 808.752 1444.55 c 1
 823.368 1444.55 823.368 1436.02 816.061 1411.66 c 2
 728.364 1123 l 1
 980.49 1123 l 1
EndSplineSet
EndChar

StartChar: u
Encoding: 117 117 186
Width: 1024
Flags: HW
HStem: -24.36 144.942<471.366 601.692> 1073.06 49.938G<366.618 730.8 990.234 1384.87>
LayerCount: 2
Fore
SplineSet
1232.62 124.236 m 1
 1222.87 90.1318 l 1
 1085.24 54.8096 985.362 28.0137 845.292 -21.9238 c 1
 837.984 -17.0518 l 1
 900.102 190.008 l 1
 761.25 82.8242 l 2
 673.554 15.834 563.934 -24.3604 471.366 -24.3604 c 0
 288.666 -24.3604 209.496 102.312 269.178 299.628 c 2
 461.622 928.116 l 2
 496.944 1042.61 471.366 1080.37 354.438 1087.67 c 1
 366.618 1123 l 1
 730.8 1123 l 1
 481.11 309.372 l 2
 448.224 204.624 504.252 119.364 601.692 119.364 c 0
 675.99 119.364 760.032 149.814 845.292 204.624 c 0
 887.922 232.638 913.5 266.742 932.988 336.168 c 2
 1112.03 923.244 l 2
 1149.79 1047.48 1127.87 1073.06 975.618 1080.37 c 1
 990.234 1123 l 1
 1384.87 1123 l 1
 1123 266.742 l 2
 1087.67 152.25 1104.73 124.236 1219.22 124.236 c 2
 1232.62 124.236 l 1
EndSplineSet
EndChar

StartChar: v
Encoding: 118 118 187
Width: 1024
Flags: HW
HStem: -35.322 52.374G<621.18 635.796> 1073.06 49.938G<392.196 880.614 1187.55 1534.68>
LayerCount: 2
Fore
SplineSet
1534.68 1123 m 1
 1521.28 1085.24 l 1
 1444.55 1077.93 1423.84 1059.66 1299.61 890.358 c 1
 735.672 90.1318 l 2
 671.118 -2.43555 643.104 -35.3223 628.488 -35.3223 c 0
 613.872 -35.3223 604.128 -14.6162 604.128 30.4502 c 0
 601.692 49.9385 599.256 68.208 599.256 82.8242 c 1
 518.868 797.79 l 1
 481.11 1054.79 471.366 1080.37 378.798 1085.24 c 1
 392.196 1123 l 1
 880.614 1123 l 1
 868.434 1085.24 l 1
 778.302 1077.93 745.416 1060.88 730.8 1015.81 c 0
 725.928 993.888 721.056 958.566 725.928 923.244 c 1
 785.61 283.794 l 1
 1230.18 930.552 l 2
 1247.23 954.912 1259.41 980.49 1266.72 1004.85 c 0
 1281.34 1052.35 1252.1 1077.93 1175.37 1085.24 c 1
 1187.55 1123 l 1
 1534.68 1123 l 1
EndSplineSet
EndChar

StartChar: w
Encoding: 119 119 188
Width: 1478
Flags: HW
HStem: -35.322 52.374G<568.806 582.204 1197.29 1213.13> 1073.06 49.938G<397.068 845.292 997.542 1504.23 1768.54 2075.47>
LayerCount: 2
Fore
SplineSet
1768.54 1123 m 1
 2075.47 1123 l 1
 2063.29 1085.24 l 1
 2008.48 1068.19 1995.08 1054.79 1918.35 950.04 c 1
 1311.79 87.6963 l 2
 1239.92 -12.1797 1221.65 -35.3223 1204.6 -35.3223 c 0
 1189.99 -35.3223 1185.11 -20.7061 1177.81 71.8623 c 2
 1130.3 661.374 l 1
 668.682 62.1182 l 2
 618.744 -2.43555 588.294 -35.3223 576.114 -35.3223 c 0
 561.498 -35.3223 550.536 0 543.229 74.2979 c 2
 468.93 928.116 l 1
 451.878 1054.79 438.48 1080.37 383.67 1085.24 c 1
 397.068 1123 l 1
 845.292 1123 l 1
 833.112 1085.24 l 1
 745.416 1075.49 707.658 1054.79 693.042 1002.41 c 0
 685.734 978.054 683.298 952.476 685.734 928.116 c 2
 733.236 276.486 l 1
 1112.03 773.43 l 1
 1109.6 818.496 1107.16 865.998 1104.73 913.5 c 0
 1094.98 1048.7 1075.49 1075.49 985.362 1085.24 c 1
 997.542 1123 l 1
 1504.23 1123 l 1
 1492.05 1085.24 l 1
 1370.25 1068.19 1336.15 1049.92 1319.09 995.106 c 0
 1309.35 962.22 1309.35 962.22 1316.66 847.729 c 2
 1354.42 289.884 l 1
 1749.05 842.856 l 2
 1798.99 909.846 1830.65 969.528 1842.83 1007.29 c 0
 1855.01 1049.92 1836.74 1068.19 1756.36 1085.24 c 1
 1768.54 1123 l 1
EndSplineSet
EndChar

StartChar: x
Encoding: 120 120 189
Width: 1024
Flags: HW
HStem: 0 37.758<386.106 416.556 1175.37 1207.04> 1085.24 37.758<401.94 444.57>
LayerCount: 2
Fore
SplineSet
693.042 0 m 1
 706.44 37.7578 l 1
 789.264 42.6299 808.752 52.374 823.368 97.4404 c 0
 828.24 112.056 828.24 127.89 820.932 142.506 c 2
 700.35 490.854 l 1
 411.684 185.136 l 2
 364.182 135.198 333.732 97.4404 328.86 82.8242 c 0
 319.116 49.9385 347.13 37.7578 416.556 37.7578 c 1
 404.376 0 l 1
 42.6299 0 l 1
 54.8096 37.7578 l 1
 140.07 45.0664 169.302 62.1182 274.05 164.43 c 1
 685.734 576.114 l 1
 561.498 935.424 l 2
 518.868 1052.35 488.418 1085.24 414.12 1085.24 c 2
 392.196 1085.24 l 1
 404.376 1123 l 1
 920.808 1123 l 1
 907.41 1085.24 l 1
 833.112 1082.8 795.354 1065.75 783.174 1030.43 c 0
 773.43 997.542 792.918 913.5 830.676 808.752 c 2
 850.164 758.814 l 1
 897.666 808.752 942.732 853.818 957.348 868.434 c 0
 1045.04 945.168 1092.55 999.979 1099.85 1030.43 c 0
 1112.03 1065.75 1090.11 1080.37 1018.25 1085.24 c 1
 1030.43 1123 l 1
 1423.84 1123 l 1
 1411.66 1085.24 l 1
 1331.27 1082.8 1244.8 1042.61 1177.81 975.618 c 2
 878.178 675.99 l 1
 1047.48 187.572 l 1
 1090.11 77.9521 1130.3 37.7578 1207.04 37.7578 c 1
 1194.86 0 l 1
 693.042 0 l 1
EndSplineSet
EndChar

StartChar: y
Encoding: 121 121 190
Width: 1024
Flags: HW
HStem: -543.228 254.562<87.696 107.184> 1085.24 37.758<1180.24 1199.73>
LayerCount: 2
Fore
SplineSet
1528.59 1123 m 1
 1516.41 1085.24 l 1
 1454.29 1077.93 1418.97 1053.57 1361.72 973.182 c 1
 666.246 -45.0664 l 2
 421.428 -404.376 259.434 -543.229 92.5684 -543.229 c 0
 -12.1797 -543.229 -71.8623 -482.328 -47.502 -399.504 c 0
 -30.4502 -339.822 37.7578 -289.884 95.0039 -289.884 c 0
 137.634 -289.884 174.174 -299.628 216.804 -316.68 c 0
 238.728 -328.86 259.434 -333.732 274.05 -333.732 c 0
 309.372 -333.732 378.798 -286.23 433.608 -221.676 c 0
 498.162 -147.378 604.128 9.74414 616.308 47.502 c 0
 626.052 85.2598 613.872 175.392 583.422 299.628 c 1
 568.806 373.926 l 1
 566.37 394.632 l 1
 471.366 1007.29 l 2
 464.058 1049.92 428.736 1077.93 366.618 1087.67 c 1
 378.798 1123 l 1
 892.794 1123 l 1
 880.614 1085.24 l 1
 770.994 1080.37 728.364 1063.31 716.184 1018.25 c 0
 706.44 990.234 706.44 958.566 711.312 923.244 c 2
 806.316 292.32 l 1
 1256.98 980.49 l 1
 1269.16 997.542 1277.68 1013.38 1280.12 1023.12 c 0
 1292.3 1063.31 1260.63 1085.24 1180.24 1085.24 c 1
 1192.42 1123 l 1
 1528.59 1123 l 1
EndSplineSet
EndChar

StartChar: z
Encoding: 122 122 191
Width: 909
Flags: HW
HStem: 0 74.298<356.874 1007.29> 1047.48 74.298<483.546 1049.92>
LayerCount: 2
Fore
SplineSet
1144.92 336.168 m 1
 1007.29 0 l 1
 66.9902 0 l 1
 80.3877 37.7578 l 1
 1049.92 1047.48 l 1
 706.44 1047.48 l 2
 556.626 1047.48 507.906 1010.94 431.172 828.24 c 1
 386.106 828.24 l 1
 483.546 1123 l 1
 1349.54 1123 l 1
 1337.36 1085.24 l 1
 356.874 74.2979 l 1
 700.35 74.2979 l 2
 827.022 74.2979 920.808 97.4404 968.311 140.07 c 0
 1013.38 182.7 1040.17 222.894 1102.29 347.13 c 1
 1144.92 336.168 l 1
EndSplineSet
EndChar

StartChar: ae
Encoding: 230 230 192
Width: 1366
Flags: HW
HStem: -20 98<309 418> 567 61<920 1436> 883 59<1176 1223>
LayerCount: 2
Fore
SplineSet
1366 315 m 1
 1389 305 l 1
 1297 184 1239 127 1169 78 c 0
 1075 12 981 -20 885 -20 c 0
 768 -20 703 23 666 129 c 1
 492 14 411 -20 309 -20 c 0
 170 -20 100 72 141 205 c 0
 178 328 289 412 537 502 c 2
 735 575 l 1
 778 705 l 1
 794 752 805 815 797 846 c 0
 793 875 758 893 709 893 c 0
 623 893 545 846 539 791 c 0
 539 785 537 778 537 778 c 1
 530 756 l 1
 522 721 l 1
 506 662 460 623 403 623 c 0
 348 623 326 662 344 721 c 0
 383 848 553 942 739 942 c 0
 839 942 893 918 950 850 c 1
 1063 920 1129 942 1223 942 c 0
 1430 942 1493 831 1436 567 c 1
 899 567 l 1
 838 364 830 299 848 219 c 0
 864 158 926 117 1010 117 c 0
 1127 117 1225 172 1366 315 c 1
686 412 m 2
 719 518 l 1
 445 428 373 379 334 256 c 0
 305 158 342 78 418 78 c 0
 494 78 645 143 657 180 c 0
 657 182 659 184 657 186 c 0
 653 262 663 338 686 412 c 2
920 629 m 1
 1260 629 l 1
 1309 807 1287 883 1176 883 c 0
 1059 883 986 809 920 629 c 1
EndSplineSet
EndChar

StartChar: oe
Encoding: 339 339 193
Width: 1478
Flags: HW
HStem: -20 53<471 506> 567 61<1051 1554> 883 59<725 768 1294 1341>
LayerCount: 2
Fore
SplineSet
1481 297 m 1
 1499 285 l 1
 1325 64 1200 -20 1040 -20 c 0
 913 -20 856 35 838 174 c 1
 717 35 616 -20 477 -20 c 0
 229 -20 115 174 199 446 c 0
 246 602 352 754 473 844 c 0
 561 907 662 942 764 942 c 0
 891 942 960 901 1026 786 c 1
 1147 901 1230 942 1341 942 c 0
 1443 942 1528 895 1561 815 c 0
 1588 752 1585 692 1554 567 c 1
 1034 567 l 1
 987 389 983 313 1008 219 c 0
 1026 158 1083 117 1159 117 c 0
 1257 117 1346 166 1481 297 c 1
739 883 m 0
 680 883 622 860 565 815 c 0
 510 772 449 661 416 555 c 0
 310 209 340 33 502 33 c 0
 641 33 751 162 827 408 c 0
 919 713 889 883 739 883 c 0
1051 629 m 1
 1378 629 l 1
 1395 684 l 2
 1430 799 1388 883 1294 883 c 0
 1185 883 1104 799 1051 629 c 1
EndSplineSet
EndChar

StartChar: oslash
Encoding: 248 248 194
Width: 1024
Flags: HMW
HStem: -20 57<500 611> 885 57<413 517>
VStem: 59 184<495 604> 778 184<337 481>
LayerCount: 2
Fore
SplineSet
1239 1128 m 1
 1028 872 l 1
 1079 827 1098 803 1116 754 c 0
 1141 676 1139 577 1110 479 c 0
 1022 194 760 -20 500 -20 c 0
 428 -20 383 -10 322 23 c 1
 113 -229 l 1
 37 -229 l 1
 274 57 l 1
 221 112 202 144 188 199 c 0
 168 277 172 371 201 465 c 0
 287 744 535 942 799 942 c 0
 867 942 912 932 975 905 c 1
 1159 1128 l 1
 1239 1128 l 1
926 750 m 1
 403 123 l 1
 436 62 477 37 547 37 c 0
 701 37 833 178 905 416 c 0
 946 547 951 637 926 750 c 1
381 188 m 1
 897 811 l 1
 858 864 819 885 756 885 c 0
 611 885 475 758 416 565 c 0
 373 424 363 305 381 188 c 1
EndSplineSet
EndChar

StartChar: germandbls
Encoding: 223 223 195
Width: 1024
Flags: HW
HStem: -18 248<551 586> 1343 55<897 942>
LayerCount: 2
Fore
SplineSet
203 172 m 2
 434 930 l 2
 477 1073 524 1165 590 1241 c 0
 682 1345 803 1399 942 1399 c 0
 1155 1399 1251 1275 1194 1087 c 0
 1149 940 1067 872 817 772 c 1
 936 747 987 725 1036 668 c 0
 1095 598 1110 496 1075 381 c 0
 1007 158 791 -18 586 -18 c 0
 469 -18 405 43 434 131 c 0
 450 186 502 229 555 229 c 0
 600 229 626 194 616 147 c 2
 606 102 l 2
 598 57 608 41 647 41 c 0
 733 41 807 133 860 307 c 0
 944 583 897 725 719 731 c 0
 672 733 658 743 664 766 c 0
 670 784 688 793 733 797 c 0
 870 811 959 895 1008 1059 c 0
 1063 1237 1026 1343 909 1343 c 0
 803 1343 707 1257 666 1124 c 2
 322 0 l 1
 25 0 l 1
 35 31 l 1
 139 39 168 63 203 172 c 2
EndSplineSet
EndChar

StartChar: dotlessi
Encoding: 305 305 196
Width: 569
Flags: HW
HStem: 0 43G<33 518>
LayerCount: 2
Fore
SplineSet
647 942 m 1
 653 936 l 1
 430 209 l 2
 385 62 395 41 528 31 c 1
 518 0 l 1
 33 0 l 1
 43 31 l 1
 186 39 213 62 258 209 c 2
 403 684 l 2
 432 774 422 807 373 807 c 0
 355 807 328 805 303 801 c 2
 285 799 l 1
 295 829 l 1
 647 942 l 1
EndSplineSet
EndChar

StartChar: fi
Encoding: 64257 64257 197
Width: 1138
Flags: HW
HStem: 0 31<66 66 516 516 616 616 1067 1067> 854 68<63 203 375 375 375 551> 901 41<926 926> 1348 51<571 618>
VStem: 203 172<193 854> 758 172<199 735>
LayerCount: 2
Fore
SplineSet
63 854 m 1xcc
 63 922 l 1
 205 922 l 1
 217 1086 240 1161 301 1245 c 0
 375 1345 493 1399 649 1399 c 0
 807 1399 909 1341 909 1255 c 0
 909 1210 879 1176 836 1176 c 0
 801 1176 774 1196 735 1251 c 0
 686 1321 647 1348 590 1348 c 0
 498 1348 418 1286 389 1198 c 0
 379 1163 373 1100 373 1010 c 2
 373 922 l 1
 694 922 l 2x5c
 776 922 836 928 926 942 c 1x2c
 934 936 l 1
 930 827 930 780 930 735 c 2
 930 199 l 2
 930 68 952 41 1067 31 c 1
 1067 0 l 1
 616 0 l 1
 616 31 l 1
 743 41 758 60 758 199 c 2
 758 739 l 2
 758 848 748 854 551 854 c 2
 375 854 l 1
 375 180 l 2
 375 67 401 39 516 31 c 1
 516 0 l 1
 66 0 l 1
 66 31 l 1
 181 35 203 62 203 193 c 2
 203 854 l 1
 63 854 l 1xcc
EndSplineSet
Ligature2: "'liga' Standard Ligatures in Latin lookup 1 subtable" f i
EndChar

StartChar: fl
Encoding: 64258 64258 198
Width: 1138
Flags: HW
HStem: 0 31<66 66 524 524 627 627 1067 1067> 856 66<66 207 379 764> 1196 152<642 785> 1343 55<501 535>
VStem: 207 172<215 856> 764 172<172 856 856 856 922 1210 1210 1210>
LayerCount: 2
Fore
SplineSet
66 856 m 1xec
 66 922 l 1
 211 922 l 1
 219 1102 240 1182 301 1270 c 0
 358 1350 453 1399 549 1399 c 0x5c
 598 1399 658 1387 715 1364 c 0
 746 1354 766 1348 776 1348 c 0
 794 1348 823 1358 862 1376 c 0
 887 1388 910 1397 926 1399 c 1
 936 1395 l 1
 936 166 l 2
 936 60 956 39 1067 31 c 1
 1067 0 l 1
 627 0 l 1
 627 31 l 1
 733 39 764 72 764 172 c 2
 764 856 l 1
 379 856 l 1
 379 162 l 2
 379 68 407 43 524 31 c 1
 524 0 l 1
 66 0 l 1
 66 31 l 1
 125 35 146 39 166 53 c 0
 195 71 207 123 207 215 c 2
 207 856 l 1
 66 856 l 1xec
764 922 m 1
 764 1210 l 1
 754 1200 745 1196 731 1196 c 0x6c
 684 1196 657 1215 618 1272 c 0
 581 1327 557 1343 512 1343 c 0
 422 1343 379 1241 379 1028 c 2
 379 922 l 1
 764 922 l 1
EndSplineSet
Ligature2: "'liga' Standard Ligatures in Latin lookup 1 subtable" f l
EndChar

StartChar: dcroat
Encoding: 273 273 199
Width: 1024
Flags: HW
HStem: -20 106<428 541> 885 57<731 782> 1079 70<799 1026 1221 1354>
LayerCount: 2
Fore
SplineSet
1026 1079 m 1
 778 1079 l 1
 801 1149 l 1
 1049 1149 l 1
 1055 1174 l 2
 1082 1258 1069 1278 993 1278 c 0
 977 1278 964 1278 946 1276 c 1
 956 1309 l 1
 1099 1344 1177 1364 1286 1399 c 1
 1294 1395 l 1
 1221 1149 l 1
 1376 1149 l 1
 1354 1079 l 1
 1198 1079 l 1
 940 233 l 2
 911 139 919 117 993 117 c 0
 999 117 1003 117 1042 119 c 1
 1032 86 l 1
 698 -20 l 1
 692 -14 l 1
 731 117 l 1
 633 21 543 -20 428 -20 c 0
 203 -20 104 158 184 420 c 0
 272 711 534 942 770 942 c 0
 852 942 899 920 956 854 c 1
 1026 1079 l 1
760 209 m 2
 905 680 l 2
 938 789 867 885 758 885 c 0
 602 885 455 733 385 502 c 0
 307 250 371 86 541 86 c 0
 600 86 658 106 707 147 c 0
 734 170 756 195 760 209 c 2
EndSplineSet
EndChar

StartChar: lslash
Encoding: 322 322 200
Width: 569
Flags: HW
HStem: 0 43G<43 526>
LayerCount: 2
Fore
SplineSet
428 741 m 1
 553 1155 l 2
 584 1251 572 1280 506 1280 c 0
 490 1280 465 1278 440 1276 c 2
 428 1276 l 1
 438 1309 l 1
 592 1344 676 1364 793 1399 c 1
 799 1395 l 1
 635 858 l 1
 825 967 l 1
 799 877 l 1
 608 768 l 1
 426 172 l 2
 391 59 410 39 537 31 c 1
 526 0 l 1
 43 0 l 1
 53 31 l 1
 184 41 221 67 256 178 c 2
 399 651 l 1
 207 541 l 1
 233 631 l 1
 428 741 l 1
EndSplineSet
EndChar

StartChar: eth
Encoding: 240 240 201
Width: 1024
Flags: HW
HStem: -20 61<426 617> 877 61<398 508>
VStem: 61 188<450 590> 774 188<339 503>
LayerCount: 2
Fore
SplineSet
963 492 m 0
 963 187 776 -20 510 -20 c 0
 250 -20 61 174 61 471 c 0
 61 709 230 938 494 938 c 0
 523 938 540 936 569 930 c 1
 546 977 502 1036 453 1087 c 1
 184 997 l 1
 115 1096 l 1
 273 1129 326 1149 381 1165 c 1
 318 1239 232 1302 158 1343 c 1
 270 1399 l 1
 340 1362 444 1293 532 1217 c 1
 803 1307 l 1
 872 1208 l 1
 817 1198 708 1176 606 1141 c 1
 606 1141 963 791 963 492 c 0
774 393 m 0
 774 612 694 877 483 877 c 0
 313 877 250 711 250 555 c 0
 250 344 312 41 541 41 c 0
 695 41 774 196 774 393 c 0
EndSplineSet
EndChar

StartChar: thorn
Encoding: 254 254 202
Width: 1024
Flags: HW
HStem: -444 37<10 10 506 506> -444 444 -20 66<490 612> 819 123<564 610>
VStem: 154 172<-268 -254 -254 68 150 180 180 684 782 1174 1174 1217> 786 176<357 545>
LayerCount: 2
Fore
SplineSet
408 1276 m 1x8c
 418 1309 l 1
 572 1348 634 1364 743 1399 c 1
 752 1393 l 1
 565 782 l 1
 690 893 796 942 909 942 c 0
 1108 942 1194 760 1118 506 c 0
 1026 209 768 -20 526 -20 c 0
 440 -20 397 0 346 68 c 1
 248 -254 l 2
 209 -383 227 -406 381 -408 c 1xbc
 371 -444 l 1
 -125 -444 l 1x4c
 -115 -408 l 1
 10 -398 39 -374 72 -268 c 2
 512 1174 l 2
 539 1260 526 1278 444 1278 c 0
 430 1278 422 1278 408 1276 c 1x8c
535 684 m 2
 381 180 l 2
 363 119 457 45 553 45 c 0
 700 45 848 199 918 426 c 0
 990 664 936 819 784 819 c 0
 690 819 553 745 535 684 c 2
EndSplineSet
EndChar

StartChar: one
Encoding: 49 49 203
Width: 1024
Flags: HMW
HStem: 0 31<242 242 807 807> 1169 29<227 227> 1343 41<596 596>
VStem: 436 176<190 1118 1118 1151>
LayerCount: 2
Fore
SplineSet
596 1384 m 1
 612 1380 l 1
 612 152 l 2
 612 54 645 33 807 31 c 1
 807 0 l 1
 242 0 l 1
 242 31 l 1
 328 33 356 39 387 57 c 0
 420 75 436 122 436 190 c 2
 436 1118 l 2
 436 1184 418 1214 375 1214 c 0
 355 1214 320 1206 283 1192 c 0
 275 1188 252 1179 227 1169 c 1
 227 1198 l 1
 596 1384 l 1
EndSplineSet
EndChar

StartChar: two
Encoding: 50 50 204
Width: 1024
Flags: HMW
HStem: 0 156<262 752 752 798> 1233 152<433 489>
VStem: 692 176<942 1030>
LayerCount: 2
Fore
SplineSet
973 281 m 1
 860 0 l 1
 61 0 l 1
 61 25 l 1
 426 412 l 2
 598 594 692 784 692 944 c 0
 692 1116 575 1233 403 1233 c 0
 262 1233 188 1168 106 967 c 1
 63 977 l 1
 98 1122 129 1187 195 1257 c 0
 271 1339 376 1384 489 1384 c 0
 702 1384 868 1227 868 1022 c 0
 868 862 788 706 606 516 c 2
 262 156 l 1
 752 156 l 2
 844 156 870 174 946 291 c 1
 973 281 l 1
EndSplineSet
EndChar

StartChar: three
Encoding: 51 51 205
Width: 1024
Flags: HW
HStem: -29 74<248 544> 1262 123<444 495>
VStem: 653 162<1049 1107> 737 147<380 421>
LayerCount: 2
Fore
SplineSet
313 676 m 1xd0
 313 702 l 1
 452 751 510 783 571 844 c 0
 622 895 653 968 653 1042 c 0
 653 1171 561 1262 428 1262 c 0
 299 1262 207 1194 123 1044 c 1
 92 1053 l 1
 137 1176 168 1229 229 1284 c 0
 303 1350 394 1384 496 1384 c 0
 684 1384 815 1270 815 1104 c 0xe0
 815 993 764 917 623 821 c 1
 713 782 752 758 793 713 c 0
 852 650 885 553 885 449 c 0
 885 312 831 193 735 109 c 0
 639 25 477 -29 319 -29 c 0
 176 -29 88 16 88 88 c 0
 88 131 119 160 166 160 c 0
 201 160 236 146 297 109 c 0
 373 60 414 45 469 45 c 0
 621 45 737 178 737 350 c 0
 737 491 657 608 530 653 c 0
 481 671 434 676 313 676 c 1xd0
EndSplineSet
EndChar

StartChar: four
Encoding: 52 52 206
Width: 1024
Flags: HW
HStem: 0 41 342 131<106 598 758 967> 1343 41<668 758 758 758>
VStem: 598 160<473 1176 1176 1176> 600 158<0 342>
LayerCount: 2
Fore
SplineSet
967 473 m 1xe8
 967 342 l 1
 758 342 l 1
 758 0 l 1xf0
 600 0 l 1
 600 342 l 1
 25 342 l 1
 25 473 l 1
 668 1384 l 1
 758 1384 l 1
 758 473 l 1
 967 473 l 1xe8
598 473 m 1
 598 1176 l 1
 106 473 l 1
 598 473 l 1
EndSplineSet
EndChar

StartChar: five
Encoding: 53 53 207
Width: 1024
Flags: HMW
HStem: -29 76<239 539> 1194 162<371 371 371 772>
VStem: 731 143<418 499>
LayerCount: 2
Fore
SplineSet
371 1194 m 1
 285 1020 l 1
 527 977 643 930 733 840 c 0
 835 738 874 643 874 496 c 0
 874 340 831 223 737 131 c 1
 635 27 487 -29 315 -29 c 0
 161 -29 66 20 66 98 c 0
 66 149 95 174 154 174 c 0
 197 174 243 153 309 106 c 0
 370 61 405 47 446 47 c 0
 606 47 731 200 731 397 c 0
 731 600 623 727 387 803 c 0
 303 830 222 844 156 844 c 0
 140 844 131 850 131 860 c 0
 131 864 131 866 133 870 c 2
 356 1356 l 1
 784 1356 l 2
 827 1356 848 1366 879 1409 c 1
 897 1395 l 1
 819 1212 l 2
 813 1198 805 1194 772 1194 c 2
 371 1194 l 1
EndSplineSet
EndChar

StartChar: six
Encoding: 54 54 208
Width: 1024
Flags: HMW
HStem: -29 57<465 623> 782 94<528 584>
VStem: 70 190<482 591> 774 184<307 507>
LayerCount: 2
Fore
SplineSet
913 1401 m 1
 918 1368 l 1
 596 1315 366 1093 311 784 c 1
 440 862 483 877 573 877 c 0
 809 877 958 711 958 449 c 0
 958 166 782 -29 528 -29 c 0
 401 -29 291 21 213 111 c 0
 125 213 70 393 70 571 c 0
 70 845 191 1079 412 1237 c 0
 562 1341 680 1381 913 1401 c 1
496 782 m 0
 424 782 360 764 317 731 c 0
 276 700 260 643 260 539 c 0
 260 222 371 29 551 29 c 0
 694 29 774 154 774 379 c 0
 774 635 672 782 496 782 c 0
EndSplineSet
EndChar

StartChar: seven
Encoding: 55 55 209
Width: 1024
Flags: HMW
HStem: -16 41 1204 152<257 313 313 758>
LayerCount: 2
Fore
SplineSet
920 1356 m 1
 920 1323 l 1
 485 -16 l 1
 352 -16 l 1
 758 1204 l 1
 313 1204 l 2
 200 1204 164 1177 76 1038 c 1
 41 1055 l 1
 162 1356 l 1
 920 1356 l 1
EndSplineSet
EndChar

StartChar: eight
Encoding: 56 56 210
Width: 1024
Flags: HW
HStem: -29 57<453 597> 1327 57<435 569>
VStem: 115 156<237 379> 127 152<1067 1154> 727 141<1037 1166> 756 156<212 311>
LayerCount: 2
Fore
SplineSet
594 760 m 1xd8
 842 576 911 475 911 317 c 0
 911 106 754 -29 508 -29 c 0
 277 -29 115 110 115 309 c 0xe4
 115 448 160 512 381 680 c 1
 166 868 127 928 127 1061 c 0
 127 1247 293 1384 516 1384 c 0
 721 1384 868 1262 868 1094 c 0
 868 955 797 869 594 760 c 1xd8
557 549 m 2
 434 639 l 1
 315 543 270 457 270 326 c 0
 270 148 374 29 530 29 c 0
 663 29 756 121 756 254 c 0
 756 369 707 443 557 549 c 2
535 797 m 1xd8
 543 803 543 803 553 809 c 0
 670 887 727 979 727 1096 c 0
 727 1237 639 1327 500 1327 c 0
 371 1327 279 1243 279 1124 c 0
 279 1009 353 916 535 797 c 1xd8
EndSplineSet
EndChar

StartChar: nine
Encoding: 57 57 211
Width: 1024
Flags: HMW
HStem: 485 88<426 486> 1327 57<441 560>
VStem: 61 188<849 1029>
LayerCount: 2
Fore
SplineSet
121 -45 m 1
 115 -4 l 1
 426 49 653 268 737 602 c 1
 628 518 543 485 430 485 c 0
 209 485 61 651 61 901 c 0
 61 1177 243 1384 487 1384 c 0
 751 1384 940 1145 940 807 c 0
 940 531 815 277 602 121 c 0
 463 21 350 -18 121 -45 c 1
741 727 m 2
 741 807 l 2
 741 1151 649 1327 471 1327 c 0
 412 1327 361 1305 326 1264 c 0
 283 1211 250 1088 250 971 c 0
 250 727 348 573 504 573 c 0
 578 573 654 600 711 649 c 0
 734 667 741 686 741 727 c 2
EndSplineSet
EndChar

StartChar: zero
Encoding: 48 48 212
Width: 1024
Flags: HMW
HStem: -29 53<453 564> 1331 53<464 600>
VStem: 49 197<577 808> 778 197<552 886>
LayerCount: 2
Fore
SplineSet
520 1384 m 0
 788 1384 975 1096 975 676 c 0
 975 428 897 191 778 78 c 0
 704 6 616 -29 512 -29 c 0
 393 -29 289 21 213 111 c 0
 117 226 49 465 49 688 c 0
 49 928 127 1163 246 1278 c 0
 322 1350 407 1384 520 1384 c 0
514 1331 m 0
 338 1331 246 1104 246 670 c 0
 246 244 336 25 512 25 c 0
 688 25 778 244 778 672 c 0
 778 1100 686 1331 514 1331 c 0
EndSplineSet
EndChar

StartChar: sterling
Encoding: 163 163 213
Width: 1024
Flags: HW
HStem: -16 57<137 182> -14 170<663 709> 193 74<156 207> 672 92<47 266 457 705 457 457> 1329 55<559 658>
VStem: 25 53<94 141> 252 174<1008 1052>
LayerCount: 2
Fore
SplineSet
705 764 m 1xbe
 705 672 l 1
 457 672 l 1
 457 616 l 1
 459 559 l 1
 459 487 457 477 408 227 c 1
 541 172 613 156 713 156 c 0
 807 156 878 186 944 256 c 0
 964 279 981 289 991 289 c 0
 999 289 1004 285 1004 279 c 0
 1004 244 958 153 915 104 c 0
 849 28 757 -14 659 -14 c 0x76
 571 -14 504 15 365 111 c 1
 283 15 236 -16 164 -16 c 0
 80 -16 25 33 25 111 c 0
 25 205 100 266 211 266 c 0
 242 266 266 264 305 256 c 1
 311 272 313 285 313 299 c 0
 313 336 309 371 268 672 c 1
 47 672 l 1
 47 764 l 1
 266 764 l 1
 256 817 252 856 252 905 c 0
 252 1198 407 1384 651 1384 c 0
 803 1384 918 1303 918 1194 c 0
 918 1131 874 1085 815 1085 c 0
 754 1085 737 1114 735 1223 c 0
 733 1295 697 1329 621 1329 c 0
 498 1329 426 1224 426 1044 c 0
 426 970 433 903 449 764 c 1
 705 764 l 1xbe
182 193 m 0
 114 193 78 166 78 117 c 0
 78 72 113 41 162 41 c 0xa6
 203 41 227 53 256 88 c 0
 279 115 291 140 291 156 c 0
 291 172 231 193 182 193 c 0
EndSplineSet
EndChar

StartChar: dollar
Encoding: 36 36 214
Width: 1024
Flags: HMW
VStem: 106 152<1047 1093> 471 70<-178 0 57 600 1360 1489> 774 162<299 362>
LayerCount: 2
Fore
SplineSet
870 1024 m 1
 840 1024 l 1
 805 1198 713 1285 541 1305 c 1
 541 801 l 1
 789 658 844 616 895 532 c 0
 920 491 936 418 936 348 c 0
 936 250 897 166 829 109 c 0
 755 50 693 25 541 0 c 1
 541 -178 l 1
 471 -178 l 1
 471 0 l 1
 299 6 213 28 90 104 c 1
 90 371 l 1
 121 371 l 1
 170 156 278 59 471 57 c 1
 471 635 l 1
 326 717 280 748 221 805 c 0
 139 881 106 953 106 1049 c 0
 106 1137 147 1219 217 1274 c 0
 285 1327 342 1346 471 1360 c 1
 471 1489 l 1
 541 1489 l 1
 541 1360 l 1
 713 1340 800 1308 870 1251 c 1
 870 1024 l 1
469 834 m 1
 469 1305 l 1
 328 1276 258 1207 258 1094 c 0
 258 1000 299 949 469 834 c 1
541 600 m 1
 541 57 l 1
 701 88 774 164 774 299 c 0
 774 426 731 481 541 600 c 1
EndSplineSet
EndChar

StartChar: cent
Encoding: 162 162 215
Width: 1024
Flags: HW
HStem: -18 150<470 689> 0 41 881 61<461 562> 891 41<664 664>
VStem: 109 158<459 587>
LayerCount: 2
Fore
SplineSet
825 1186 m 1x18
 729 909 l 1
 827 870 883 809 883 737 c 0
 883 684 846 645 795 645 c 0
 744 645 713 672 676 752 c 1
 469 156 l 1
 518 138 549 131 590 131 c 0
 711 131 785 182 891 336 c 1
 918 319 l 1
 848 176 809 120 737 59 c 0
 680 10 604 -18 526 -18 c 0xa8
 491 -18 461 -14 412 0 c 1
 311 -283 l 1
 242 -283 l 1
 346 25 l 1
 270 68 240 94 203 145 c 0
 144 227 109 338 109 449 c 0
 109 725 305 942 559 942 c 0x68
 588 942 615 940 664 932 c 1
 754 1186 l 1
 825 1186 l 1x18
406 201 m 1
 641 862 l 1
 604 876 580 881 545 881 c 0
 377 881 266 741 266 532 c 0
 266 385 306 293 406 201 c 1
EndSplineSet
EndChar

StartChar: florin
Encoding: 402 402 216
Width: 1024
Flags: HMW
HStem: -387 49<182 234> 770 63<238 444 627 864> 1325 59<801 829>
VStem: 14 137<-338 -197> 858 145<1195 1324>
LayerCount: 2
Fore
SplineSet
885 834 m 1
 864 770 l 1
 618 770 l 1
 604 657 588 541 586 514 c 0
 537 135 501 -29 438 -172 c 0
 370 -319 291 -387 178 -387 c 0
 82 -387 14 -328 14 -246 c 0
 14 -193 54 -154 109 -154 c 0
 154 -154 182 -182 182 -227 c 0
 182 -245 176 -260 164 -283 c 0
 156 -297 152 -305 152 -311 c 0
 152 -325 170 -338 195 -338 c 0
 287 -338 342 -220 362 18 c 2
 393 371 l 1
 403 480 416 594 418 602 c 1
 440 739 l 1
 444 770 l 1
 217 770 l 1
 238 834 l 1
 457 834 l 1
 490 1047 524 1145 602 1260 c 0
 655 1338 743 1384 829 1384 c 0
 925 1384 1004 1323 1004 1245 c 0
 1004 1194 960 1153 909 1153 c 0
 868 1153 831 1186 831 1223 c 0
 831 1235 838 1254 848 1272 c 0
 854 1284 858 1294 858 1300 c 0
 858 1314 842 1325 817 1325 c 0
 784 1325 756 1313 733 1290 c 0
 694 1249 655 1118 643 989 c 0
 641 966 635 904 627 834 c 1
 885 834 l 1
EndSplineSet
EndChar

StartChar: uni01C0
Encoding: 448 448 217
Width: 409
Flags: HW
HStem: -334 41
VStem: 147 115<-334 1386>
LayerCount: 2
Fore
SplineSet
262 -334 m 1
 147 -334 l 1
 147 1386 l 1
 262 1386 l 1
 262 -334 l 1
EndSplineSet
EndChar

StartChar: yen
Encoding: 165 165 218
Width: 1024
Flags: HMW
HStem: 0 39<227 227 727 727> 373 82<33 389 563 918> 639 82<33 328 618 918> 1317 39<-109 -109 389 389 649 649 1049 1049>
VStem: 389 174<246 373 455 610> 649 399<1317 1356>
LayerCount: 2
Fore
SplineSet
1049 1317 m 1
 951 1299 877 1235 807 1098 c 2
 618 721 l 1
 918 721 l 1
 918 639 l 1
 578 639 l 1
 563 610 l 1
 563 455 l 1
 918 455 l 1
 918 373 l 1
 563 373 l 1
 563 223 l 2
 563 69 610 41 727 39 c 1
 727 0 l 1
 227 0 l 1
 227 39 l 1
 372 43 389 90 389 246 c 2
 389 373 l 1
 33 373 l 1
 33 455 l 1
 389 455 l 1
 389 610 l 1
 375 639 l 1
 33 639 l 1
 33 721 l 1
 328 721 l 1
 133 1075 l 2
 39 1245 -5 1315 -109 1317 c 1
 -109 1356 l 1
 389 1356 l 1
 389 1317 l 1
 293 1319 256 1298 256 1255 c 0
 256 1230 267 1196 283 1165 c 2
 524 713 l 1
 754 1163 l 2
 770 1194 782 1220 782 1253 c 0
 782 1302 721 1323 649 1317 c 1
 649 1356 l 1
 1049 1356 l 1
 1049 1317 l 1
EndSplineSet
EndChar

StartChar: onesuperior
Encoding: 185 185 219
Width: 614
Flags: HW
HStem: 553 18<143 483 145 231 322 484>
LayerCount: 2
Fore
SplineSet
358 1384 m 5
 367 1381 l 5
 367 644 l 6
 367 585 387 572 484 571 c 5
 484 553 l 5
 145 553 l 5
 145 571 l 5
 197 572 214 576 232 587 c 4
 252 598 262 626 262 667 c 6
 262 1224 l 6
 262 1263 251 1282 225 1282 c 4
 213 1282 192 1277 170 1268 c 4
 165 1266 151 1261 136 1255 c 5
 136 1272 l 5
 358 1384 l 5
EndSplineSet
EndChar

StartChar: twosuperior
Encoding: 178 178 220
Width: 614
Flags: HMW
HStem: 553 94<158 516> 1292 92<242 293>
VStem: 416 104<1120 1165>
LayerCount: 2
Fore
SplineSet
584 721 m 1
 516 553 l 1
 37 553 l 1
 37 567 l 1
 256 801 l 2
 358 910 416 1024 416 1120 c 0
 416 1222 346 1292 242 1292 c 0
 158 1292 112 1254 63 1133 c 1
 39 1139 l 1
 59 1227 78 1266 117 1307 c 0
 162 1356 225 1384 293 1384 c 0
 422 1384 520 1288 520 1165 c 0
 520 1071 474 977 365 862 c 2
 158 647 l 1
 451 647 l 2
 506 647 522 657 567 727 c 1
 584 721 l 1
EndSplineSet
EndChar

StartChar: threesuperior
Encoding: 179 179 221
Width: 614
Flags: HW
HStem: 537 43<193 281> 1311 74<256 297>
VStem: 391 98<1178 1214> 442 88<764 821>
LayerCount: 2
Fore
SplineSet
188 958 m 5xd0
 188 975 l 5
 272 1004 305 1022 342 1059 c 4
 373 1090 391 1135 391 1178 c 4
 391 1256 336 1311 256 1311 c 4
 180 1311 125 1270 74 1180 c 5
 55 1184 l 5
 82 1258 100 1290 137 1323 c 4
 182 1362 236 1384 297 1384 c 4
 410 1384 489 1314 489 1214 c 4xe0
 489 1148 459 1104 373 1047 c 5
 428 1022 450 1008 475 981 c 4
 512 942 530 884 530 821 c 4
 530 739 499 667 440 618 c 4
 383 567 287 537 193 537 c 4
 107 537 53 563 53 606 c 4
 53 631 71 649 100 649 c 4
 120 649 141 641 178 618 c 4
 223 587 248 580 281 580 c 4
 373 580 442 660 442 764 c 4
 442 848 395 917 317 944 c 4
 288 956 260 958 188 958 c 5xd0
EndSplineSet
EndChar

StartChar: period
Encoding: 46 46 222
Width: 512
Flags: HMW
HStem: -23 227<234 278>
VStem: 143 227<50 120>
LayerCount: 2
Fore
SplineSet
371 88 m 0
 371 12 299 -23 256 -23 c 0
 213 -23 143 10 143 88 c 0
 143 154 195 205 256 205 c 0
 317 205 371 151 371 88 c 0
EndSplineSet
EndChar

StartChar: colon
Encoding: 58 58 223
Width: 569
Flags: HMW
HStem: -23 227<248 308> 713 227<248 308>
LayerCount: 2
Fore
SplineSet
279 940 m 0
 340 940 393 886 393 823 c 0
 393 764 339 713 276 713 c 0
 217 713 166 764 166 823 c 0
 166 886 218 940 279 940 c 0
279 205 m 0
 340 205 393 151 393 88 c 0
 393 29 339 -23 276 -23 c 0
 217 -23 166 29 166 88 c 0
 166 151 218 205 279 205 c 0
EndSplineSet
EndChar

StartChar: periodcentered
Encoding: 183 183 224
Width: 512
Flags: HW
HStem: 416 227<234 278>
VStem: 143 227<488 558>
LayerCount: 2
Fore
SplineSet
371 526 m 0
 371 450 299 416 256 416 c 0
 213 416 143 448 143 526 c 0
 143 592 195 643 256 643 c 0
 317 643 371 589 371 526 c 0
EndSplineSet
EndChar

StartChar: ellipsis
Encoding: 8230 8230 225
Width: 2048
Flags: HMW
HStem: -23 41
VStem: 227 227<58 120> 909 227<58 120> 1591 227<58 120>
LayerCount: 2
Fore
SplineSet
340 205 m 0
 401 205 455 151 455 88 c 0
 455 29 401 -23 338 -23 c 0
 279 -23 227 29 227 88 c 0
 227 151 279 205 340 205 c 0
1022 205 m 0
 1083 205 1137 151 1137 88 c 0
 1137 29 1083 -23 1020 -23 c 0
 961 -23 909 29 909 88 c 0
 909 151 961 205 1022 205 c 0
1704 205 m 0
 1765 205 1819 151 1819 88 c 0
 1819 29 1765 -23 1702 -23 c 0
 1643 -23 1591 29 1591 88 c 0
 1591 151 1643 205 1704 205 c 0
EndSplineSet
Ligature2: "'liga' Standard Ligatures lookup 0 subtable" period period period
EndChar

StartChar: comma
Encoding: 44 44 226
Width: 512
Flags: HW
HStem: -12 221<215 249>
VStem: 319 80<-52 -24>
LayerCount: 2
Fore
SplineSet
399 12 m 0
 399 -133 231 -269 170 -289 c 1
 152 -250 l 1
 287 -164 319 -72 319 -33 c 0
 319 -15 305 -4 291 -4 c 0
 287 -4 280 -6 272 -8 c 0
 266 -10 256 -12 242 -12 c 0
 189 -12 115 8 115 90 c 0
 115 178 182 209 233 209 c 0
 280 209 399 182 399 12 c 0
EndSplineSet
EndChar

StartChar: semicolon
Encoding: 59 59 227
Width: 569
Flags: HW
HStem: -12 41 -4 213<186 368> 713 227<248 308>
VStem: 166 227<794 855> 369 80<-35 -25>
LayerCount: 2
Fore
SplineSet
219 -289 m 1x48
 201 -250 l 1
 312 -174 369 -99 369 -33 c 0
 369 -17 356 -4 340 -4 c 0x68
 338 -4 338 -4 324 -8 c 0
 312 -10 297 -12 285 -12 c 0x88
 209 -12 164 26 164 94 c 0
 164 164 213 209 285 209 c 0
 377 209 449 129 449 27 c 0
 449 -96 360 -219 219 -289 c 1x48
279 940 m 0
 340 940 393 886 393 823 c 0
 393 764 339 713 276 713 c 0
 217 713 166 764 166 823 c 0x70
 166 886 218 940 279 940 c 0
EndSplineSet
EndChar

StartChar: quoteleft
Encoding: 8216 8216 228
Width: 681
Flags: HMW
HStem: 887 213<316 497> 1343 41<465 465>
VStem: 236 80<1120 1130>
LayerCount: 2
Fore
SplineSet
465 1384 m 1
 483 1346 l 1
 372 1270 315 1196 315 1128 c 0
 315 1112 328 1100 344 1100 c 0
 346 1100 346 1100 360 1104 c 0
 372 1106 387 1108 399 1108 c 0
 473 1108 520 1067 520 1004 c 0
 520 934 471 887 399 887 c 0
 307 887 236 965 236 1069 c 0
 236 1192 328 1316 465 1384 c 1
EndSplineSet
EndChar

